<mxfile host="Electron" agent="Mozilla/5.0 (Macintosh; Intel Mac OS X 10_15_7) AppleWebKit/537.36 (KHTML, like Gecko) draw.io/26.2.15 Chrome/134.0.6998.205 Electron/35.2.1 Safari/537.36" version="26.2.15">
  <diagram name="Page-1" id="14Vz3AORU0udbya1Qeny">
    <mxGraphModel dx="1665" dy="848" grid="0" gridSize="10" guides="1" tooltips="1" connect="1" arrows="1" fold="1" page="1" pageScale="1" pageWidth="3300" pageHeight="2339" background="none" math="0" shadow="0">
      <root>
        <mxCell id="0" />
        <mxCell id="1" parent="0" />
        <mxCell id="U8u-r5qWbixyM0oDS7mE-1" value="Product" style="shape=table;startSize=40;container=1;collapsible=1;childLayout=tableLayout;fixedRows=1;rowLines=0;fontStyle=1;align=center;resizeLast=1;html=1;whiteSpace=wrap;strokeWidth=0.5;labelBackgroundColor=none;fillColor=#09555B;strokeColor=#BAC8D3;fontColor=#EEEEEE;rounded=1;" parent="1" vertex="1">
          <mxGeometry x="2192" y="573.11" width="168" height="180" as="geometry" />
        </mxCell>
        <mxCell id="U8u-r5qWbixyM0oDS7mE-2" value="" style="shape=tableRow;horizontal=0;startSize=0;swimlaneHead=0;swimlaneBody=0;fillColor=none;collapsible=0;dropTarget=0;points=[[0,0.5],[1,0.5]];portConstraint=eastwest;top=0;left=0;right=0;bottom=0;html=1;strokeWidth=0.5;labelBackgroundColor=none;strokeColor=#BAC8D3;fontColor=#EEEEEE;rounded=1;" parent="U8u-r5qWbixyM0oDS7mE-1" vertex="1">
          <mxGeometry y="40" width="168" height="30" as="geometry" />
        </mxCell>
        <mxCell id="U8u-r5qWbixyM0oDS7mE-3" value="PK" style="shape=partialRectangle;connectable=0;fillColor=none;top=0;left=0;bottom=0;right=0;fontStyle=1;overflow=hidden;html=1;whiteSpace=wrap;strokeWidth=0.5;labelBackgroundColor=none;strokeColor=#BAC8D3;fontColor=#EEEEEE;rounded=1;" parent="U8u-r5qWbixyM0oDS7mE-2" vertex="1">
          <mxGeometry width="50.75" height="30" as="geometry">
            <mxRectangle width="50.75" height="30" as="alternateBounds" />
          </mxGeometry>
        </mxCell>
        <mxCell id="U8u-r5qWbixyM0oDS7mE-4" value="_id" style="shape=partialRectangle;connectable=0;fillColor=none;top=0;left=0;bottom=0;right=0;align=left;spacingLeft=6;fontStyle=5;overflow=hidden;html=1;whiteSpace=wrap;strokeWidth=0.5;labelBackgroundColor=none;strokeColor=#BAC8D3;fontColor=#EEEEEE;rounded=1;" parent="U8u-r5qWbixyM0oDS7mE-2" vertex="1">
          <mxGeometry x="50.75" width="117.25" height="30" as="geometry">
            <mxRectangle width="117.25" height="30" as="alternateBounds" />
          </mxGeometry>
        </mxCell>
        <mxCell id="U8u-r5qWbixyM0oDS7mE-5" value="" style="shape=tableRow;horizontal=0;startSize=0;swimlaneHead=0;swimlaneBody=0;fillColor=none;collapsible=0;dropTarget=0;points=[[0,0.5],[1,0.5]];portConstraint=eastwest;top=0;left=0;right=0;bottom=1;html=1;strokeWidth=0.5;labelBackgroundColor=none;strokeColor=#BAC8D3;fontColor=#EEEEEE;rounded=1;" parent="U8u-r5qWbixyM0oDS7mE-1" vertex="1">
          <mxGeometry y="70" width="168" height="20" as="geometry" />
        </mxCell>
        <mxCell id="U8u-r5qWbixyM0oDS7mE-6" value="" style="shape=partialRectangle;connectable=0;fillColor=none;top=0;left=0;bottom=0;right=0;fontStyle=1;overflow=hidden;html=1;whiteSpace=wrap;strokeWidth=0.5;labelBackgroundColor=none;strokeColor=#BAC8D3;fontColor=#EEEEEE;rounded=1;" parent="U8u-r5qWbixyM0oDS7mE-5" vertex="1">
          <mxGeometry width="50.75" height="20" as="geometry">
            <mxRectangle width="50.75" height="20" as="alternateBounds" />
          </mxGeometry>
        </mxCell>
        <mxCell id="U8u-r5qWbixyM0oDS7mE-7" value="title" style="shape=partialRectangle;connectable=0;fillColor=none;top=0;left=0;bottom=0;right=0;align=left;spacingLeft=6;fontStyle=5;overflow=hidden;html=1;whiteSpace=wrap;strokeWidth=0.5;labelBackgroundColor=none;strokeColor=#BAC8D3;fontColor=#EEEEEE;rounded=1;" parent="U8u-r5qWbixyM0oDS7mE-5" vertex="1">
          <mxGeometry x="50.75" width="117.25" height="20" as="geometry">
            <mxRectangle width="117.25" height="20" as="alternateBounds" />
          </mxGeometry>
        </mxCell>
        <mxCell id="U8u-r5qWbixyM0oDS7mE-8" value="" style="shape=tableRow;horizontal=0;startSize=0;swimlaneHead=0;swimlaneBody=0;fillColor=none;collapsible=0;dropTarget=0;points=[[0,0.5],[1,0.5]];portConstraint=eastwest;top=0;left=0;right=0;bottom=0;html=1;strokeWidth=0.5;labelBackgroundColor=none;strokeColor=#BAC8D3;fontColor=#EEEEEE;rounded=1;" parent="U8u-r5qWbixyM0oDS7mE-1" vertex="1">
          <mxGeometry y="90" width="168" height="30" as="geometry" />
        </mxCell>
        <mxCell id="U8u-r5qWbixyM0oDS7mE-9" value="" style="shape=partialRectangle;connectable=0;fillColor=none;top=0;left=0;bottom=0;right=0;editable=1;overflow=hidden;html=1;whiteSpace=wrap;strokeWidth=0.5;labelBackgroundColor=none;strokeColor=#BAC8D3;fontColor=#EEEEEE;rounded=1;" parent="U8u-r5qWbixyM0oDS7mE-8" vertex="1">
          <mxGeometry width="50.75" height="30" as="geometry">
            <mxRectangle width="50.75" height="30" as="alternateBounds" />
          </mxGeometry>
        </mxCell>
        <mxCell id="U8u-r5qWbixyM0oDS7mE-10" value="price" style="shape=partialRectangle;connectable=0;fillColor=none;top=0;left=0;bottom=0;right=0;align=left;spacingLeft=6;overflow=hidden;html=1;whiteSpace=wrap;strokeWidth=0.5;labelBackgroundColor=none;strokeColor=#BAC8D3;fontColor=#EEEEEE;rounded=1;" parent="U8u-r5qWbixyM0oDS7mE-8" vertex="1">
          <mxGeometry x="50.75" width="117.25" height="30" as="geometry">
            <mxRectangle width="117.25" height="30" as="alternateBounds" />
          </mxGeometry>
        </mxCell>
        <mxCell id="FsbxxfnnBqgwTSdRjxEj-224" value="" style="shape=tableRow;horizontal=0;startSize=0;swimlaneHead=0;swimlaneBody=0;fillColor=none;collapsible=0;dropTarget=0;points=[[0,0.5],[1,0.5]];portConstraint=eastwest;top=0;left=0;right=0;bottom=0;html=1;strokeWidth=0.5;labelBackgroundColor=none;strokeColor=#BAC8D3;fontColor=#EEEEEE;rounded=1;" parent="U8u-r5qWbixyM0oDS7mE-1" vertex="1">
          <mxGeometry y="120" width="168" height="30" as="geometry" />
        </mxCell>
        <mxCell id="FsbxxfnnBqgwTSdRjxEj-225" value="FK" style="shape=partialRectangle;connectable=0;fillColor=none;top=0;left=0;bottom=0;right=0;editable=1;overflow=hidden;html=1;whiteSpace=wrap;strokeWidth=0.5;labelBackgroundColor=none;strokeColor=#BAC8D3;fontColor=#EEEEEE;rounded=1;" parent="FsbxxfnnBqgwTSdRjxEj-224" vertex="1">
          <mxGeometry width="50.75" height="30" as="geometry">
            <mxRectangle width="50.75" height="30" as="alternateBounds" />
          </mxGeometry>
        </mxCell>
        <mxCell id="FsbxxfnnBqgwTSdRjxEj-226" value="category_Id" style="shape=partialRectangle;connectable=0;fillColor=none;top=0;left=0;bottom=0;right=0;align=left;spacingLeft=6;overflow=hidden;html=1;whiteSpace=wrap;strokeWidth=0.5;labelBackgroundColor=none;strokeColor=#BAC8D3;fontColor=#EEEEEE;rounded=1;" parent="FsbxxfnnBqgwTSdRjxEj-224" vertex="1">
          <mxGeometry x="50.75" width="117.25" height="30" as="geometry">
            <mxRectangle width="117.25" height="30" as="alternateBounds" />
          </mxGeometry>
        </mxCell>
        <mxCell id="FsbxxfnnBqgwTSdRjxEj-221" value="" style="shape=tableRow;horizontal=0;startSize=0;swimlaneHead=0;swimlaneBody=0;fillColor=none;collapsible=0;dropTarget=0;points=[[0,0.5],[1,0.5]];portConstraint=eastwest;top=0;left=0;right=0;bottom=0;html=1;strokeWidth=0.5;labelBackgroundColor=none;strokeColor=#BAC8D3;fontColor=#EEEEEE;rounded=1;" parent="U8u-r5qWbixyM0oDS7mE-1" vertex="1">
          <mxGeometry y="150" width="168" height="30" as="geometry" />
        </mxCell>
        <mxCell id="FsbxxfnnBqgwTSdRjxEj-222" value="" style="shape=partialRectangle;connectable=0;fillColor=none;top=0;left=0;bottom=0;right=0;editable=1;overflow=hidden;html=1;whiteSpace=wrap;strokeWidth=0.5;labelBackgroundColor=none;strokeColor=#BAC8D3;fontColor=#EEEEEE;rounded=1;" parent="FsbxxfnnBqgwTSdRjxEj-221" vertex="1">
          <mxGeometry width="50.75" height="30" as="geometry">
            <mxRectangle width="50.75" height="30" as="alternateBounds" />
          </mxGeometry>
        </mxCell>
        <mxCell id="FsbxxfnnBqgwTSdRjxEj-223" value="description" style="shape=partialRectangle;connectable=0;fillColor=none;top=0;left=0;bottom=0;right=0;align=left;spacingLeft=6;overflow=hidden;html=1;whiteSpace=wrap;strokeWidth=0.5;labelBackgroundColor=none;strokeColor=#BAC8D3;fontColor=#EEEEEE;rounded=1;" parent="FsbxxfnnBqgwTSdRjxEj-221" vertex="1">
          <mxGeometry x="50.75" width="117.25" height="30" as="geometry">
            <mxRectangle width="117.25" height="30" as="alternateBounds" />
          </mxGeometry>
        </mxCell>
        <mxCell id="U8u-r5qWbixyM0oDS7mE-14" value="Users" style="shape=table;startSize=36;container=1;collapsible=1;childLayout=tableLayout;fixedRows=1;rowLines=0;fontStyle=1;align=center;resizeLast=1;html=1;strokeWidth=0.5;swimlaneFillColor=default;labelBackgroundColor=none;fillColor=#09555B;strokeColor=#BAC8D3;fontColor=#EEEEEE;rounded=1;" parent="1" vertex="1">
          <mxGeometry x="772" y="526" width="179" height="250" as="geometry" />
        </mxCell>
        <mxCell id="U8u-r5qWbixyM0oDS7mE-15" value="" style="shape=tableRow;horizontal=0;startSize=0;swimlaneHead=0;swimlaneBody=0;fillColor=none;collapsible=0;dropTarget=0;points=[[0,0.5],[1,0.5]];portConstraint=eastwest;top=0;left=0;right=0;bottom=1;strokeWidth=0.5;swimlaneFillColor=default;labelBackgroundColor=none;strokeColor=#BAC8D3;fontColor=#EEEEEE;rounded=1;" parent="U8u-r5qWbixyM0oDS7mE-14" vertex="1">
          <mxGeometry y="36" width="179" height="30" as="geometry" />
        </mxCell>
        <mxCell id="U8u-r5qWbixyM0oDS7mE-16" value="PK" style="shape=partialRectangle;connectable=0;fillColor=none;top=0;left=0;bottom=0;right=0;fontStyle=1;overflow=hidden;whiteSpace=wrap;html=1;strokeWidth=0.5;swimlaneFillColor=default;labelBackgroundColor=none;strokeColor=#BAC8D3;fontColor=#EEEEEE;rounded=1;" parent="U8u-r5qWbixyM0oDS7mE-15" vertex="1">
          <mxGeometry width="30" height="30" as="geometry">
            <mxRectangle width="30" height="30" as="alternateBounds" />
          </mxGeometry>
        </mxCell>
        <mxCell id="U8u-r5qWbixyM0oDS7mE-17" value="_id" style="shape=partialRectangle;connectable=0;fillColor=none;top=0;left=0;bottom=0;right=0;align=left;spacingLeft=6;fontStyle=5;overflow=hidden;whiteSpace=wrap;html=1;strokeWidth=0.5;swimlaneFillColor=default;labelBackgroundColor=none;strokeColor=#BAC8D3;fontColor=#EEEEEE;rounded=1;" parent="U8u-r5qWbixyM0oDS7mE-15" vertex="1">
          <mxGeometry x="30" width="149" height="30" as="geometry">
            <mxRectangle width="149" height="30" as="alternateBounds" />
          </mxGeometry>
        </mxCell>
        <mxCell id="U8u-r5qWbixyM0oDS7mE-18" value="" style="shape=tableRow;horizontal=0;startSize=0;swimlaneHead=0;swimlaneBody=0;fillColor=none;collapsible=0;dropTarget=0;points=[[0,0.5],[1,0.5]];portConstraint=eastwest;top=0;left=0;right=0;bottom=0;strokeWidth=0.5;swimlaneFillColor=default;labelBackgroundColor=none;strokeColor=#BAC8D3;fontColor=#EEEEEE;rounded=1;" parent="U8u-r5qWbixyM0oDS7mE-14" vertex="1">
          <mxGeometry y="66" width="179" height="23" as="geometry" />
        </mxCell>
        <mxCell id="U8u-r5qWbixyM0oDS7mE-19" value="" style="shape=partialRectangle;connectable=0;fillColor=none;top=0;left=0;bottom=0;right=0;editable=1;overflow=hidden;whiteSpace=wrap;html=1;strokeWidth=0.5;swimlaneFillColor=default;labelBackgroundColor=none;strokeColor=#BAC8D3;fontColor=#EEEEEE;rounded=1;" parent="U8u-r5qWbixyM0oDS7mE-18" vertex="1">
          <mxGeometry width="30" height="23" as="geometry">
            <mxRectangle width="30" height="23" as="alternateBounds" />
          </mxGeometry>
        </mxCell>
        <mxCell id="U8u-r5qWbixyM0oDS7mE-20" value="full name&lt;span style=&quot;white-space: pre;&quot;&gt;&#x9;&lt;/span&gt;" style="shape=partialRectangle;connectable=0;fillColor=none;top=0;left=0;bottom=0;right=0;align=left;spacingLeft=6;overflow=hidden;whiteSpace=wrap;html=1;strokeWidth=0.5;swimlaneFillColor=default;labelBackgroundColor=none;strokeColor=#BAC8D3;fontColor=#EEEEEE;rounded=1;" parent="U8u-r5qWbixyM0oDS7mE-18" vertex="1">
          <mxGeometry x="30" width="149" height="23" as="geometry">
            <mxRectangle width="149" height="23" as="alternateBounds" />
          </mxGeometry>
        </mxCell>
        <mxCell id="U8u-r5qWbixyM0oDS7mE-21" value="" style="shape=tableRow;horizontal=0;startSize=0;swimlaneHead=0;swimlaneBody=0;fillColor=none;collapsible=0;dropTarget=0;points=[[0,0.5],[1,0.5]];portConstraint=eastwest;top=0;left=0;right=0;bottom=0;strokeWidth=0.5;swimlaneFillColor=default;labelBackgroundColor=none;strokeColor=#BAC8D3;fontColor=#EEEEEE;rounded=1;" parent="U8u-r5qWbixyM0oDS7mE-14" vertex="1">
          <mxGeometry y="89" width="179" height="23" as="geometry" />
        </mxCell>
        <mxCell id="U8u-r5qWbixyM0oDS7mE-22" value="" style="shape=partialRectangle;connectable=0;fillColor=none;top=0;left=0;bottom=0;right=0;editable=1;overflow=hidden;whiteSpace=wrap;html=1;strokeWidth=0.5;swimlaneFillColor=default;labelBackgroundColor=none;strokeColor=#BAC8D3;fontColor=#EEEEEE;rounded=1;" parent="U8u-r5qWbixyM0oDS7mE-21" vertex="1">
          <mxGeometry width="30" height="23" as="geometry">
            <mxRectangle width="30" height="23" as="alternateBounds" />
          </mxGeometry>
        </mxCell>
        <mxCell id="U8u-r5qWbixyM0oDS7mE-23" value="mobile" style="shape=partialRectangle;connectable=0;fillColor=none;top=0;left=0;bottom=0;right=0;align=left;spacingLeft=6;overflow=hidden;whiteSpace=wrap;html=1;strokeWidth=0.5;swimlaneFillColor=default;labelBackgroundColor=none;strokeColor=#BAC8D3;fontColor=#EEEEEE;rounded=1;" parent="U8u-r5qWbixyM0oDS7mE-21" vertex="1">
          <mxGeometry x="30" width="149" height="23" as="geometry">
            <mxRectangle width="149" height="23" as="alternateBounds" />
          </mxGeometry>
        </mxCell>
        <mxCell id="FsbxxfnnBqgwTSdRjxEj-230" value="" style="shape=tableRow;horizontal=0;startSize=0;swimlaneHead=0;swimlaneBody=0;fillColor=none;collapsible=0;dropTarget=0;points=[[0,0.5],[1,0.5]];portConstraint=eastwest;top=0;left=0;right=0;bottom=0;strokeWidth=0.5;swimlaneFillColor=default;labelBackgroundColor=none;strokeColor=#BAC8D3;fontColor=#EEEEEE;rounded=1;" parent="U8u-r5qWbixyM0oDS7mE-14" vertex="1">
          <mxGeometry y="112" width="179" height="23" as="geometry" />
        </mxCell>
        <mxCell id="FsbxxfnnBqgwTSdRjxEj-231" value="FK" style="shape=partialRectangle;connectable=0;fillColor=none;top=0;left=0;bottom=0;right=0;editable=1;overflow=hidden;whiteSpace=wrap;html=1;strokeWidth=0.5;swimlaneFillColor=default;labelBackgroundColor=none;strokeColor=#BAC8D3;fontColor=#EEEEEE;rounded=1;" parent="FsbxxfnnBqgwTSdRjxEj-230" vertex="1">
          <mxGeometry width="30" height="23" as="geometry">
            <mxRectangle width="30" height="23" as="alternateBounds" />
          </mxGeometry>
        </mxCell>
        <mxCell id="FsbxxfnnBqgwTSdRjxEj-232" value="role_Id" style="shape=partialRectangle;connectable=0;fillColor=none;top=0;left=0;bottom=0;right=0;align=left;spacingLeft=6;overflow=hidden;whiteSpace=wrap;html=1;strokeWidth=0.5;swimlaneFillColor=default;labelBackgroundColor=none;strokeColor=#BAC8D3;fontColor=#EEEEEE;rounded=1;" parent="FsbxxfnnBqgwTSdRjxEj-230" vertex="1">
          <mxGeometry x="30" width="149" height="23" as="geometry">
            <mxRectangle width="149" height="23" as="alternateBounds" />
          </mxGeometry>
        </mxCell>
        <mxCell id="U8u-r5qWbixyM0oDS7mE-24" value="" style="shape=tableRow;horizontal=0;startSize=0;swimlaneHead=0;swimlaneBody=0;fillColor=none;collapsible=0;dropTarget=0;points=[[0,0.5],[1,0.5]];portConstraint=eastwest;top=0;left=0;right=0;bottom=0;strokeWidth=0.5;swimlaneFillColor=default;labelBackgroundColor=none;strokeColor=#BAC8D3;fontColor=#EEEEEE;rounded=1;" parent="U8u-r5qWbixyM0oDS7mE-14" vertex="1">
          <mxGeometry y="135" width="179" height="23" as="geometry" />
        </mxCell>
        <mxCell id="U8u-r5qWbixyM0oDS7mE-25" value="" style="shape=partialRectangle;connectable=0;fillColor=none;top=0;left=0;bottom=0;right=0;editable=1;overflow=hidden;whiteSpace=wrap;html=1;strokeWidth=0.5;swimlaneFillColor=default;labelBackgroundColor=none;strokeColor=#BAC8D3;fontColor=#EEEEEE;rounded=1;" parent="U8u-r5qWbixyM0oDS7mE-24" vertex="1">
          <mxGeometry width="30" height="23" as="geometry">
            <mxRectangle width="30" height="23" as="alternateBounds" />
          </mxGeometry>
        </mxCell>
        <mxCell id="U8u-r5qWbixyM0oDS7mE-26" value="email" style="shape=partialRectangle;connectable=0;fillColor=none;top=0;left=0;bottom=0;right=0;align=left;spacingLeft=6;overflow=hidden;whiteSpace=wrap;html=1;strokeWidth=0.5;swimlaneFillColor=default;labelBackgroundColor=none;strokeColor=#BAC8D3;fontColor=#EEEEEE;rounded=1;" parent="U8u-r5qWbixyM0oDS7mE-24" vertex="1">
          <mxGeometry x="30" width="149" height="23" as="geometry">
            <mxRectangle width="149" height="23" as="alternateBounds" />
          </mxGeometry>
        </mxCell>
        <mxCell id="U8u-r5qWbixyM0oDS7mE-34" value="" style="shape=tableRow;horizontal=0;startSize=0;swimlaneHead=0;swimlaneBody=0;fillColor=none;collapsible=0;dropTarget=0;points=[[0,0.5],[1,0.5]];portConstraint=eastwest;top=0;left=0;right=0;bottom=0;strokeWidth=0.5;swimlaneFillColor=default;labelBackgroundColor=none;strokeColor=#BAC8D3;fontColor=#EEEEEE;rounded=1;" parent="U8u-r5qWbixyM0oDS7mE-14" vertex="1">
          <mxGeometry y="158" width="179" height="23" as="geometry" />
        </mxCell>
        <mxCell id="U8u-r5qWbixyM0oDS7mE-35" value="" style="shape=partialRectangle;connectable=0;fillColor=none;top=0;left=0;bottom=0;right=0;editable=1;overflow=hidden;whiteSpace=wrap;html=1;strokeWidth=0.5;swimlaneFillColor=default;labelBackgroundColor=none;strokeColor=#BAC8D3;fontColor=#EEEEEE;rounded=1;" parent="U8u-r5qWbixyM0oDS7mE-34" vertex="1">
          <mxGeometry width="30" height="23" as="geometry">
            <mxRectangle width="30" height="23" as="alternateBounds" />
          </mxGeometry>
        </mxCell>
        <mxCell id="U8u-r5qWbixyM0oDS7mE-36" value="dob" style="shape=partialRectangle;connectable=0;fillColor=none;top=0;left=0;bottom=0;right=0;align=left;spacingLeft=6;overflow=hidden;whiteSpace=wrap;html=1;strokeWidth=0.5;swimlaneFillColor=default;labelBackgroundColor=none;strokeColor=#BAC8D3;fontColor=#EEEEEE;rounded=1;" parent="U8u-r5qWbixyM0oDS7mE-34" vertex="1">
          <mxGeometry x="30" width="149" height="23" as="geometry">
            <mxRectangle width="149" height="23" as="alternateBounds" />
          </mxGeometry>
        </mxCell>
        <mxCell id="FsbxxfnnBqgwTSdRjxEj-295" value="" style="shape=tableRow;horizontal=0;startSize=0;swimlaneHead=0;swimlaneBody=0;fillColor=none;collapsible=0;dropTarget=0;points=[[0,0.5],[1,0.5]];portConstraint=eastwest;top=0;left=0;right=0;bottom=0;strokeWidth=0.5;swimlaneFillColor=default;labelBackgroundColor=none;strokeColor=#BAC8D3;fontColor=#EEEEEE;rounded=1;" parent="U8u-r5qWbixyM0oDS7mE-14" vertex="1">
          <mxGeometry y="181" width="179" height="23" as="geometry" />
        </mxCell>
        <mxCell id="FsbxxfnnBqgwTSdRjxEj-296" value="" style="shape=partialRectangle;connectable=0;fillColor=none;top=0;left=0;bottom=0;right=0;editable=1;overflow=hidden;whiteSpace=wrap;html=1;strokeWidth=0.5;swimlaneFillColor=default;labelBackgroundColor=none;strokeColor=#BAC8D3;fontColor=#EEEEEE;rounded=1;" parent="FsbxxfnnBqgwTSdRjxEj-295" vertex="1">
          <mxGeometry width="30" height="23" as="geometry">
            <mxRectangle width="30" height="23" as="alternateBounds" />
          </mxGeometry>
        </mxCell>
        <mxCell id="FsbxxfnnBqgwTSdRjxEj-297" value="profile" style="shape=partialRectangle;connectable=0;fillColor=none;top=0;left=0;bottom=0;right=0;align=left;spacingLeft=6;overflow=hidden;whiteSpace=wrap;html=1;strokeWidth=0.5;swimlaneFillColor=default;labelBackgroundColor=none;strokeColor=#BAC8D3;fontColor=#EEEEEE;rounded=1;" parent="FsbxxfnnBqgwTSdRjxEj-295" vertex="1">
          <mxGeometry x="30" width="149" height="23" as="geometry">
            <mxRectangle width="149" height="23" as="alternateBounds" />
          </mxGeometry>
        </mxCell>
        <mxCell id="FsbxxfnnBqgwTSdRjxEj-298" value="" style="shape=tableRow;horizontal=0;startSize=0;swimlaneHead=0;swimlaneBody=0;fillColor=none;collapsible=0;dropTarget=0;points=[[0,0.5],[1,0.5]];portConstraint=eastwest;top=0;left=0;right=0;bottom=0;strokeWidth=0.5;swimlaneFillColor=default;labelBackgroundColor=none;strokeColor=#BAC8D3;fontColor=#EEEEEE;rounded=1;" parent="U8u-r5qWbixyM0oDS7mE-14" vertex="1">
          <mxGeometry y="204" width="179" height="23" as="geometry" />
        </mxCell>
        <mxCell id="FsbxxfnnBqgwTSdRjxEj-299" value="" style="shape=partialRectangle;connectable=0;fillColor=none;top=0;left=0;bottom=0;right=0;editable=1;overflow=hidden;whiteSpace=wrap;html=1;strokeWidth=0.5;swimlaneFillColor=default;labelBackgroundColor=none;strokeColor=#BAC8D3;fontColor=#EEEEEE;rounded=1;" parent="FsbxxfnnBqgwTSdRjxEj-298" vertex="1">
          <mxGeometry width="30" height="23" as="geometry">
            <mxRectangle width="30" height="23" as="alternateBounds" />
          </mxGeometry>
        </mxCell>
        <mxCell id="FsbxxfnnBqgwTSdRjxEj-300" value="gender" style="shape=partialRectangle;connectable=0;fillColor=none;top=0;left=0;bottom=0;right=0;align=left;spacingLeft=6;overflow=hidden;whiteSpace=wrap;html=1;strokeWidth=0.5;swimlaneFillColor=default;labelBackgroundColor=none;strokeColor=#BAC8D3;fontColor=#EEEEEE;rounded=1;" parent="FsbxxfnnBqgwTSdRjxEj-298" vertex="1">
          <mxGeometry x="30" width="149" height="23" as="geometry">
            <mxRectangle width="149" height="23" as="alternateBounds" />
          </mxGeometry>
        </mxCell>
        <mxCell id="U8u-r5qWbixyM0oDS7mE-31" value="" style="shape=tableRow;horizontal=0;startSize=0;swimlaneHead=0;swimlaneBody=0;fillColor=none;collapsible=0;dropTarget=0;points=[[0,0.5],[1,0.5]];portConstraint=eastwest;top=0;left=0;right=0;bottom=0;strokeWidth=0.5;swimlaneFillColor=default;labelBackgroundColor=none;strokeColor=#BAC8D3;fontColor=#EEEEEE;rounded=1;" parent="U8u-r5qWbixyM0oDS7mE-14" vertex="1">
          <mxGeometry y="227" width="179" height="23" as="geometry" />
        </mxCell>
        <mxCell id="U8u-r5qWbixyM0oDS7mE-32" value="" style="shape=partialRectangle;connectable=0;fillColor=none;top=0;left=0;bottom=0;right=0;editable=1;overflow=hidden;whiteSpace=wrap;html=1;strokeWidth=0.5;swimlaneFillColor=default;labelBackgroundColor=none;strokeColor=#BAC8D3;fontColor=#EEEEEE;rounded=1;" parent="U8u-r5qWbixyM0oDS7mE-31" vertex="1">
          <mxGeometry width="30" height="23" as="geometry">
            <mxRectangle width="30" height="23" as="alternateBounds" />
          </mxGeometry>
        </mxCell>
        <mxCell id="U8u-r5qWbixyM0oDS7mE-33" value="address" style="shape=partialRectangle;connectable=0;fillColor=none;top=0;left=0;bottom=0;right=0;align=left;spacingLeft=6;overflow=hidden;whiteSpace=wrap;html=1;strokeWidth=0.5;swimlaneFillColor=default;labelBackgroundColor=none;strokeColor=#BAC8D3;fontColor=#EEEEEE;rounded=1;" parent="U8u-r5qWbixyM0oDS7mE-31" vertex="1">
          <mxGeometry x="30" width="149" height="23" as="geometry">
            <mxRectangle width="149" height="23" as="alternateBounds" />
          </mxGeometry>
        </mxCell>
        <mxCell id="FsbxxfnnBqgwTSdRjxEj-301" value="Cart" style="shape=table;startSize=30;container=1;collapsible=1;childLayout=tableLayout;fixedRows=1;rowLines=0;fontStyle=1;align=center;resizeLast=1;html=1;fontColor=#EEEEEE;fontSize=12;strokeWidth=0.5;labelBackgroundColor=none;fillColor=#09555B;strokeColor=#BAC8D3;rounded=1;" parent="1" vertex="1">
          <mxGeometry x="1067" y="552.25" width="180" height="110" as="geometry" />
        </mxCell>
        <mxCell id="FsbxxfnnBqgwTSdRjxEj-302" value="" style="shape=tableRow;horizontal=0;startSize=0;swimlaneHead=0;swimlaneBody=0;fillColor=none;collapsible=0;dropTarget=0;points=[[0,0.5],[1,0.5]];portConstraint=eastwest;top=0;left=0;right=0;bottom=1;fontColor=#EEEEEE;fontSize=12;strokeWidth=0.5;labelBackgroundColor=none;strokeColor=#BAC8D3;rounded=1;" parent="FsbxxfnnBqgwTSdRjxEj-301" vertex="1">
          <mxGeometry y="30" width="180" height="30" as="geometry" />
        </mxCell>
        <mxCell id="FsbxxfnnBqgwTSdRjxEj-303" value="PK" style="shape=partialRectangle;connectable=0;fillColor=none;top=0;left=0;bottom=0;right=0;fontStyle=1;overflow=hidden;whiteSpace=wrap;html=1;fontColor=#EEEEEE;fontSize=12;strokeWidth=0.5;labelBackgroundColor=none;strokeColor=#BAC8D3;rounded=1;" parent="FsbxxfnnBqgwTSdRjxEj-302" vertex="1">
          <mxGeometry width="31.13793103448279" height="30" as="geometry">
            <mxRectangle width="31.13793103448279" height="30" as="alternateBounds" />
          </mxGeometry>
        </mxCell>
        <mxCell id="FsbxxfnnBqgwTSdRjxEj-304" value="_id" style="shape=partialRectangle;connectable=0;fillColor=none;top=0;left=0;bottom=0;right=0;align=left;spacingLeft=6;fontStyle=5;overflow=hidden;whiteSpace=wrap;html=1;fontColor=#EEEEEE;fontSize=12;strokeWidth=0.5;labelBackgroundColor=none;strokeColor=#BAC8D3;rounded=1;" parent="FsbxxfnnBqgwTSdRjxEj-302" vertex="1">
          <mxGeometry x="31.13793103448279" width="148.8620689655172" height="30" as="geometry">
            <mxRectangle width="148.8620689655172" height="30" as="alternateBounds" />
          </mxGeometry>
        </mxCell>
        <mxCell id="FsbxxfnnBqgwTSdRjxEj-305" value="" style="shape=tableRow;horizontal=0;startSize=0;swimlaneHead=0;swimlaneBody=0;fillColor=none;collapsible=0;dropTarget=0;points=[[0,0.5],[1,0.5]];portConstraint=eastwest;top=0;left=0;right=0;bottom=0;fontColor=#EEEEEE;fontSize=12;strokeWidth=0.5;labelBackgroundColor=none;strokeColor=#BAC8D3;rounded=1;" parent="FsbxxfnnBqgwTSdRjxEj-301" vertex="1">
          <mxGeometry y="60" width="180" height="25" as="geometry" />
        </mxCell>
        <mxCell id="FsbxxfnnBqgwTSdRjxEj-306" value="" style="shape=partialRectangle;connectable=0;fillColor=none;top=0;left=0;bottom=0;right=0;editable=1;overflow=hidden;whiteSpace=wrap;html=1;fontColor=#EEEEEE;fontSize=12;strokeWidth=0.5;labelBackgroundColor=none;strokeColor=#BAC8D3;rounded=1;" parent="FsbxxfnnBqgwTSdRjxEj-305" vertex="1">
          <mxGeometry width="31.13793103448279" height="25" as="geometry">
            <mxRectangle width="31.13793103448279" height="25" as="alternateBounds" />
          </mxGeometry>
        </mxCell>
        <mxCell id="FsbxxfnnBqgwTSdRjxEj-307" value="user_Id" style="shape=partialRectangle;connectable=0;fillColor=none;top=0;left=0;bottom=0;right=0;align=left;spacingLeft=6;overflow=hidden;whiteSpace=wrap;html=1;fontColor=#EEEEEE;fontSize=12;strokeWidth=0.5;labelBackgroundColor=none;strokeColor=#BAC8D3;rounded=1;" parent="FsbxxfnnBqgwTSdRjxEj-305" vertex="1">
          <mxGeometry x="31.13793103448279" width="148.8620689655172" height="25" as="geometry">
            <mxRectangle width="148.8620689655172" height="25" as="alternateBounds" />
          </mxGeometry>
        </mxCell>
        <mxCell id="vMKdTskpqUzDpkchV1Ob-32" value="" style="shape=tableRow;horizontal=0;startSize=0;swimlaneHead=0;swimlaneBody=0;fillColor=none;collapsible=0;dropTarget=0;points=[[0,0.5],[1,0.5]];portConstraint=eastwest;top=0;left=0;right=0;bottom=0;fontColor=#EEEEEE;fontSize=12;strokeWidth=0.5;labelBackgroundColor=none;strokeColor=#BAC8D3;rounded=1;" parent="FsbxxfnnBqgwTSdRjxEj-301" vertex="1">
          <mxGeometry y="85" width="180" height="25" as="geometry" />
        </mxCell>
        <mxCell id="vMKdTskpqUzDpkchV1Ob-33" value="" style="shape=partialRectangle;connectable=0;fillColor=none;top=0;left=0;bottom=0;right=0;editable=1;overflow=hidden;whiteSpace=wrap;html=1;fontColor=#EEEEEE;fontSize=12;strokeWidth=0.5;labelBackgroundColor=none;strokeColor=#BAC8D3;rounded=1;" parent="vMKdTskpqUzDpkchV1Ob-32" vertex="1">
          <mxGeometry width="31.13793103448279" height="25" as="geometry">
            <mxRectangle width="31.13793103448279" height="25" as="alternateBounds" />
          </mxGeometry>
        </mxCell>
        <mxCell id="vMKdTskpqUzDpkchV1Ob-34" value="totalPrice" style="shape=partialRectangle;connectable=0;fillColor=none;top=0;left=0;bottom=0;right=0;align=left;spacingLeft=6;overflow=hidden;whiteSpace=wrap;html=1;fontColor=#EEEEEE;fontSize=12;strokeWidth=0.5;labelBackgroundColor=none;strokeColor=#BAC8D3;rounded=1;" parent="vMKdTskpqUzDpkchV1Ob-32" vertex="1">
          <mxGeometry x="31.13793103448279" width="148.8620689655172" height="25" as="geometry">
            <mxRectangle width="148.8620689655172" height="25" as="alternateBounds" />
          </mxGeometry>
        </mxCell>
        <mxCell id="FsbxxfnnBqgwTSdRjxEj-323" value="User Addresses" style="shape=table;startSize=35;container=1;collapsible=1;childLayout=tableLayout;fixedRows=1;rowLines=0;fontStyle=1;align=center;resizeLast=1;html=1;fontColor=#EEEEEE;fontSize=12;strokeWidth=0.5;labelBackgroundColor=none;fillColor=#09555B;strokeColor=#BAC8D3;rounded=1;" parent="1" vertex="1">
          <mxGeometry x="762" y="249" width="180" height="244" as="geometry" />
        </mxCell>
        <mxCell id="FsbxxfnnBqgwTSdRjxEj-324" value="" style="shape=tableRow;horizontal=0;startSize=0;swimlaneHead=0;swimlaneBody=0;fillColor=none;collapsible=0;dropTarget=0;points=[[0,0.5],[1,0.5]];portConstraint=eastwest;top=0;left=0;right=0;bottom=1;fontColor=#EEEEEE;fontSize=12;strokeWidth=0.5;labelBackgroundColor=none;strokeColor=#BAC8D3;rounded=1;" parent="FsbxxfnnBqgwTSdRjxEj-323" vertex="1">
          <mxGeometry y="35" width="180" height="30" as="geometry" />
        </mxCell>
        <mxCell id="FsbxxfnnBqgwTSdRjxEj-325" value="PK" style="shape=partialRectangle;connectable=0;fillColor=none;top=0;left=0;bottom=0;right=0;fontStyle=1;overflow=hidden;whiteSpace=wrap;html=1;fontColor=#EEEEEE;fontSize=12;strokeWidth=0.5;labelBackgroundColor=none;strokeColor=#BAC8D3;rounded=1;" parent="FsbxxfnnBqgwTSdRjxEj-324" vertex="1">
          <mxGeometry width="31.13793103448279" height="30" as="geometry">
            <mxRectangle width="31.13793103448279" height="30" as="alternateBounds" />
          </mxGeometry>
        </mxCell>
        <mxCell id="FsbxxfnnBqgwTSdRjxEj-326" value="_id" style="shape=partialRectangle;connectable=0;fillColor=none;top=0;left=0;bottom=0;right=0;align=left;spacingLeft=6;fontStyle=5;overflow=hidden;whiteSpace=wrap;html=1;fontColor=#EEEEEE;fontSize=12;strokeWidth=0.5;labelBackgroundColor=none;strokeColor=#BAC8D3;rounded=1;" parent="FsbxxfnnBqgwTSdRjxEj-324" vertex="1">
          <mxGeometry x="31.13793103448279" width="148.8620689655172" height="30" as="geometry">
            <mxRectangle width="148.8620689655172" height="30" as="alternateBounds" />
          </mxGeometry>
        </mxCell>
        <mxCell id="FsbxxfnnBqgwTSdRjxEj-327" value="" style="shape=tableRow;horizontal=0;startSize=0;swimlaneHead=0;swimlaneBody=0;fillColor=none;collapsible=0;dropTarget=0;points=[[0,0.5],[1,0.5]];portConstraint=eastwest;top=0;left=0;right=0;bottom=0;fontColor=#EEEEEE;fontSize=12;strokeWidth=0.5;labelBackgroundColor=none;strokeColor=#BAC8D3;rounded=1;" parent="FsbxxfnnBqgwTSdRjxEj-323" vertex="1">
          <mxGeometry y="65" width="180" height="25" as="geometry" />
        </mxCell>
        <mxCell id="FsbxxfnnBqgwTSdRjxEj-328" value="" style="shape=partialRectangle;connectable=0;fillColor=none;top=0;left=0;bottom=0;right=0;editable=1;overflow=hidden;whiteSpace=wrap;html=1;fontColor=#EEEEEE;fontSize=12;strokeWidth=0.5;labelBackgroundColor=none;strokeColor=#BAC8D3;rounded=1;" parent="FsbxxfnnBqgwTSdRjxEj-327" vertex="1">
          <mxGeometry width="31.13793103448279" height="25" as="geometry">
            <mxRectangle width="31.13793103448279" height="25" as="alternateBounds" />
          </mxGeometry>
        </mxCell>
        <mxCell id="FsbxxfnnBqgwTSdRjxEj-329" value="user_Id" style="shape=partialRectangle;connectable=0;fillColor=none;top=0;left=0;bottom=0;right=0;align=left;spacingLeft=6;overflow=hidden;whiteSpace=wrap;html=1;fontColor=#EEEEEE;fontSize=12;strokeWidth=0.5;labelBackgroundColor=none;strokeColor=#BAC8D3;rounded=1;" parent="FsbxxfnnBqgwTSdRjxEj-327" vertex="1">
          <mxGeometry x="31.13793103448279" width="148.8620689655172" height="25" as="geometry">
            <mxRectangle width="148.8620689655172" height="25" as="alternateBounds" />
          </mxGeometry>
        </mxCell>
        <mxCell id="FsbxxfnnBqgwTSdRjxEj-330" value="" style="shape=tableRow;horizontal=0;startSize=0;swimlaneHead=0;swimlaneBody=0;fillColor=none;collapsible=0;dropTarget=0;points=[[0,0.5],[1,0.5]];portConstraint=eastwest;top=0;left=0;right=0;bottom=0;fontColor=#EEEEEE;fontSize=12;strokeWidth=0.5;labelBackgroundColor=none;strokeColor=#BAC8D3;rounded=1;" parent="FsbxxfnnBqgwTSdRjxEj-323" vertex="1">
          <mxGeometry y="90" width="180" height="22" as="geometry" />
        </mxCell>
        <mxCell id="FsbxxfnnBqgwTSdRjxEj-331" value="" style="shape=partialRectangle;connectable=0;fillColor=none;top=0;left=0;bottom=0;right=0;editable=1;overflow=hidden;whiteSpace=wrap;html=1;fontColor=#EEEEEE;fontSize=12;strokeWidth=0.5;labelBackgroundColor=none;strokeColor=#BAC8D3;rounded=1;" parent="FsbxxfnnBqgwTSdRjxEj-330" vertex="1">
          <mxGeometry width="31.13793103448279" height="22" as="geometry">
            <mxRectangle width="31.13793103448279" height="22" as="alternateBounds" />
          </mxGeometry>
        </mxCell>
        <mxCell id="FsbxxfnnBqgwTSdRjxEj-332" value="line1" style="shape=partialRectangle;connectable=0;fillColor=none;top=0;left=0;bottom=0;right=0;align=left;spacingLeft=6;overflow=hidden;whiteSpace=wrap;html=1;fontColor=#EEEEEE;fontSize=12;strokeWidth=0.5;labelBackgroundColor=none;strokeColor=#BAC8D3;rounded=1;" parent="FsbxxfnnBqgwTSdRjxEj-330" vertex="1">
          <mxGeometry x="31.13793103448279" width="148.8620689655172" height="22" as="geometry">
            <mxRectangle width="148.8620689655172" height="22" as="alternateBounds" />
          </mxGeometry>
        </mxCell>
        <mxCell id="W7pQTJgZ-b6TpAFAyF8u-23" value="" style="shape=tableRow;horizontal=0;startSize=0;swimlaneHead=0;swimlaneBody=0;fillColor=none;collapsible=0;dropTarget=0;points=[[0,0.5],[1,0.5]];portConstraint=eastwest;top=0;left=0;right=0;bottom=0;fontColor=#EEEEEE;fontSize=12;strokeWidth=0.5;labelBackgroundColor=none;strokeColor=#BAC8D3;rounded=1;" parent="FsbxxfnnBqgwTSdRjxEj-323" vertex="1">
          <mxGeometry y="112" width="180" height="22" as="geometry" />
        </mxCell>
        <mxCell id="W7pQTJgZ-b6TpAFAyF8u-24" value="" style="shape=partialRectangle;connectable=0;fillColor=none;top=0;left=0;bottom=0;right=0;editable=1;overflow=hidden;whiteSpace=wrap;html=1;fontColor=#EEEEEE;fontSize=12;strokeWidth=0.5;labelBackgroundColor=none;strokeColor=#BAC8D3;rounded=1;" parent="W7pQTJgZ-b6TpAFAyF8u-23" vertex="1">
          <mxGeometry width="31.13793103448279" height="22" as="geometry">
            <mxRectangle width="31.13793103448279" height="22" as="alternateBounds" />
          </mxGeometry>
        </mxCell>
        <mxCell id="W7pQTJgZ-b6TpAFAyF8u-25" value="line2&lt;span style=&quot;white-space: pre;&quot;&gt;&#x9;&lt;/span&gt;" style="shape=partialRectangle;connectable=0;fillColor=none;top=0;left=0;bottom=0;right=0;align=left;spacingLeft=6;overflow=hidden;whiteSpace=wrap;html=1;fontColor=#EEEEEE;fontSize=12;strokeWidth=0.5;labelBackgroundColor=none;strokeColor=#BAC8D3;rounded=1;" parent="W7pQTJgZ-b6TpAFAyF8u-23" vertex="1">
          <mxGeometry x="31.13793103448279" width="148.8620689655172" height="22" as="geometry">
            <mxRectangle width="148.8620689655172" height="22" as="alternateBounds" />
          </mxGeometry>
        </mxCell>
        <mxCell id="W7pQTJgZ-b6TpAFAyF8u-29" value="" style="shape=tableRow;horizontal=0;startSize=0;swimlaneHead=0;swimlaneBody=0;fillColor=none;collapsible=0;dropTarget=0;points=[[0,0.5],[1,0.5]];portConstraint=eastwest;top=0;left=0;right=0;bottom=0;fontColor=#EEEEEE;fontSize=12;strokeWidth=0.5;labelBackgroundColor=none;strokeColor=#BAC8D3;rounded=1;" parent="FsbxxfnnBqgwTSdRjxEj-323" vertex="1">
          <mxGeometry y="134" width="180" height="22" as="geometry" />
        </mxCell>
        <mxCell id="W7pQTJgZ-b6TpAFAyF8u-30" value="" style="shape=partialRectangle;connectable=0;fillColor=none;top=0;left=0;bottom=0;right=0;editable=1;overflow=hidden;whiteSpace=wrap;html=1;fontColor=#EEEEEE;fontSize=12;strokeWidth=0.5;labelBackgroundColor=none;strokeColor=#BAC8D3;rounded=1;" parent="W7pQTJgZ-b6TpAFAyF8u-29" vertex="1">
          <mxGeometry width="31.13793103448279" height="22" as="geometry">
            <mxRectangle width="31.13793103448279" height="22" as="alternateBounds" />
          </mxGeometry>
        </mxCell>
        <mxCell id="W7pQTJgZ-b6TpAFAyF8u-31" value="landmark" style="shape=partialRectangle;connectable=0;fillColor=none;top=0;left=0;bottom=0;right=0;align=left;spacingLeft=6;overflow=hidden;whiteSpace=wrap;html=1;fontColor=#EEEEEE;fontSize=12;strokeWidth=0.5;labelBackgroundColor=none;strokeColor=#BAC8D3;rounded=1;" parent="W7pQTJgZ-b6TpAFAyF8u-29" vertex="1">
          <mxGeometry x="31.13793103448279" width="148.8620689655172" height="22" as="geometry">
            <mxRectangle width="148.8620689655172" height="22" as="alternateBounds" />
          </mxGeometry>
        </mxCell>
        <mxCell id="W7pQTJgZ-b6TpAFAyF8u-32" value="" style="shape=tableRow;horizontal=0;startSize=0;swimlaneHead=0;swimlaneBody=0;fillColor=none;collapsible=0;dropTarget=0;points=[[0,0.5],[1,0.5]];portConstraint=eastwest;top=0;left=0;right=0;bottom=0;fontColor=#EEEEEE;fontSize=12;strokeWidth=0.5;labelBackgroundColor=none;strokeColor=#BAC8D3;rounded=1;" parent="FsbxxfnnBqgwTSdRjxEj-323" vertex="1">
          <mxGeometry y="156" width="180" height="22" as="geometry" />
        </mxCell>
        <mxCell id="W7pQTJgZ-b6TpAFAyF8u-33" value="" style="shape=partialRectangle;connectable=0;fillColor=none;top=0;left=0;bottom=0;right=0;editable=1;overflow=hidden;whiteSpace=wrap;html=1;fontColor=#EEEEEE;fontSize=12;strokeWidth=0.5;labelBackgroundColor=none;strokeColor=#BAC8D3;rounded=1;" parent="W7pQTJgZ-b6TpAFAyF8u-32" vertex="1">
          <mxGeometry width="31.13793103448279" height="22" as="geometry">
            <mxRectangle width="31.13793103448279" height="22" as="alternateBounds" />
          </mxGeometry>
        </mxCell>
        <mxCell id="W7pQTJgZ-b6TpAFAyF8u-34" value="city" style="shape=partialRectangle;connectable=0;fillColor=none;top=0;left=0;bottom=0;right=0;align=left;spacingLeft=6;overflow=hidden;whiteSpace=wrap;html=1;fontColor=#EEEEEE;fontSize=12;strokeWidth=0.5;labelBackgroundColor=none;strokeColor=#BAC8D3;rounded=1;" parent="W7pQTJgZ-b6TpAFAyF8u-32" vertex="1">
          <mxGeometry x="31.13793103448279" width="148.8620689655172" height="22" as="geometry">
            <mxRectangle width="148.8620689655172" height="22" as="alternateBounds" />
          </mxGeometry>
        </mxCell>
        <mxCell id="W7pQTJgZ-b6TpAFAyF8u-35" value="" style="shape=tableRow;horizontal=0;startSize=0;swimlaneHead=0;swimlaneBody=0;fillColor=none;collapsible=0;dropTarget=0;points=[[0,0.5],[1,0.5]];portConstraint=eastwest;top=0;left=0;right=0;bottom=0;fontColor=#EEEEEE;fontSize=12;strokeWidth=0.5;labelBackgroundColor=none;strokeColor=#BAC8D3;rounded=1;" parent="FsbxxfnnBqgwTSdRjxEj-323" vertex="1">
          <mxGeometry y="178" width="180" height="22" as="geometry" />
        </mxCell>
        <mxCell id="W7pQTJgZ-b6TpAFAyF8u-36" value="" style="shape=partialRectangle;connectable=0;fillColor=none;top=0;left=0;bottom=0;right=0;editable=1;overflow=hidden;whiteSpace=wrap;html=1;fontColor=#EEEEEE;fontSize=12;strokeWidth=0.5;labelBackgroundColor=none;strokeColor=#BAC8D3;rounded=1;" parent="W7pQTJgZ-b6TpAFAyF8u-35" vertex="1">
          <mxGeometry width="31.13793103448279" height="22" as="geometry">
            <mxRectangle width="31.13793103448279" height="22" as="alternateBounds" />
          </mxGeometry>
        </mxCell>
        <mxCell id="W7pQTJgZ-b6TpAFAyF8u-37" value="state" style="shape=partialRectangle;connectable=0;fillColor=none;top=0;left=0;bottom=0;right=0;align=left;spacingLeft=6;overflow=hidden;whiteSpace=wrap;html=1;fontColor=#EEEEEE;fontSize=12;strokeWidth=0.5;labelBackgroundColor=none;strokeColor=#BAC8D3;rounded=1;" parent="W7pQTJgZ-b6TpAFAyF8u-35" vertex="1">
          <mxGeometry x="31.13793103448279" width="148.8620689655172" height="22" as="geometry">
            <mxRectangle width="148.8620689655172" height="22" as="alternateBounds" />
          </mxGeometry>
        </mxCell>
        <mxCell id="W7pQTJgZ-b6TpAFAyF8u-41" value="" style="shape=tableRow;horizontal=0;startSize=0;swimlaneHead=0;swimlaneBody=0;fillColor=none;collapsible=0;dropTarget=0;points=[[0,0.5],[1,0.5]];portConstraint=eastwest;top=0;left=0;right=0;bottom=0;fontColor=#EEEEEE;fontSize=12;strokeWidth=0.5;labelBackgroundColor=none;strokeColor=#BAC8D3;rounded=1;" parent="FsbxxfnnBqgwTSdRjxEj-323" vertex="1">
          <mxGeometry y="200" width="180" height="22" as="geometry" />
        </mxCell>
        <mxCell id="W7pQTJgZ-b6TpAFAyF8u-42" value="" style="shape=partialRectangle;connectable=0;fillColor=none;top=0;left=0;bottom=0;right=0;editable=1;overflow=hidden;whiteSpace=wrap;html=1;fontColor=#EEEEEE;fontSize=12;strokeWidth=0.5;labelBackgroundColor=none;strokeColor=#BAC8D3;rounded=1;" parent="W7pQTJgZ-b6TpAFAyF8u-41" vertex="1">
          <mxGeometry width="31.13793103448279" height="22" as="geometry">
            <mxRectangle width="31.13793103448279" height="22" as="alternateBounds" />
          </mxGeometry>
        </mxCell>
        <mxCell id="W7pQTJgZ-b6TpAFAyF8u-43" value="country_id" style="shape=partialRectangle;connectable=0;fillColor=none;top=0;left=0;bottom=0;right=0;align=left;spacingLeft=6;overflow=hidden;whiteSpace=wrap;html=1;fontColor=#EEEEEE;fontSize=12;strokeWidth=0.5;labelBackgroundColor=none;strokeColor=#BAC8D3;rounded=1;" parent="W7pQTJgZ-b6TpAFAyF8u-41" vertex="1">
          <mxGeometry x="31.13793103448279" width="148.8620689655172" height="22" as="geometry">
            <mxRectangle width="148.8620689655172" height="22" as="alternateBounds" />
          </mxGeometry>
        </mxCell>
        <mxCell id="W7pQTJgZ-b6TpAFAyF8u-38" value="" style="shape=tableRow;horizontal=0;startSize=0;swimlaneHead=0;swimlaneBody=0;fillColor=none;collapsible=0;dropTarget=0;points=[[0,0.5],[1,0.5]];portConstraint=eastwest;top=0;left=0;right=0;bottom=0;fontColor=#EEEEEE;fontSize=12;strokeWidth=0.5;labelBackgroundColor=none;strokeColor=#BAC8D3;rounded=1;" parent="FsbxxfnnBqgwTSdRjxEj-323" vertex="1">
          <mxGeometry y="222" width="180" height="22" as="geometry" />
        </mxCell>
        <mxCell id="W7pQTJgZ-b6TpAFAyF8u-39" value="" style="shape=partialRectangle;connectable=0;fillColor=none;top=0;left=0;bottom=0;right=0;editable=1;overflow=hidden;whiteSpace=wrap;html=1;fontColor=#EEEEEE;fontSize=12;strokeWidth=0.5;labelBackgroundColor=none;strokeColor=#BAC8D3;rounded=1;" parent="W7pQTJgZ-b6TpAFAyF8u-38" vertex="1">
          <mxGeometry width="31.13793103448279" height="22" as="geometry">
            <mxRectangle width="31.13793103448279" height="22" as="alternateBounds" />
          </mxGeometry>
        </mxCell>
        <mxCell id="W7pQTJgZ-b6TpAFAyF8u-40" value="zipcode" style="shape=partialRectangle;connectable=0;fillColor=none;top=0;left=0;bottom=0;right=0;align=left;spacingLeft=6;overflow=hidden;whiteSpace=wrap;html=1;fontColor=#EEEEEE;fontSize=12;strokeWidth=0.5;labelBackgroundColor=none;strokeColor=#BAC8D3;rounded=1;" parent="W7pQTJgZ-b6TpAFAyF8u-38" vertex="1">
          <mxGeometry x="31.13793103448279" width="148.8620689655172" height="22" as="geometry">
            <mxRectangle width="148.8620689655172" height="22" as="alternateBounds" />
          </mxGeometry>
        </mxCell>
        <mxCell id="FsbxxfnnBqgwTSdRjxEj-362" value="Role" style="shape=table;startSize=30;container=1;collapsible=1;childLayout=tableLayout;fixedRows=1;rowLines=0;fontStyle=1;align=center;resizeLast=1;html=1;fontColor=#EEEEEE;fontSize=12;strokeWidth=0.5;labelBackgroundColor=none;fillColor=#09555B;strokeColor=#BAC8D3;rounded=1;" parent="1" vertex="1">
          <mxGeometry x="510" y="569" width="180" height="188.21621621621622" as="geometry" />
        </mxCell>
        <mxCell id="FsbxxfnnBqgwTSdRjxEj-363" value="" style="shape=tableRow;horizontal=0;startSize=0;swimlaneHead=0;swimlaneBody=0;fillColor=none;collapsible=0;dropTarget=0;points=[[0,0.5],[1,0.5]];portConstraint=eastwest;top=0;left=0;right=0;bottom=1;fontColor=#EEEEEE;fontSize=12;strokeWidth=0.5;labelBackgroundColor=none;strokeColor=#BAC8D3;rounded=1;" parent="FsbxxfnnBqgwTSdRjxEj-362" vertex="1">
          <mxGeometry y="30" width="180" height="30" as="geometry" />
        </mxCell>
        <mxCell id="FsbxxfnnBqgwTSdRjxEj-364" value="PK" style="shape=partialRectangle;connectable=0;fillColor=none;top=0;left=0;bottom=0;right=0;fontStyle=1;overflow=hidden;whiteSpace=wrap;html=1;fontColor=#EEEEEE;fontSize=12;strokeWidth=0.5;labelBackgroundColor=none;strokeColor=#BAC8D3;rounded=1;" parent="FsbxxfnnBqgwTSdRjxEj-363" vertex="1">
          <mxGeometry width="31.13793103448279" height="30" as="geometry">
            <mxRectangle width="31.13793103448279" height="30" as="alternateBounds" />
          </mxGeometry>
        </mxCell>
        <mxCell id="FsbxxfnnBqgwTSdRjxEj-365" value="_id" style="shape=partialRectangle;connectable=0;fillColor=none;top=0;left=0;bottom=0;right=0;align=left;spacingLeft=6;fontStyle=5;overflow=hidden;whiteSpace=wrap;html=1;fontColor=#EEEEEE;fontSize=12;strokeWidth=0.5;labelBackgroundColor=none;strokeColor=#BAC8D3;rounded=1;" parent="FsbxxfnnBqgwTSdRjxEj-363" vertex="1">
          <mxGeometry x="31.13793103448279" width="148.8620689655172" height="30" as="geometry">
            <mxRectangle width="148.8620689655172" height="30" as="alternateBounds" />
          </mxGeometry>
        </mxCell>
        <mxCell id="FsbxxfnnBqgwTSdRjxEj-369" value="" style="shape=tableRow;horizontal=0;startSize=0;swimlaneHead=0;swimlaneBody=0;fillColor=none;collapsible=0;dropTarget=0;points=[[0,0.5],[1,0.5]];portConstraint=eastwest;top=0;left=0;right=0;bottom=0;fontColor=#EEEEEE;fontSize=12;strokeWidth=0.5;labelBackgroundColor=none;strokeColor=#BAC8D3;rounded=1;" parent="FsbxxfnnBqgwTSdRjxEj-362" vertex="1">
          <mxGeometry y="60" width="180" height="22" as="geometry" />
        </mxCell>
        <mxCell id="FsbxxfnnBqgwTSdRjxEj-370" value="FK&amp;nbsp;" style="shape=partialRectangle;connectable=0;fillColor=none;top=0;left=0;bottom=0;right=0;editable=1;overflow=hidden;whiteSpace=wrap;html=1;fontColor=#EEEEEE;fontSize=12;strokeWidth=0.5;labelBackgroundColor=none;strokeColor=#BAC8D3;rounded=1;" parent="FsbxxfnnBqgwTSdRjxEj-369" vertex="1">
          <mxGeometry width="31.13793103448279" height="22" as="geometry">
            <mxRectangle width="31.13793103448279" height="22" as="alternateBounds" />
          </mxGeometry>
        </mxCell>
        <mxCell id="FsbxxfnnBqgwTSdRjxEj-371" value="premissions" style="shape=partialRectangle;connectable=0;fillColor=none;top=0;left=0;bottom=0;right=0;align=left;spacingLeft=6;overflow=hidden;whiteSpace=wrap;html=1;fontColor=#EEEEEE;fontSize=12;strokeWidth=0.5;labelBackgroundColor=none;strokeColor=#BAC8D3;rounded=1;" parent="FsbxxfnnBqgwTSdRjxEj-369" vertex="1">
          <mxGeometry x="31.13793103448279" width="148.8620689655172" height="22" as="geometry">
            <mxRectangle width="148.8620689655172" height="22" as="alternateBounds" />
          </mxGeometry>
        </mxCell>
        <mxCell id="FsbxxfnnBqgwTSdRjxEj-366" value="" style="shape=tableRow;horizontal=0;startSize=0;swimlaneHead=0;swimlaneBody=0;fillColor=none;collapsible=0;dropTarget=0;points=[[0,0.5],[1,0.5]];portConstraint=eastwest;top=0;left=0;right=0;bottom=0;fontColor=#EEEEEE;fontSize=12;strokeWidth=0.5;labelBackgroundColor=none;strokeColor=#BAC8D3;rounded=1;" parent="FsbxxfnnBqgwTSdRjxEj-362" vertex="1">
          <mxGeometry y="82" width="180" height="26" as="geometry" />
        </mxCell>
        <mxCell id="FsbxxfnnBqgwTSdRjxEj-367" value="" style="shape=partialRectangle;connectable=0;fillColor=none;top=0;left=0;bottom=0;right=0;editable=1;overflow=hidden;whiteSpace=wrap;html=1;fontColor=#EEEEEE;fontSize=12;strokeWidth=0.5;labelBackgroundColor=none;strokeColor=#BAC8D3;rounded=1;" parent="FsbxxfnnBqgwTSdRjxEj-366" vertex="1">
          <mxGeometry width="31.13793103448279" height="26" as="geometry">
            <mxRectangle width="31.13793103448279" height="26" as="alternateBounds" />
          </mxGeometry>
        </mxCell>
        <mxCell id="FsbxxfnnBqgwTSdRjxEj-368" value="title" style="shape=partialRectangle;connectable=0;fillColor=none;top=0;left=0;bottom=0;right=0;align=left;spacingLeft=6;overflow=hidden;whiteSpace=wrap;html=1;fontColor=#EEEEEE;fontSize=12;strokeWidth=0.5;labelBackgroundColor=none;strokeColor=#BAC8D3;rounded=1;" parent="FsbxxfnnBqgwTSdRjxEj-366" vertex="1">
          <mxGeometry x="31.13793103448279" width="148.8620689655172" height="26" as="geometry">
            <mxRectangle width="148.8620689655172" height="26" as="alternateBounds" />
          </mxGeometry>
        </mxCell>
        <mxCell id="FsbxxfnnBqgwTSdRjxEj-372" value="" style="shape=tableRow;horizontal=0;startSize=0;swimlaneHead=0;swimlaneBody=0;fillColor=none;collapsible=0;dropTarget=0;points=[[0,0.5],[1,0.5]];portConstraint=eastwest;top=0;left=0;right=0;bottom=0;fontColor=#EEEEEE;fontSize=12;strokeWidth=0.5;labelBackgroundColor=none;strokeColor=#BAC8D3;rounded=1;" parent="FsbxxfnnBqgwTSdRjxEj-362" vertex="1">
          <mxGeometry y="108" width="180" height="20" as="geometry" />
        </mxCell>
        <mxCell id="FsbxxfnnBqgwTSdRjxEj-373" value="" style="shape=partialRectangle;connectable=0;fillColor=none;top=0;left=0;bottom=0;right=0;editable=1;overflow=hidden;whiteSpace=wrap;html=1;fontColor=#EEEEEE;fontSize=12;strokeWidth=0.5;labelBackgroundColor=none;strokeColor=#BAC8D3;rounded=1;" parent="FsbxxfnnBqgwTSdRjxEj-372" vertex="1">
          <mxGeometry width="31.13793103448279" height="20" as="geometry">
            <mxRectangle width="31.13793103448279" height="20" as="alternateBounds" />
          </mxGeometry>
        </mxCell>
        <mxCell id="FsbxxfnnBqgwTSdRjxEj-374" value="isDeleted" style="shape=partialRectangle;connectable=0;fillColor=none;top=0;left=0;bottom=0;right=0;align=left;spacingLeft=6;overflow=hidden;whiteSpace=wrap;html=1;fontColor=#EEEEEE;fontSize=12;strokeWidth=0.5;labelBackgroundColor=none;strokeColor=#BAC8D3;rounded=1;" parent="FsbxxfnnBqgwTSdRjxEj-372" vertex="1">
          <mxGeometry x="31.13793103448279" width="148.8620689655172" height="20" as="geometry">
            <mxRectangle width="148.8620689655172" height="20" as="alternateBounds" />
          </mxGeometry>
        </mxCell>
        <mxCell id="FsbxxfnnBqgwTSdRjxEj-392" value="" style="shape=tableRow;horizontal=0;startSize=0;swimlaneHead=0;swimlaneBody=0;fillColor=none;collapsible=0;dropTarget=0;points=[[0,0.5],[1,0.5]];portConstraint=eastwest;top=0;left=0;right=0;bottom=0;fontColor=#EEEEEE;fontSize=12;strokeWidth=0.5;labelBackgroundColor=none;strokeColor=#BAC8D3;rounded=1;" parent="FsbxxfnnBqgwTSdRjxEj-362" vertex="1">
          <mxGeometry y="128" width="180" height="20" as="geometry" />
        </mxCell>
        <mxCell id="FsbxxfnnBqgwTSdRjxEj-393" value="" style="shape=partialRectangle;connectable=0;fillColor=none;top=0;left=0;bottom=0;right=0;editable=1;overflow=hidden;whiteSpace=wrap;html=1;fontColor=#EEEEEE;fontSize=12;strokeWidth=0.5;labelBackgroundColor=none;strokeColor=#BAC8D3;rounded=1;" parent="FsbxxfnnBqgwTSdRjxEj-392" vertex="1">
          <mxGeometry width="31.13793103448279" height="20" as="geometry">
            <mxRectangle width="31.13793103448279" height="20" as="alternateBounds" />
          </mxGeometry>
        </mxCell>
        <mxCell id="FsbxxfnnBqgwTSdRjxEj-394" value="status" style="shape=partialRectangle;connectable=0;fillColor=none;top=0;left=0;bottom=0;right=0;align=left;spacingLeft=6;overflow=hidden;whiteSpace=wrap;html=1;fontColor=#EEEEEE;fontSize=12;strokeWidth=0.5;labelBackgroundColor=none;strokeColor=#BAC8D3;rounded=1;" parent="FsbxxfnnBqgwTSdRjxEj-392" vertex="1">
          <mxGeometry x="31.13793103448279" width="148.8620689655172" height="20" as="geometry">
            <mxRectangle width="148.8620689655172" height="20" as="alternateBounds" />
          </mxGeometry>
        </mxCell>
        <mxCell id="FsbxxfnnBqgwTSdRjxEj-395" value="" style="shape=tableRow;horizontal=0;startSize=0;swimlaneHead=0;swimlaneBody=0;fillColor=none;collapsible=0;dropTarget=0;points=[[0,0.5],[1,0.5]];portConstraint=eastwest;top=0;left=0;right=0;bottom=0;fontColor=#EEEEEE;fontSize=12;strokeWidth=0.5;labelBackgroundColor=none;strokeColor=#BAC8D3;rounded=1;" parent="FsbxxfnnBqgwTSdRjxEj-362" vertex="1">
          <mxGeometry y="148" width="180" height="20" as="geometry" />
        </mxCell>
        <mxCell id="FsbxxfnnBqgwTSdRjxEj-396" value="" style="shape=partialRectangle;connectable=0;fillColor=none;top=0;left=0;bottom=0;right=0;editable=1;overflow=hidden;whiteSpace=wrap;html=1;fontColor=#EEEEEE;fontSize=12;strokeWidth=0.5;labelBackgroundColor=none;strokeColor=#BAC8D3;rounded=1;" parent="FsbxxfnnBqgwTSdRjxEj-395" vertex="1">
          <mxGeometry width="31.13793103448279" height="20" as="geometry">
            <mxRectangle width="31.13793103448279" height="20" as="alternateBounds" />
          </mxGeometry>
        </mxCell>
        <mxCell id="FsbxxfnnBqgwTSdRjxEj-397" value="createdBy" style="shape=partialRectangle;connectable=0;fillColor=none;top=0;left=0;bottom=0;right=0;align=left;spacingLeft=6;overflow=hidden;whiteSpace=wrap;html=1;fontColor=#EEEEEE;fontSize=12;strokeWidth=0.5;labelBackgroundColor=none;strokeColor=#BAC8D3;rounded=1;" parent="FsbxxfnnBqgwTSdRjxEj-395" vertex="1">
          <mxGeometry x="31.13793103448279" width="148.8620689655172" height="20" as="geometry">
            <mxRectangle width="148.8620689655172" height="20" as="alternateBounds" />
          </mxGeometry>
        </mxCell>
        <mxCell id="FsbxxfnnBqgwTSdRjxEj-398" value="" style="shape=tableRow;horizontal=0;startSize=0;swimlaneHead=0;swimlaneBody=0;fillColor=none;collapsible=0;dropTarget=0;points=[[0,0.5],[1,0.5]];portConstraint=eastwest;top=0;left=0;right=0;bottom=0;fontColor=#EEEEEE;fontSize=12;strokeWidth=0.5;labelBackgroundColor=none;strokeColor=#BAC8D3;rounded=1;" parent="FsbxxfnnBqgwTSdRjxEj-362" vertex="1">
          <mxGeometry y="168" width="180" height="20" as="geometry" />
        </mxCell>
        <mxCell id="FsbxxfnnBqgwTSdRjxEj-399" value="" style="shape=partialRectangle;connectable=0;fillColor=none;top=0;left=0;bottom=0;right=0;editable=1;overflow=hidden;whiteSpace=wrap;html=1;fontColor=#EEEEEE;fontSize=12;strokeWidth=0.5;labelBackgroundColor=none;strokeColor=#BAC8D3;rounded=1;" parent="FsbxxfnnBqgwTSdRjxEj-398" vertex="1">
          <mxGeometry width="31.13793103448279" height="20" as="geometry">
            <mxRectangle width="31.13793103448279" height="20" as="alternateBounds" />
          </mxGeometry>
        </mxCell>
        <mxCell id="FsbxxfnnBqgwTSdRjxEj-400" value="updateBy" style="shape=partialRectangle;connectable=0;fillColor=none;top=0;left=0;bottom=0;right=0;align=left;spacingLeft=6;overflow=hidden;whiteSpace=wrap;html=1;fontColor=#EEEEEE;fontSize=12;strokeWidth=0.5;labelBackgroundColor=none;strokeColor=#BAC8D3;rounded=1;" parent="FsbxxfnnBqgwTSdRjxEj-398" vertex="1">
          <mxGeometry x="31.13793103448279" width="148.8620689655172" height="20" as="geometry">
            <mxRectangle width="148.8620689655172" height="20" as="alternateBounds" />
          </mxGeometry>
        </mxCell>
        <mxCell id="FsbxxfnnBqgwTSdRjxEj-375" value="Permissions" style="shape=table;startSize=30;container=1;collapsible=1;childLayout=tableLayout;fixedRows=1;rowLines=0;fontStyle=1;align=center;resizeLast=1;html=1;fontColor=#EEEEEE;fontSize=12;strokeWidth=0.5;labelBackgroundColor=none;fillColor=#09555B;strokeColor=#BAC8D3;rounded=1;" parent="1" vertex="1">
          <mxGeometry x="245" y="652" width="180" height="127" as="geometry" />
        </mxCell>
        <mxCell id="FsbxxfnnBqgwTSdRjxEj-376" value="" style="shape=tableRow;horizontal=0;startSize=0;swimlaneHead=0;swimlaneBody=0;fillColor=none;collapsible=0;dropTarget=0;points=[[0,0.5],[1,0.5]];portConstraint=eastwest;top=0;left=0;right=0;bottom=1;fontColor=#EEEEEE;fontSize=12;strokeWidth=0.5;labelBackgroundColor=none;strokeColor=#BAC8D3;rounded=1;" parent="FsbxxfnnBqgwTSdRjxEj-375" vertex="1">
          <mxGeometry y="30" width="180" height="30" as="geometry" />
        </mxCell>
        <mxCell id="FsbxxfnnBqgwTSdRjxEj-377" value="PK" style="shape=partialRectangle;connectable=0;fillColor=none;top=0;left=0;bottom=0;right=0;fontStyle=1;overflow=hidden;whiteSpace=wrap;html=1;fontColor=#EEEEEE;fontSize=12;strokeWidth=0.5;labelBackgroundColor=none;strokeColor=#BAC8D3;rounded=1;" parent="FsbxxfnnBqgwTSdRjxEj-376" vertex="1">
          <mxGeometry width="31.13793103448279" height="30" as="geometry">
            <mxRectangle width="31.13793103448279" height="30" as="alternateBounds" />
          </mxGeometry>
        </mxCell>
        <mxCell id="FsbxxfnnBqgwTSdRjxEj-378" value="_id" style="shape=partialRectangle;connectable=0;fillColor=none;top=0;left=0;bottom=0;right=0;align=left;spacingLeft=6;fontStyle=5;overflow=hidden;whiteSpace=wrap;html=1;fontColor=#EEEEEE;fontSize=12;strokeWidth=0.5;labelBackgroundColor=none;strokeColor=#BAC8D3;rounded=1;" parent="FsbxxfnnBqgwTSdRjxEj-376" vertex="1">
          <mxGeometry x="31.13793103448279" width="148.8620689655172" height="30" as="geometry">
            <mxRectangle width="148.8620689655172" height="30" as="alternateBounds" />
          </mxGeometry>
        </mxCell>
        <mxCell id="FsbxxfnnBqgwTSdRjxEj-385" value="" style="shape=tableRow;horizontal=0;startSize=0;swimlaneHead=0;swimlaneBody=0;fillColor=none;collapsible=0;dropTarget=0;points=[[0,0.5],[1,0.5]];portConstraint=eastwest;top=0;left=0;right=0;bottom=0;fontColor=#EEEEEE;fontSize=12;strokeWidth=0.5;labelBackgroundColor=none;strokeColor=#BAC8D3;rounded=1;" parent="FsbxxfnnBqgwTSdRjxEj-375" vertex="1">
          <mxGeometry y="60" width="180" height="20" as="geometry" />
        </mxCell>
        <mxCell id="FsbxxfnnBqgwTSdRjxEj-386" value="FK" style="shape=partialRectangle;connectable=0;fillColor=none;top=0;left=0;bottom=0;right=0;editable=1;overflow=hidden;whiteSpace=wrap;html=1;fontColor=#EEEEEE;fontSize=12;strokeWidth=0.5;labelBackgroundColor=none;strokeColor=#BAC8D3;rounded=1;" parent="FsbxxfnnBqgwTSdRjxEj-385" vertex="1">
          <mxGeometry width="31.13793103448279" height="20" as="geometry">
            <mxRectangle width="31.13793103448279" height="20" as="alternateBounds" />
          </mxGeometry>
        </mxCell>
        <mxCell id="FsbxxfnnBqgwTSdRjxEj-387" value="module_Id" style="shape=partialRectangle;connectable=0;fillColor=none;top=0;left=0;bottom=0;right=0;align=left;spacingLeft=6;overflow=hidden;whiteSpace=wrap;html=1;fontColor=#EEEEEE;fontSize=12;strokeWidth=0.5;labelBackgroundColor=none;strokeColor=#BAC8D3;rounded=1;" parent="FsbxxfnnBqgwTSdRjxEj-385" vertex="1">
          <mxGeometry x="31.13793103448279" width="148.8620689655172" height="20" as="geometry">
            <mxRectangle width="148.8620689655172" height="20" as="alternateBounds" />
          </mxGeometry>
        </mxCell>
        <mxCell id="FsbxxfnnBqgwTSdRjxEj-379" value="" style="shape=tableRow;horizontal=0;startSize=0;swimlaneHead=0;swimlaneBody=0;fillColor=none;collapsible=0;dropTarget=0;points=[[0,0.5],[1,0.5]];portConstraint=eastwest;top=0;left=0;right=0;bottom=0;fontColor=#EEEEEE;fontSize=12;strokeWidth=0.5;labelBackgroundColor=none;strokeColor=#BAC8D3;rounded=1;" parent="FsbxxfnnBqgwTSdRjxEj-375" vertex="1">
          <mxGeometry y="80" width="180" height="25" as="geometry" />
        </mxCell>
        <mxCell id="FsbxxfnnBqgwTSdRjxEj-380" value="" style="shape=partialRectangle;connectable=0;fillColor=none;top=0;left=0;bottom=0;right=0;editable=1;overflow=hidden;whiteSpace=wrap;html=1;fontColor=#EEEEEE;fontSize=12;strokeWidth=0.5;labelBackgroundColor=none;strokeColor=#BAC8D3;rounded=1;" parent="FsbxxfnnBqgwTSdRjxEj-379" vertex="1">
          <mxGeometry width="31.13793103448279" height="25" as="geometry">
            <mxRectangle width="31.13793103448279" height="25" as="alternateBounds" />
          </mxGeometry>
        </mxCell>
        <mxCell id="FsbxxfnnBqgwTSdRjxEj-381" value="title" style="shape=partialRectangle;connectable=0;fillColor=none;top=0;left=0;bottom=0;right=0;align=left;spacingLeft=6;overflow=hidden;whiteSpace=wrap;html=1;fontColor=#EEEEEE;fontSize=12;strokeWidth=0.5;labelBackgroundColor=none;strokeColor=#BAC8D3;rounded=1;" parent="FsbxxfnnBqgwTSdRjxEj-379" vertex="1">
          <mxGeometry x="31.13793103448279" width="148.8620689655172" height="25" as="geometry">
            <mxRectangle width="148.8620689655172" height="25" as="alternateBounds" />
          </mxGeometry>
        </mxCell>
        <mxCell id="FsbxxfnnBqgwTSdRjxEj-382" value="" style="shape=tableRow;horizontal=0;startSize=0;swimlaneHead=0;swimlaneBody=0;fillColor=none;collapsible=0;dropTarget=0;points=[[0,0.5],[1,0.5]];portConstraint=eastwest;top=0;left=0;right=0;bottom=0;fontColor=#EEEEEE;fontSize=12;strokeWidth=0.5;labelBackgroundColor=none;strokeColor=#BAC8D3;rounded=1;" parent="FsbxxfnnBqgwTSdRjxEj-375" vertex="1">
          <mxGeometry y="105" width="180" height="22" as="geometry" />
        </mxCell>
        <mxCell id="FsbxxfnnBqgwTSdRjxEj-383" value="" style="shape=partialRectangle;connectable=0;fillColor=none;top=0;left=0;bottom=0;right=0;editable=1;overflow=hidden;whiteSpace=wrap;html=1;fontColor=#EEEEEE;fontSize=12;strokeWidth=0.5;labelBackgroundColor=none;strokeColor=#BAC8D3;rounded=1;" parent="FsbxxfnnBqgwTSdRjxEj-382" vertex="1">
          <mxGeometry width="31.13793103448279" height="22" as="geometry">
            <mxRectangle width="31.13793103448279" height="22" as="alternateBounds" />
          </mxGeometry>
        </mxCell>
        <mxCell id="FsbxxfnnBqgwTSdRjxEj-384" value="staticKey" style="shape=partialRectangle;connectable=0;fillColor=none;top=0;left=0;bottom=0;right=0;align=left;spacingLeft=6;overflow=hidden;whiteSpace=wrap;html=1;fontColor=#EEEEEE;fontSize=12;strokeWidth=0.5;labelBackgroundColor=none;strokeColor=#BAC8D3;rounded=1;" parent="FsbxxfnnBqgwTSdRjxEj-382" vertex="1">
          <mxGeometry x="31.13793103448279" width="148.8620689655172" height="22" as="geometry">
            <mxRectangle width="148.8620689655172" height="22" as="alternateBounds" />
          </mxGeometry>
        </mxCell>
        <mxCell id="FsbxxfnnBqgwTSdRjxEj-401" value="Module" style="shape=table;startSize=30;container=1;collapsible=1;childLayout=tableLayout;fixedRows=1;rowLines=0;fontStyle=1;align=center;resizeLast=1;html=1;fontColor=#EEEEEE;fontSize=12;strokeWidth=0.5;labelBackgroundColor=none;fillColor=#09555B;strokeColor=#BAC8D3;rounded=1;" parent="1" vertex="1">
          <mxGeometry x="537" y="803" width="180" height="107" as="geometry" />
        </mxCell>
        <mxCell id="FsbxxfnnBqgwTSdRjxEj-402" value="" style="shape=tableRow;horizontal=0;startSize=0;swimlaneHead=0;swimlaneBody=0;fillColor=none;collapsible=0;dropTarget=0;points=[[0,0.5],[1,0.5]];portConstraint=eastwest;top=0;left=0;right=0;bottom=1;fontColor=#EEEEEE;fontSize=12;strokeWidth=0.5;labelBackgroundColor=none;strokeColor=#BAC8D3;rounded=1;" parent="FsbxxfnnBqgwTSdRjxEj-401" vertex="1">
          <mxGeometry y="30" width="180" height="30" as="geometry" />
        </mxCell>
        <mxCell id="FsbxxfnnBqgwTSdRjxEj-403" value="PK" style="shape=partialRectangle;connectable=0;fillColor=none;top=0;left=0;bottom=0;right=0;fontStyle=1;overflow=hidden;whiteSpace=wrap;html=1;fontColor=#EEEEEE;fontSize=12;strokeWidth=0.5;labelBackgroundColor=none;strokeColor=#BAC8D3;rounded=1;" parent="FsbxxfnnBqgwTSdRjxEj-402" vertex="1">
          <mxGeometry width="31.13793103448279" height="30" as="geometry">
            <mxRectangle width="31.13793103448279" height="30" as="alternateBounds" />
          </mxGeometry>
        </mxCell>
        <mxCell id="FsbxxfnnBqgwTSdRjxEj-404" value="_id" style="shape=partialRectangle;connectable=0;fillColor=none;top=0;left=0;bottom=0;right=0;align=left;spacingLeft=6;fontStyle=5;overflow=hidden;whiteSpace=wrap;html=1;fontColor=#EEEEEE;fontSize=12;strokeWidth=0.5;labelBackgroundColor=none;strokeColor=#BAC8D3;rounded=1;" parent="FsbxxfnnBqgwTSdRjxEj-402" vertex="1">
          <mxGeometry x="31.13793103448279" width="148.8620689655172" height="30" as="geometry">
            <mxRectangle width="148.8620689655172" height="30" as="alternateBounds" />
          </mxGeometry>
        </mxCell>
        <mxCell id="FsbxxfnnBqgwTSdRjxEj-405" value="" style="shape=tableRow;horizontal=0;startSize=0;swimlaneHead=0;swimlaneBody=0;fillColor=none;collapsible=0;dropTarget=0;points=[[0,0.5],[1,0.5]];portConstraint=eastwest;top=0;left=0;right=0;bottom=0;fontColor=#EEEEEE;fontSize=12;strokeWidth=0.5;labelBackgroundColor=none;strokeColor=#BAC8D3;rounded=1;" parent="FsbxxfnnBqgwTSdRjxEj-401" vertex="1">
          <mxGeometry y="60" width="180" height="25" as="geometry" />
        </mxCell>
        <mxCell id="FsbxxfnnBqgwTSdRjxEj-406" value="" style="shape=partialRectangle;connectable=0;fillColor=none;top=0;left=0;bottom=0;right=0;editable=1;overflow=hidden;whiteSpace=wrap;html=1;fontColor=#EEEEEE;fontSize=12;strokeWidth=0.5;labelBackgroundColor=none;strokeColor=#BAC8D3;rounded=1;" parent="FsbxxfnnBqgwTSdRjxEj-405" vertex="1">
          <mxGeometry width="31.13793103448279" height="25" as="geometry">
            <mxRectangle width="31.13793103448279" height="25" as="alternateBounds" />
          </mxGeometry>
        </mxCell>
        <mxCell id="FsbxxfnnBqgwTSdRjxEj-407" value="name" style="shape=partialRectangle;connectable=0;fillColor=none;top=0;left=0;bottom=0;right=0;align=left;spacingLeft=6;overflow=hidden;whiteSpace=wrap;html=1;fontColor=#EEEEEE;fontSize=12;strokeWidth=0.5;labelBackgroundColor=none;strokeColor=#BAC8D3;rounded=1;" parent="FsbxxfnnBqgwTSdRjxEj-405" vertex="1">
          <mxGeometry x="31.13793103448279" width="148.8620689655172" height="25" as="geometry">
            <mxRectangle width="148.8620689655172" height="25" as="alternateBounds" />
          </mxGeometry>
        </mxCell>
        <mxCell id="FsbxxfnnBqgwTSdRjxEj-408" value="" style="shape=tableRow;horizontal=0;startSize=0;swimlaneHead=0;swimlaneBody=0;fillColor=none;collapsible=0;dropTarget=0;points=[[0,0.5],[1,0.5]];portConstraint=eastwest;top=0;left=0;right=0;bottom=0;fontColor=#EEEEEE;fontSize=12;strokeWidth=0.5;labelBackgroundColor=none;strokeColor=#BAC8D3;rounded=1;" parent="FsbxxfnnBqgwTSdRjxEj-401" vertex="1">
          <mxGeometry y="85" width="180" height="22" as="geometry" />
        </mxCell>
        <mxCell id="FsbxxfnnBqgwTSdRjxEj-409" value="" style="shape=partialRectangle;connectable=0;fillColor=none;top=0;left=0;bottom=0;right=0;editable=1;overflow=hidden;whiteSpace=wrap;html=1;fontColor=#EEEEEE;fontSize=12;strokeWidth=0.5;labelBackgroundColor=none;strokeColor=#BAC8D3;rounded=1;" parent="FsbxxfnnBqgwTSdRjxEj-408" vertex="1">
          <mxGeometry width="31.13793103448279" height="22" as="geometry">
            <mxRectangle width="31.13793103448279" height="22" as="alternateBounds" />
          </mxGeometry>
        </mxCell>
        <mxCell id="FsbxxfnnBqgwTSdRjxEj-410" value="statickKey" style="shape=partialRectangle;connectable=0;fillColor=none;top=0;left=0;bottom=0;right=0;align=left;spacingLeft=6;overflow=hidden;whiteSpace=wrap;html=1;fontColor=#EEEEEE;fontSize=12;strokeWidth=0.5;labelBackgroundColor=none;strokeColor=#BAC8D3;rounded=1;" parent="FsbxxfnnBqgwTSdRjxEj-408" vertex="1">
          <mxGeometry x="31.13793103448279" width="148.8620689655172" height="22" as="geometry">
            <mxRectangle width="148.8620689655172" height="22" as="alternateBounds" />
          </mxGeometry>
        </mxCell>
        <mxCell id="W7pQTJgZ-b6TpAFAyF8u-1" value="wishlist" style="shape=table;startSize=34;container=1;collapsible=1;childLayout=tableLayout;fixedRows=1;rowLines=0;fontStyle=1;align=center;resizeLast=1;html=1;fontColor=#EEEEEE;fontSize=12;strokeWidth=0.5;labelBackgroundColor=none;fillColor=#09555B;strokeColor=#BAC8D3;rounded=1;" parent="1" vertex="1">
          <mxGeometry x="1052" y="697" width="180" height="89" as="geometry" />
        </mxCell>
        <mxCell id="W7pQTJgZ-b6TpAFAyF8u-2" value="" style="shape=tableRow;horizontal=0;startSize=0;swimlaneHead=0;swimlaneBody=0;fillColor=none;collapsible=0;dropTarget=0;points=[[0,0.5],[1,0.5]];portConstraint=eastwest;top=0;left=0;right=0;bottom=1;fontColor=#EEEEEE;fontSize=12;strokeWidth=0.5;labelBackgroundColor=none;strokeColor=#BAC8D3;rounded=1;" parent="W7pQTJgZ-b6TpAFAyF8u-1" vertex="1">
          <mxGeometry y="34" width="180" height="30" as="geometry" />
        </mxCell>
        <mxCell id="W7pQTJgZ-b6TpAFAyF8u-3" value="PK" style="shape=partialRectangle;connectable=0;fillColor=none;top=0;left=0;bottom=0;right=0;fontStyle=1;overflow=hidden;whiteSpace=wrap;html=1;fontColor=#EEEEEE;fontSize=12;strokeWidth=0.5;labelBackgroundColor=none;strokeColor=#BAC8D3;rounded=1;" parent="W7pQTJgZ-b6TpAFAyF8u-2" vertex="1">
          <mxGeometry width="31.13793103448279" height="30" as="geometry">
            <mxRectangle width="31.13793103448279" height="30" as="alternateBounds" />
          </mxGeometry>
        </mxCell>
        <mxCell id="W7pQTJgZ-b6TpAFAyF8u-4" value="_id" style="shape=partialRectangle;connectable=0;fillColor=none;top=0;left=0;bottom=0;right=0;align=left;spacingLeft=6;fontStyle=5;overflow=hidden;whiteSpace=wrap;html=1;fontColor=#EEEEEE;fontSize=12;strokeWidth=0.5;labelBackgroundColor=none;strokeColor=#BAC8D3;rounded=1;" parent="W7pQTJgZ-b6TpAFAyF8u-2" vertex="1">
          <mxGeometry x="31.13793103448279" width="148.8620689655172" height="30" as="geometry">
            <mxRectangle width="148.8620689655172" height="30" as="alternateBounds" />
          </mxGeometry>
        </mxCell>
        <mxCell id="W7pQTJgZ-b6TpAFAyF8u-5" value="" style="shape=tableRow;horizontal=0;startSize=0;swimlaneHead=0;swimlaneBody=0;fillColor=none;collapsible=0;dropTarget=0;points=[[0,0.5],[1,0.5]];portConstraint=eastwest;top=0;left=0;right=0;bottom=0;fontColor=#EEEEEE;fontSize=12;strokeWidth=0.5;labelBackgroundColor=none;strokeColor=#BAC8D3;rounded=1;" parent="W7pQTJgZ-b6TpAFAyF8u-1" vertex="1">
          <mxGeometry y="64" width="180" height="25" as="geometry" />
        </mxCell>
        <mxCell id="W7pQTJgZ-b6TpAFAyF8u-6" value="" style="shape=partialRectangle;connectable=0;fillColor=none;top=0;left=0;bottom=0;right=0;editable=1;overflow=hidden;whiteSpace=wrap;html=1;fontColor=#EEEEEE;fontSize=12;strokeWidth=0.5;labelBackgroundColor=none;strokeColor=#BAC8D3;rounded=1;" parent="W7pQTJgZ-b6TpAFAyF8u-5" vertex="1">
          <mxGeometry width="31.13793103448279" height="25" as="geometry">
            <mxRectangle width="31.13793103448279" height="25" as="alternateBounds" />
          </mxGeometry>
        </mxCell>
        <mxCell id="W7pQTJgZ-b6TpAFAyF8u-7" value="user_Id" style="shape=partialRectangle;connectable=0;fillColor=none;top=0;left=0;bottom=0;right=0;align=left;spacingLeft=6;overflow=hidden;whiteSpace=wrap;html=1;fontColor=#EEEEEE;fontSize=12;strokeWidth=0.5;labelBackgroundColor=none;strokeColor=#BAC8D3;rounded=1;" parent="W7pQTJgZ-b6TpAFAyF8u-5" vertex="1">
          <mxGeometry x="31.13793103448279" width="148.8620689655172" height="25" as="geometry">
            <mxRectangle width="148.8620689655172" height="25" as="alternateBounds" />
          </mxGeometry>
        </mxCell>
        <mxCell id="W7pQTJgZ-b6TpAFAyF8u-11" value="Country" style="shape=table;startSize=29;container=1;collapsible=1;childLayout=tableLayout;fixedRows=1;rowLines=0;fontStyle=1;align=center;resizeLast=1;html=1;fontColor=#EEEEEE;fontSize=12;strokeWidth=0.5;labelBackgroundColor=none;fillColor=#09555B;strokeColor=#BAC8D3;rounded=1;" parent="1" vertex="1">
          <mxGeometry x="518" y="454" width="149" height="85" as="geometry" />
        </mxCell>
        <mxCell id="W7pQTJgZ-b6TpAFAyF8u-12" value="" style="shape=tableRow;horizontal=0;startSize=0;swimlaneHead=0;swimlaneBody=0;fillColor=none;collapsible=0;dropTarget=0;points=[[0,0.5],[1,0.5]];portConstraint=eastwest;top=0;left=0;right=0;bottom=1;fontColor=#EEEEEE;fontSize=12;strokeWidth=0.5;labelBackgroundColor=none;strokeColor=#BAC8D3;rounded=1;" parent="W7pQTJgZ-b6TpAFAyF8u-11" vertex="1">
          <mxGeometry y="29" width="149" height="30" as="geometry" />
        </mxCell>
        <mxCell id="W7pQTJgZ-b6TpAFAyF8u-13" value="PK" style="shape=partialRectangle;connectable=0;fillColor=none;top=0;left=0;bottom=0;right=0;fontStyle=1;overflow=hidden;whiteSpace=wrap;html=1;fontColor=#EEEEEE;fontSize=12;strokeWidth=0.5;labelBackgroundColor=none;strokeColor=#BAC8D3;rounded=1;" parent="W7pQTJgZ-b6TpAFAyF8u-12" vertex="1">
          <mxGeometry width="31.13793103448279" height="30" as="geometry">
            <mxRectangle width="31.13793103448279" height="30" as="alternateBounds" />
          </mxGeometry>
        </mxCell>
        <mxCell id="W7pQTJgZ-b6TpAFAyF8u-14" value="_id" style="shape=partialRectangle;connectable=0;fillColor=none;top=0;left=0;bottom=0;right=0;align=left;spacingLeft=6;fontStyle=5;overflow=hidden;whiteSpace=wrap;html=1;fontColor=#EEEEEE;fontSize=12;strokeWidth=0.5;labelBackgroundColor=none;strokeColor=#BAC8D3;rounded=1;" parent="W7pQTJgZ-b6TpAFAyF8u-12" vertex="1">
          <mxGeometry x="31.13793103448279" width="117.86206896551721" height="30" as="geometry">
            <mxRectangle width="117.86206896551721" height="30" as="alternateBounds" />
          </mxGeometry>
        </mxCell>
        <mxCell id="W7pQTJgZ-b6TpAFAyF8u-15" value="" style="shape=tableRow;horizontal=0;startSize=0;swimlaneHead=0;swimlaneBody=0;fillColor=none;collapsible=0;dropTarget=0;points=[[0,0.5],[1,0.5]];portConstraint=eastwest;top=0;left=0;right=0;bottom=0;fontColor=#EEEEEE;fontSize=12;strokeWidth=0.5;labelBackgroundColor=none;strokeColor=#BAC8D3;rounded=1;" parent="W7pQTJgZ-b6TpAFAyF8u-11" vertex="1">
          <mxGeometry y="59" width="149" height="25" as="geometry" />
        </mxCell>
        <mxCell id="W7pQTJgZ-b6TpAFAyF8u-16" value="" style="shape=partialRectangle;connectable=0;fillColor=none;top=0;left=0;bottom=0;right=0;editable=1;overflow=hidden;whiteSpace=wrap;html=1;fontColor=#EEEEEE;fontSize=12;strokeWidth=0.5;labelBackgroundColor=none;strokeColor=#BAC8D3;rounded=1;" parent="W7pQTJgZ-b6TpAFAyF8u-15" vertex="1">
          <mxGeometry width="31.13793103448279" height="25" as="geometry">
            <mxRectangle width="31.13793103448279" height="25" as="alternateBounds" />
          </mxGeometry>
        </mxCell>
        <mxCell id="W7pQTJgZ-b6TpAFAyF8u-17" value="name" style="shape=partialRectangle;connectable=0;fillColor=none;top=0;left=0;bottom=0;right=0;align=left;spacingLeft=6;overflow=hidden;whiteSpace=wrap;html=1;fontColor=#EEEEEE;fontSize=12;strokeWidth=0.5;labelBackgroundColor=none;strokeColor=#BAC8D3;rounded=1;" parent="W7pQTJgZ-b6TpAFAyF8u-15" vertex="1">
          <mxGeometry x="31.13793103448279" width="117.86206896551721" height="25" as="geometry">
            <mxRectangle width="117.86206896551721" height="25" as="alternateBounds" />
          </mxGeometry>
        </mxCell>
        <mxCell id="W7pQTJgZ-b6TpAFAyF8u-64" value="category" style="shape=table;startSize=40;container=1;collapsible=1;childLayout=tableLayout;fixedRows=1;rowLines=0;fontStyle=1;align=center;resizeLast=1;html=1;whiteSpace=wrap;strokeWidth=0.5;labelBackgroundColor=none;fillColor=#09555B;strokeColor=#BAC8D3;fontColor=#EEEEEE;rounded=1;" parent="1" vertex="1">
          <mxGeometry x="2197.75" y="416" width="168" height="130" as="geometry" />
        </mxCell>
        <mxCell id="W7pQTJgZ-b6TpAFAyF8u-65" value="" style="shape=tableRow;horizontal=0;startSize=0;swimlaneHead=0;swimlaneBody=0;fillColor=none;collapsible=0;dropTarget=0;points=[[0,0.5],[1,0.5]];portConstraint=eastwest;top=0;left=0;right=0;bottom=0;html=1;strokeWidth=0.5;labelBackgroundColor=none;strokeColor=#BAC8D3;fontColor=#EEEEEE;rounded=1;" parent="W7pQTJgZ-b6TpAFAyF8u-64" vertex="1">
          <mxGeometry y="40" width="168" height="30" as="geometry" />
        </mxCell>
        <mxCell id="W7pQTJgZ-b6TpAFAyF8u-66" value="PK" style="shape=partialRectangle;connectable=0;fillColor=none;top=0;left=0;bottom=0;right=0;fontStyle=1;overflow=hidden;html=1;whiteSpace=wrap;strokeWidth=0.5;labelBackgroundColor=none;strokeColor=#BAC8D3;fontColor=#EEEEEE;rounded=1;" parent="W7pQTJgZ-b6TpAFAyF8u-65" vertex="1">
          <mxGeometry width="50.75" height="30" as="geometry">
            <mxRectangle width="50.75" height="30" as="alternateBounds" />
          </mxGeometry>
        </mxCell>
        <mxCell id="W7pQTJgZ-b6TpAFAyF8u-67" value="_id" style="shape=partialRectangle;connectable=0;fillColor=none;top=0;left=0;bottom=0;right=0;align=left;spacingLeft=6;fontStyle=5;overflow=hidden;html=1;whiteSpace=wrap;strokeWidth=0.5;labelBackgroundColor=none;strokeColor=#BAC8D3;fontColor=#EEEEEE;rounded=1;" parent="W7pQTJgZ-b6TpAFAyF8u-65" vertex="1">
          <mxGeometry x="50.75" width="117.25" height="30" as="geometry">
            <mxRectangle width="117.25" height="30" as="alternateBounds" />
          </mxGeometry>
        </mxCell>
        <mxCell id="W7pQTJgZ-b6TpAFAyF8u-71" value="" style="shape=tableRow;horizontal=0;startSize=0;swimlaneHead=0;swimlaneBody=0;fillColor=none;collapsible=0;dropTarget=0;points=[[0,0.5],[1,0.5]];portConstraint=eastwest;top=0;left=0;right=0;bottom=0;html=1;strokeWidth=0.5;labelBackgroundColor=none;strokeColor=#BAC8D3;fontColor=#EEEEEE;rounded=1;" parent="W7pQTJgZ-b6TpAFAyF8u-64" vertex="1">
          <mxGeometry y="70" width="168" height="30" as="geometry" />
        </mxCell>
        <mxCell id="W7pQTJgZ-b6TpAFAyF8u-72" value="" style="shape=partialRectangle;connectable=0;fillColor=none;top=0;left=0;bottom=0;right=0;editable=1;overflow=hidden;html=1;whiteSpace=wrap;strokeWidth=0.5;labelBackgroundColor=none;strokeColor=#BAC8D3;fontColor=#EEEEEE;rounded=1;" parent="W7pQTJgZ-b6TpAFAyF8u-71" vertex="1">
          <mxGeometry width="50.75" height="30" as="geometry">
            <mxRectangle width="50.75" height="30" as="alternateBounds" />
          </mxGeometry>
        </mxCell>
        <mxCell id="W7pQTJgZ-b6TpAFAyF8u-73" value="name" style="shape=partialRectangle;connectable=0;fillColor=none;top=0;left=0;bottom=0;right=0;align=left;spacingLeft=6;overflow=hidden;html=1;whiteSpace=wrap;strokeWidth=0.5;labelBackgroundColor=none;strokeColor=#BAC8D3;fontColor=#EEEEEE;rounded=1;" parent="W7pQTJgZ-b6TpAFAyF8u-71" vertex="1">
          <mxGeometry x="50.75" width="117.25" height="30" as="geometry">
            <mxRectangle width="117.25" height="30" as="alternateBounds" />
          </mxGeometry>
        </mxCell>
        <mxCell id="W7pQTJgZ-b6TpAFAyF8u-74" value="" style="shape=tableRow;horizontal=0;startSize=0;swimlaneHead=0;swimlaneBody=0;fillColor=none;collapsible=0;dropTarget=0;points=[[0,0.5],[1,0.5]];portConstraint=eastwest;top=0;left=0;right=0;bottom=0;html=1;strokeWidth=0.5;labelBackgroundColor=none;strokeColor=#BAC8D3;fontColor=#EEEEEE;rounded=1;" parent="W7pQTJgZ-b6TpAFAyF8u-64" vertex="1">
          <mxGeometry y="100" width="168" height="30" as="geometry" />
        </mxCell>
        <mxCell id="W7pQTJgZ-b6TpAFAyF8u-75" value="FK" style="shape=partialRectangle;connectable=0;fillColor=none;top=0;left=0;bottom=0;right=0;editable=1;overflow=hidden;html=1;whiteSpace=wrap;strokeWidth=0.5;labelBackgroundColor=none;strokeColor=#BAC8D3;fontColor=#EEEEEE;rounded=1;" parent="W7pQTJgZ-b6TpAFAyF8u-74" vertex="1">
          <mxGeometry width="50.75" height="30" as="geometry">
            <mxRectangle width="50.75" height="30" as="alternateBounds" />
          </mxGeometry>
        </mxCell>
        <mxCell id="W7pQTJgZ-b6TpAFAyF8u-76" value="parentCategory" style="shape=partialRectangle;connectable=0;fillColor=none;top=0;left=0;bottom=0;right=0;align=left;spacingLeft=6;overflow=hidden;html=1;whiteSpace=wrap;strokeWidth=0.5;labelBackgroundColor=none;strokeColor=#BAC8D3;fontColor=#EEEEEE;rounded=1;" parent="W7pQTJgZ-b6TpAFAyF8u-74" vertex="1">
          <mxGeometry x="50.75" width="117.25" height="30" as="geometry">
            <mxRectangle width="117.25" height="30" as="alternateBounds" />
          </mxGeometry>
        </mxCell>
        <mxCell id="tHaSnj_AwQkWbdFXGDT--3" value="" style="edgeStyle=entityRelationEdgeStyle;fontSize=12;html=1;endArrow=ERmany;rounded=1;labelBackgroundColor=none;strokeColor=#0B4D6A;fontColor=default;" parent="W7pQTJgZ-b6TpAFAyF8u-64" source="W7pQTJgZ-b6TpAFAyF8u-65" target="W7pQTJgZ-b6TpAFAyF8u-74" edge="1">
          <mxGeometry width="100" height="100" relative="1" as="geometry">
            <mxPoint x="112" y="228" as="sourcePoint" />
            <mxPoint x="48" y="192" as="targetPoint" />
          </mxGeometry>
        </mxCell>
        <mxCell id="KZuJ38PsoPJJvdqhNzPo-1" value="Variant Templates" style="shape=table;startSize=30;container=1;collapsible=1;childLayout=tableLayout;fixedRows=1;rowLines=0;fontStyle=1;align=center;resizeLast=1;html=1;fontColor=#EEEEEE;fontSize=12;strokeWidth=0.5;labelBackgroundColor=none;fillColor=#09555B;strokeColor=#BAC8D3;rounded=1;" parent="1" vertex="1">
          <mxGeometry x="2191.25" y="245" width="168.75" height="130" as="geometry" />
        </mxCell>
        <mxCell id="KZuJ38PsoPJJvdqhNzPo-2" value="" style="shape=tableRow;horizontal=0;startSize=0;swimlaneHead=0;swimlaneBody=0;fillColor=none;collapsible=0;dropTarget=0;points=[[0,0.5],[1,0.5]];portConstraint=eastwest;top=0;left=0;right=0;bottom=1;fontColor=#EEEEEE;fontSize=12;strokeWidth=0.5;labelBackgroundColor=none;strokeColor=#BAC8D3;rounded=1;" parent="KZuJ38PsoPJJvdqhNzPo-1" vertex="1">
          <mxGeometry y="30" width="168.75" height="31" as="geometry" />
        </mxCell>
        <mxCell id="KZuJ38PsoPJJvdqhNzPo-3" value="PK" style="shape=partialRectangle;connectable=0;fillColor=none;top=0;left=0;bottom=0;right=0;fontStyle=1;overflow=hidden;whiteSpace=wrap;html=1;fontColor=#EEEEEE;fontSize=12;strokeWidth=0.5;labelBackgroundColor=none;strokeColor=#BAC8D3;rounded=1;" parent="KZuJ38PsoPJJvdqhNzPo-2" vertex="1">
          <mxGeometry width="31.13793103448279" height="31" as="geometry">
            <mxRectangle width="31.13793103448279" height="31" as="alternateBounds" />
          </mxGeometry>
        </mxCell>
        <mxCell id="KZuJ38PsoPJJvdqhNzPo-4" value="_id" style="shape=partialRectangle;connectable=0;fillColor=none;top=0;left=0;bottom=0;right=0;align=left;spacingLeft=6;fontStyle=5;overflow=hidden;whiteSpace=wrap;html=1;fontColor=#EEEEEE;fontSize=12;strokeWidth=0.5;labelBackgroundColor=none;strokeColor=#BAC8D3;rounded=1;" parent="KZuJ38PsoPJJvdqhNzPo-2" vertex="1">
          <mxGeometry x="31.13793103448279" width="137.6120689655172" height="31" as="geometry">
            <mxRectangle width="137.6120689655172" height="31" as="alternateBounds" />
          </mxGeometry>
        </mxCell>
        <mxCell id="KZuJ38PsoPJJvdqhNzPo-5" value="" style="shape=tableRow;horizontal=0;startSize=0;swimlaneHead=0;swimlaneBody=0;fillColor=none;collapsible=0;dropTarget=0;points=[[0,0.5],[1,0.5]];portConstraint=eastwest;top=0;left=0;right=0;bottom=0;fontColor=#EEEEEE;fontSize=12;strokeWidth=0.5;labelBackgroundColor=none;strokeColor=#BAC8D3;rounded=1;" parent="KZuJ38PsoPJJvdqhNzPo-1" vertex="1">
          <mxGeometry y="61" width="168.75" height="25" as="geometry" />
        </mxCell>
        <mxCell id="KZuJ38PsoPJJvdqhNzPo-6" value="" style="shape=partialRectangle;connectable=0;fillColor=none;top=0;left=0;bottom=0;right=0;editable=1;overflow=hidden;whiteSpace=wrap;html=1;fontColor=#EEEEEE;fontSize=12;strokeWidth=0.5;labelBackgroundColor=none;strokeColor=#BAC8D3;rounded=1;" parent="KZuJ38PsoPJJvdqhNzPo-5" vertex="1">
          <mxGeometry width="31.13793103448279" height="25" as="geometry">
            <mxRectangle width="31.13793103448279" height="25" as="alternateBounds" />
          </mxGeometry>
        </mxCell>
        <mxCell id="KZuJ38PsoPJJvdqhNzPo-7" value="title" style="shape=partialRectangle;connectable=0;fillColor=none;top=0;left=0;bottom=0;right=0;align=left;spacingLeft=6;overflow=hidden;whiteSpace=wrap;html=1;fontColor=#EEEEEE;fontSize=12;strokeWidth=0.5;labelBackgroundColor=none;strokeColor=#BAC8D3;rounded=1;" parent="KZuJ38PsoPJJvdqhNzPo-5" vertex="1">
          <mxGeometry x="31.13793103448279" width="137.6120689655172" height="25" as="geometry">
            <mxRectangle width="137.6120689655172" height="25" as="alternateBounds" />
          </mxGeometry>
        </mxCell>
        <mxCell id="KZuJ38PsoPJJvdqhNzPo-8" value="" style="shape=tableRow;horizontal=0;startSize=0;swimlaneHead=0;swimlaneBody=0;fillColor=none;collapsible=0;dropTarget=0;points=[[0,0.5],[1,0.5]];portConstraint=eastwest;top=0;left=0;right=0;bottom=0;fontColor=#EEEEEE;fontSize=12;strokeWidth=0.5;labelBackgroundColor=none;strokeColor=#BAC8D3;rounded=1;" parent="KZuJ38PsoPJJvdqhNzPo-1" vertex="1">
          <mxGeometry y="86" width="168.75" height="22" as="geometry" />
        </mxCell>
        <mxCell id="KZuJ38PsoPJJvdqhNzPo-9" value="" style="shape=partialRectangle;connectable=0;fillColor=none;top=0;left=0;bottom=0;right=0;editable=1;overflow=hidden;whiteSpace=wrap;html=1;fontColor=#EEEEEE;fontSize=12;strokeWidth=0.5;labelBackgroundColor=none;strokeColor=#BAC8D3;rounded=1;" parent="KZuJ38PsoPJJvdqhNzPo-8" vertex="1">
          <mxGeometry width="31.13793103448279" height="22" as="geometry">
            <mxRectangle width="31.13793103448279" height="22" as="alternateBounds" />
          </mxGeometry>
        </mxCell>
        <mxCell id="KZuJ38PsoPJJvdqhNzPo-10" value="statickKey" style="shape=partialRectangle;connectable=0;fillColor=none;top=0;left=0;bottom=0;right=0;align=left;spacingLeft=6;overflow=hidden;whiteSpace=wrap;html=1;fontColor=#EEEEEE;fontSize=12;strokeWidth=0.5;labelBackgroundColor=none;strokeColor=#BAC8D3;rounded=1;" parent="KZuJ38PsoPJJvdqhNzPo-8" vertex="1">
          <mxGeometry x="31.13793103448279" width="137.6120689655172" height="22" as="geometry">
            <mxRectangle width="137.6120689655172" height="22" as="alternateBounds" />
          </mxGeometry>
        </mxCell>
        <mxCell id="SNhjK2ylvRVR9rXaaGu1-1" value="" style="shape=tableRow;horizontal=0;startSize=0;swimlaneHead=0;swimlaneBody=0;fillColor=none;collapsible=0;dropTarget=0;points=[[0,0.5],[1,0.5]];portConstraint=eastwest;top=0;left=0;right=0;bottom=0;fontColor=#EEEEEE;fontSize=12;strokeWidth=0.5;labelBackgroundColor=none;strokeColor=#BAC8D3;rounded=1;" vertex="1" parent="KZuJ38PsoPJJvdqhNzPo-1">
          <mxGeometry y="108" width="168.75" height="22" as="geometry" />
        </mxCell>
        <mxCell id="SNhjK2ylvRVR9rXaaGu1-2" value="" style="shape=partialRectangle;connectable=0;fillColor=none;top=0;left=0;bottom=0;right=0;editable=1;overflow=hidden;whiteSpace=wrap;html=1;fontColor=#EEEEEE;fontSize=12;strokeWidth=0.5;labelBackgroundColor=none;strokeColor=#BAC8D3;rounded=1;" vertex="1" parent="SNhjK2ylvRVR9rXaaGu1-1">
          <mxGeometry width="31.13793103448279" height="22" as="geometry">
            <mxRectangle width="31.13793103448279" height="22" as="alternateBounds" />
          </mxGeometry>
        </mxCell>
        <mxCell id="SNhjK2ylvRVR9rXaaGu1-3" value="category_id" style="shape=partialRectangle;connectable=0;fillColor=none;top=0;left=0;bottom=0;right=0;align=left;spacingLeft=6;overflow=hidden;whiteSpace=wrap;html=1;fontColor=#EEEEEE;fontSize=12;strokeWidth=0.5;labelBackgroundColor=none;strokeColor=#BAC8D3;rounded=1;" vertex="1" parent="SNhjK2ylvRVR9rXaaGu1-1">
          <mxGeometry x="31.13793103448279" width="137.6120689655172" height="22" as="geometry">
            <mxRectangle width="137.6120689655172" height="22" as="alternateBounds" />
          </mxGeometry>
        </mxCell>
        <mxCell id="KZuJ38PsoPJJvdqhNzPo-14" value="Variant" style="shape=table;startSize=36;container=1;collapsible=1;childLayout=tableLayout;fixedRows=1;rowLines=0;fontStyle=1;align=center;resizeLast=1;html=1;fontColor=#EEEEEE;fontSize=12;strokeWidth=0.5;labelBackgroundColor=none;fillColor=#09555B;strokeColor=#BAC8D3;rounded=1;" parent="1" vertex="1">
          <mxGeometry x="1927" y="303" width="180" height="157" as="geometry" />
        </mxCell>
        <mxCell id="KZuJ38PsoPJJvdqhNzPo-15" value="" style="shape=tableRow;horizontal=0;startSize=0;swimlaneHead=0;swimlaneBody=0;fillColor=none;collapsible=0;dropTarget=0;points=[[0,0.5],[1,0.5]];portConstraint=eastwest;top=0;left=0;right=0;bottom=1;fontColor=#EEEEEE;fontSize=12;strokeWidth=0.5;labelBackgroundColor=none;strokeColor=#BAC8D3;rounded=1;" parent="KZuJ38PsoPJJvdqhNzPo-14" vertex="1">
          <mxGeometry y="36" width="180" height="30" as="geometry" />
        </mxCell>
        <mxCell id="KZuJ38PsoPJJvdqhNzPo-16" value="PK" style="shape=partialRectangle;connectable=0;fillColor=none;top=0;left=0;bottom=0;right=0;fontStyle=1;overflow=hidden;whiteSpace=wrap;html=1;fontColor=#EEEEEE;fontSize=12;strokeWidth=0.5;labelBackgroundColor=none;strokeColor=#BAC8D3;rounded=1;" parent="KZuJ38PsoPJJvdqhNzPo-15" vertex="1">
          <mxGeometry width="31.13793103448279" height="30" as="geometry">
            <mxRectangle width="31.13793103448279" height="30" as="alternateBounds" />
          </mxGeometry>
        </mxCell>
        <mxCell id="KZuJ38PsoPJJvdqhNzPo-17" value="_id" style="shape=partialRectangle;connectable=0;fillColor=none;top=0;left=0;bottom=0;right=0;align=left;spacingLeft=6;fontStyle=5;overflow=hidden;whiteSpace=wrap;html=1;fontColor=#EEEEEE;fontSize=12;strokeWidth=0.5;labelBackgroundColor=none;strokeColor=#BAC8D3;rounded=1;" parent="KZuJ38PsoPJJvdqhNzPo-15" vertex="1">
          <mxGeometry x="31.13793103448279" width="148.8620689655172" height="30" as="geometry">
            <mxRectangle width="148.8620689655172" height="30" as="alternateBounds" />
          </mxGeometry>
        </mxCell>
        <mxCell id="KZuJ38PsoPJJvdqhNzPo-18" value="" style="shape=tableRow;horizontal=0;startSize=0;swimlaneHead=0;swimlaneBody=0;fillColor=none;collapsible=0;dropTarget=0;points=[[0,0.5],[1,0.5]];portConstraint=eastwest;top=0;left=0;right=0;bottom=0;fontColor=#EEEEEE;fontSize=12;strokeWidth=0.5;labelBackgroundColor=none;strokeColor=#BAC8D3;rounded=1;" parent="KZuJ38PsoPJJvdqhNzPo-14" vertex="1">
          <mxGeometry y="66" width="180" height="25" as="geometry" />
        </mxCell>
        <mxCell id="KZuJ38PsoPJJvdqhNzPo-19" value="" style="shape=partialRectangle;connectable=0;fillColor=none;top=0;left=0;bottom=0;right=0;editable=1;overflow=hidden;whiteSpace=wrap;html=1;fontColor=#EEEEEE;fontSize=12;strokeWidth=0.5;labelBackgroundColor=none;strokeColor=#BAC8D3;rounded=1;" parent="KZuJ38PsoPJJvdqhNzPo-18" vertex="1">
          <mxGeometry width="31.13793103448279" height="25" as="geometry">
            <mxRectangle width="31.13793103448279" height="25" as="alternateBounds" />
          </mxGeometry>
        </mxCell>
        <mxCell id="KZuJ38PsoPJJvdqhNzPo-20" value="title" style="shape=partialRectangle;connectable=0;fillColor=none;top=0;left=0;bottom=0;right=0;align=left;spacingLeft=6;overflow=hidden;whiteSpace=wrap;html=1;fontColor=#EEEEEE;fontSize=12;strokeWidth=0.5;labelBackgroundColor=none;strokeColor=#BAC8D3;rounded=1;" parent="KZuJ38PsoPJJvdqhNzPo-18" vertex="1">
          <mxGeometry x="31.13793103448279" width="148.8620689655172" height="25" as="geometry">
            <mxRectangle width="148.8620689655172" height="25" as="alternateBounds" />
          </mxGeometry>
        </mxCell>
        <mxCell id="KZuJ38PsoPJJvdqhNzPo-27" value="" style="shape=tableRow;horizontal=0;startSize=0;swimlaneHead=0;swimlaneBody=0;fillColor=none;collapsible=0;dropTarget=0;points=[[0,0.5],[1,0.5]];portConstraint=eastwest;top=0;left=0;right=0;bottom=0;fontColor=#EEEEEE;fontSize=12;strokeWidth=0.5;labelBackgroundColor=none;strokeColor=#BAC8D3;rounded=1;" parent="KZuJ38PsoPJJvdqhNzPo-14" vertex="1">
          <mxGeometry y="91" width="180" height="22" as="geometry" />
        </mxCell>
        <mxCell id="KZuJ38PsoPJJvdqhNzPo-28" value="FK" style="shape=partialRectangle;connectable=0;fillColor=none;top=0;left=0;bottom=0;right=0;editable=1;overflow=hidden;whiteSpace=wrap;html=1;fontColor=#EEEEEE;fontSize=12;strokeWidth=0.5;labelBackgroundColor=none;strokeColor=#BAC8D3;rounded=1;" parent="KZuJ38PsoPJJvdqhNzPo-27" vertex="1">
          <mxGeometry width="31.13793103448279" height="22" as="geometry">
            <mxRectangle width="31.13793103448279" height="22" as="alternateBounds" />
          </mxGeometry>
        </mxCell>
        <mxCell id="KZuJ38PsoPJJvdqhNzPo-29" value="variant_&lt;span style=&quot;background-color: transparent; color: light-dark(rgb(0, 0, 0), rgb(255, 255, 255));&quot;&gt;Id&lt;/span&gt;" style="shape=partialRectangle;connectable=0;fillColor=none;top=0;left=0;bottom=0;right=0;align=left;spacingLeft=6;overflow=hidden;whiteSpace=wrap;html=1;fontColor=#EEEEEE;fontSize=12;strokeWidth=0.5;labelBackgroundColor=none;strokeColor=#BAC8D3;rounded=1;" parent="KZuJ38PsoPJJvdqhNzPo-27" vertex="1">
          <mxGeometry x="31.13793103448279" width="148.8620689655172" height="22" as="geometry">
            <mxRectangle width="148.8620689655172" height="22" as="alternateBounds" />
          </mxGeometry>
        </mxCell>
        <mxCell id="KZuJ38PsoPJJvdqhNzPo-21" value="" style="shape=tableRow;horizontal=0;startSize=0;swimlaneHead=0;swimlaneBody=0;fillColor=none;collapsible=0;dropTarget=0;points=[[0,0.5],[1,0.5]];portConstraint=eastwest;top=0;left=0;right=0;bottom=0;fontColor=#EEEEEE;fontSize=12;strokeWidth=0.5;labelBackgroundColor=none;strokeColor=#BAC8D3;rounded=1;" parent="KZuJ38PsoPJJvdqhNzPo-14" vertex="1">
          <mxGeometry y="113" width="180" height="22" as="geometry" />
        </mxCell>
        <mxCell id="KZuJ38PsoPJJvdqhNzPo-22" value="" style="shape=partialRectangle;connectable=0;fillColor=none;top=0;left=0;bottom=0;right=0;editable=1;overflow=hidden;whiteSpace=wrap;html=1;fontColor=#EEEEEE;fontSize=12;strokeWidth=0.5;labelBackgroundColor=none;strokeColor=#BAC8D3;rounded=1;" parent="KZuJ38PsoPJJvdqhNzPo-21" vertex="1">
          <mxGeometry width="31.13793103448279" height="22" as="geometry">
            <mxRectangle width="31.13793103448279" height="22" as="alternateBounds" />
          </mxGeometry>
        </mxCell>
        <mxCell id="KZuJ38PsoPJJvdqhNzPo-23" value="statickKey" style="shape=partialRectangle;connectable=0;fillColor=none;top=0;left=0;bottom=0;right=0;align=left;spacingLeft=6;overflow=hidden;whiteSpace=wrap;html=1;fontColor=#EEEEEE;fontSize=12;strokeWidth=0.5;labelBackgroundColor=none;strokeColor=#BAC8D3;rounded=1;" parent="KZuJ38PsoPJJvdqhNzPo-21" vertex="1">
          <mxGeometry x="31.13793103448279" width="148.8620689655172" height="22" as="geometry">
            <mxRectangle width="148.8620689655172" height="22" as="alternateBounds" />
          </mxGeometry>
        </mxCell>
        <mxCell id="tHaSnj_AwQkWbdFXGDT--58" value="" style="shape=tableRow;horizontal=0;startSize=0;swimlaneHead=0;swimlaneBody=0;fillColor=none;collapsible=0;dropTarget=0;points=[[0,0.5],[1,0.5]];portConstraint=eastwest;top=0;left=0;right=0;bottom=0;fontColor=#EEEEEE;fontSize=12;strokeWidth=0.5;labelBackgroundColor=none;strokeColor=#BAC8D3;rounded=1;" parent="KZuJ38PsoPJJvdqhNzPo-14" vertex="1">
          <mxGeometry y="135" width="180" height="22" as="geometry" />
        </mxCell>
        <mxCell id="tHaSnj_AwQkWbdFXGDT--59" value="FK" style="shape=partialRectangle;connectable=0;fillColor=none;top=0;left=0;bottom=0;right=0;editable=1;overflow=hidden;whiteSpace=wrap;html=1;fontColor=#EEEEEE;fontSize=12;strokeWidth=0.5;labelBackgroundColor=none;strokeColor=#BAC8D3;rounded=1;" parent="tHaSnj_AwQkWbdFXGDT--58" vertex="1">
          <mxGeometry width="31.13793103448279" height="22" as="geometry">
            <mxRectangle width="31.13793103448279" height="22" as="alternateBounds" />
          </mxGeometry>
        </mxCell>
        <mxCell id="tHaSnj_AwQkWbdFXGDT--60" value="category_id" style="shape=partialRectangle;connectable=0;fillColor=none;top=0;left=0;bottom=0;right=0;align=left;spacingLeft=6;overflow=hidden;whiteSpace=wrap;html=1;fontColor=#EEEEEE;fontSize=12;strokeWidth=0.5;labelBackgroundColor=none;strokeColor=#BAC8D3;rounded=1;" parent="tHaSnj_AwQkWbdFXGDT--58" vertex="1">
          <mxGeometry x="31.13793103448279" width="148.8620689655172" height="22" as="geometry">
            <mxRectangle width="148.8620689655172" height="22" as="alternateBounds" />
          </mxGeometry>
        </mxCell>
        <mxCell id="KZuJ38PsoPJJvdqhNzPo-47" value="" style="edgeStyle=entityRelationEdgeStyle;fontSize=12;html=1;endArrow=ERoneToMany;rounded=1;labelBackgroundColor=none;strokeColor=#0B4D6A;fontColor=default;" parent="1" source="KZuJ38PsoPJJvdqhNzPo-2" target="KZuJ38PsoPJJvdqhNzPo-27" edge="1">
          <mxGeometry width="100" height="100" relative="1" as="geometry">
            <mxPoint x="1553" y="845" as="sourcePoint" />
            <mxPoint x="1653" y="745" as="targetPoint" />
            <Array as="points">
              <mxPoint x="1788" y="820" />
              <mxPoint x="1852" y="766" />
            </Array>
          </mxGeometry>
        </mxCell>
        <mxCell id="G5ED_mx72EiRFZ4uHJnc-1" value="" style="edgeStyle=entityRelationEdgeStyle;fontSize=12;html=1;endArrow=ERmany;rounded=1;labelBackgroundColor=none;strokeColor=#0B4D6A;fontColor=default;" parent="1" source="FsbxxfnnBqgwTSdRjxEj-369" target="FsbxxfnnBqgwTSdRjxEj-376" edge="1">
          <mxGeometry width="100" height="100" relative="1" as="geometry">
            <mxPoint x="1669" y="807" as="sourcePoint" />
            <mxPoint x="1769" y="707" as="targetPoint" />
          </mxGeometry>
        </mxCell>
        <mxCell id="G5ED_mx72EiRFZ4uHJnc-2" value="" style="edgeStyle=entityRelationEdgeStyle;fontSize=12;html=1;endArrow=ERmany;rounded=1;labelBackgroundColor=none;strokeColor=#0B4D6A;fontColor=default;" parent="1" source="U8u-r5qWbixyM0oDS7mE-15" target="FsbxxfnnBqgwTSdRjxEj-327" edge="1">
          <mxGeometry width="100" height="100" relative="1" as="geometry">
            <mxPoint x="957" y="569" as="sourcePoint" />
            <mxPoint x="1245" y="739" as="targetPoint" />
            <Array as="points">
              <mxPoint x="1019" y="565" />
              <mxPoint x="992" y="633" />
              <mxPoint x="1125" y="661" />
              <mxPoint x="967" y="648" />
              <mxPoint x="995" y="646" />
            </Array>
          </mxGeometry>
        </mxCell>
        <mxCell id="G5ED_mx72EiRFZ4uHJnc-3" value="" style="edgeStyle=entityRelationEdgeStyle;fontSize=12;html=1;endArrow=ERmandOne;startArrow=ERmandOne;rounded=1;labelBackgroundColor=none;strokeColor=#0B4D6A;fontColor=default;" parent="1" source="FsbxxfnnBqgwTSdRjxEj-230" target="FsbxxfnnBqgwTSdRjxEj-363" edge="1">
          <mxGeometry width="100" height="100" relative="1" as="geometry">
            <mxPoint x="1218" y="682" as="sourcePoint" />
            <mxPoint x="1318" y="582" as="targetPoint" />
          </mxGeometry>
        </mxCell>
        <mxCell id="G5ED_mx72EiRFZ4uHJnc-5" value="" style="edgeStyle=entityRelationEdgeStyle;fontSize=12;html=1;endArrow=ERmany;rounded=1;labelBackgroundColor=none;strokeColor=#0B4D6A;fontColor=default;" parent="1" source="W7pQTJgZ-b6TpAFAyF8u-41" target="W7pQTJgZ-b6TpAFAyF8u-12" edge="1">
          <mxGeometry width="100" height="100" relative="1" as="geometry">
            <mxPoint x="1218" y="663" as="sourcePoint" />
            <mxPoint x="1318" y="563" as="targetPoint" />
          </mxGeometry>
        </mxCell>
        <mxCell id="G5ED_mx72EiRFZ4uHJnc-6" value="" style="edgeStyle=entityRelationEdgeStyle;fontSize=12;html=1;endArrow=ERmany;rounded=1;labelBackgroundColor=none;strokeColor=#0B4D6A;fontColor=default;" parent="1" source="FsbxxfnnBqgwTSdRjxEj-402" target="FsbxxfnnBqgwTSdRjxEj-385" edge="1">
          <mxGeometry width="100" height="100" relative="1" as="geometry">
            <mxPoint x="300" y="1077" as="sourcePoint" />
            <mxPoint x="1667" y="883" as="targetPoint" />
          </mxGeometry>
        </mxCell>
        <mxCell id="G5ED_mx72EiRFZ4uHJnc-13" value="" style="edgeStyle=entityRelationEdgeStyle;fontSize=12;html=1;endArrow=ERmandOne;startArrow=ERmandOne;rounded=1;labelBackgroundColor=none;strokeColor=#0B4D6A;fontColor=default;" parent="1" source="U8u-r5qWbixyM0oDS7mE-15" target="W7pQTJgZ-b6TpAFAyF8u-5" edge="1">
          <mxGeometry width="100" height="100" relative="1" as="geometry">
            <mxPoint x="1246" y="785" as="sourcePoint" />
            <mxPoint x="1346" y="685" as="targetPoint" />
          </mxGeometry>
        </mxCell>
        <mxCell id="tHaSnj_AwQkWbdFXGDT--1" value="" style="edgeStyle=entityRelationEdgeStyle;fontSize=12;html=1;endArrow=ERoneToMany;rounded=1;labelBackgroundColor=none;strokeColor=#0B4D6A;fontColor=default;" parent="1" source="W7pQTJgZ-b6TpAFAyF8u-65" target="FsbxxfnnBqgwTSdRjxEj-224" edge="1">
          <mxGeometry width="100" height="100" relative="1" as="geometry">
            <mxPoint x="1984" y="701" as="sourcePoint" />
            <mxPoint x="2084" y="601" as="targetPoint" />
          </mxGeometry>
        </mxCell>
        <mxCell id="tHaSnj_AwQkWbdFXGDT--4" value="" style="edgeStyle=entityRelationEdgeStyle;fontSize=12;html=1;endArrow=ERmany;rounded=1;labelBackgroundColor=none;strokeColor=#0B4D6A;fontColor=default;" parent="1" source="W7pQTJgZ-b6TpAFAyF8u-65" target="tHaSnj_AwQkWbdFXGDT--58" edge="1">
          <mxGeometry width="100" height="100" relative="1" as="geometry">
            <mxPoint x="1886" y="649" as="sourcePoint" />
            <mxPoint x="1986" y="549" as="targetPoint" />
            <Array as="points">
              <mxPoint x="2027" y="483" />
              <mxPoint x="2019" y="475" />
            </Array>
          </mxGeometry>
        </mxCell>
        <mxCell id="tHaSnj_AwQkWbdFXGDT--5" value="" style="edgeStyle=entityRelationEdgeStyle;fontSize=12;html=1;endArrow=ERmandOne;startArrow=ERmandOne;rounded=1;labelBackgroundColor=none;strokeColor=#0B4D6A;fontColor=default;" parent="1" source="U8u-r5qWbixyM0oDS7mE-15" target="FsbxxfnnBqgwTSdRjxEj-305" edge="1">
          <mxGeometry width="100" height="100" relative="1" as="geometry">
            <mxPoint x="1455" y="658" as="sourcePoint" />
            <mxPoint x="1555" y="558" as="targetPoint" />
          </mxGeometry>
        </mxCell>
        <mxCell id="FsbxxfnnBqgwTSdRjxEj-415" value="Vendor Products&amp;nbsp;&lt;br&gt;/ Product Item" style="shape=table;startSize=40;container=1;collapsible=1;childLayout=tableLayout;fixedRows=1;rowLines=0;fontStyle=1;align=center;resizeLast=1;html=1;whiteSpace=wrap;strokeWidth=0.5;labelBackgroundColor=none;fillColor=#09555B;strokeColor=#BAC8D3;fontColor=#EEEEEE;rounded=1;" parent="1" vertex="1">
          <mxGeometry x="1927" y="481" width="168" height="238.49999999999983" as="geometry" />
        </mxCell>
        <mxCell id="FsbxxfnnBqgwTSdRjxEj-416" value="" style="shape=tableRow;horizontal=0;startSize=0;swimlaneHead=0;swimlaneBody=0;fillColor=none;collapsible=0;dropTarget=0;points=[[0,0.5],[1,0.5]];portConstraint=eastwest;top=0;left=0;right=0;bottom=0;html=1;strokeWidth=0.5;labelBackgroundColor=none;strokeColor=#BAC8D3;fontColor=#EEEEEE;rounded=1;" parent="FsbxxfnnBqgwTSdRjxEj-415" vertex="1">
          <mxGeometry y="40" width="168" height="30" as="geometry" />
        </mxCell>
        <mxCell id="FsbxxfnnBqgwTSdRjxEj-417" value="PK" style="shape=partialRectangle;connectable=0;fillColor=none;top=0;left=0;bottom=0;right=0;fontStyle=1;overflow=hidden;html=1;whiteSpace=wrap;strokeWidth=0.5;labelBackgroundColor=none;strokeColor=#BAC8D3;fontColor=#EEEEEE;rounded=1;" parent="FsbxxfnnBqgwTSdRjxEj-416" vertex="1">
          <mxGeometry width="50.75" height="30" as="geometry">
            <mxRectangle width="50.75" height="30" as="alternateBounds" />
          </mxGeometry>
        </mxCell>
        <mxCell id="FsbxxfnnBqgwTSdRjxEj-418" value="_id" style="shape=partialRectangle;connectable=0;fillColor=none;top=0;left=0;bottom=0;right=0;align=left;spacingLeft=6;fontStyle=5;overflow=hidden;html=1;whiteSpace=wrap;strokeWidth=0.5;labelBackgroundColor=none;strokeColor=#BAC8D3;fontColor=#EEEEEE;rounded=1;" parent="FsbxxfnnBqgwTSdRjxEj-416" vertex="1">
          <mxGeometry x="50.75" width="117.25" height="30" as="geometry">
            <mxRectangle width="117.25" height="30" as="alternateBounds" />
          </mxGeometry>
        </mxCell>
        <mxCell id="FsbxxfnnBqgwTSdRjxEj-419" value="" style="shape=tableRow;horizontal=0;startSize=0;swimlaneHead=0;swimlaneBody=0;fillColor=none;collapsible=0;dropTarget=0;points=[[0,0.5],[1,0.5]];portConstraint=eastwest;top=0;left=0;right=0;bottom=1;html=1;strokeWidth=0.5;labelBackgroundColor=none;strokeColor=#BAC8D3;fontColor=#EEEEEE;rounded=1;" parent="FsbxxfnnBqgwTSdRjxEj-415" vertex="1">
          <mxGeometry y="70" width="168" height="20" as="geometry" />
        </mxCell>
        <mxCell id="FsbxxfnnBqgwTSdRjxEj-420" value="FK" style="shape=partialRectangle;connectable=0;fillColor=none;top=0;left=0;bottom=0;right=0;fontStyle=1;overflow=hidden;html=1;whiteSpace=wrap;strokeWidth=0.5;labelBackgroundColor=none;strokeColor=#BAC8D3;fontColor=#EEEEEE;rounded=1;" parent="FsbxxfnnBqgwTSdRjxEj-419" vertex="1">
          <mxGeometry width="50.75" height="20" as="geometry">
            <mxRectangle width="50.75" height="20" as="alternateBounds" />
          </mxGeometry>
        </mxCell>
        <mxCell id="FsbxxfnnBqgwTSdRjxEj-421" value="vendorId" style="shape=partialRectangle;connectable=0;fillColor=none;top=0;left=0;bottom=0;right=0;align=left;spacingLeft=6;fontStyle=5;overflow=hidden;html=1;whiteSpace=wrap;strokeWidth=0.5;labelBackgroundColor=none;strokeColor=#BAC8D3;fontColor=#EEEEEE;rounded=1;" parent="FsbxxfnnBqgwTSdRjxEj-419" vertex="1">
          <mxGeometry x="50.75" width="117.25" height="20" as="geometry">
            <mxRectangle width="117.25" height="20" as="alternateBounds" />
          </mxGeometry>
        </mxCell>
        <mxCell id="FsbxxfnnBqgwTSdRjxEj-422" value="" style="shape=tableRow;horizontal=0;startSize=0;swimlaneHead=0;swimlaneBody=0;fillColor=none;collapsible=0;dropTarget=0;points=[[0,0.5],[1,0.5]];portConstraint=eastwest;top=0;left=0;right=0;bottom=0;html=1;strokeWidth=0.5;labelBackgroundColor=none;strokeColor=#BAC8D3;fontColor=#EEEEEE;rounded=1;" parent="FsbxxfnnBqgwTSdRjxEj-415" vertex="1">
          <mxGeometry y="90" width="168" height="30" as="geometry" />
        </mxCell>
        <mxCell id="FsbxxfnnBqgwTSdRjxEj-423" value="" style="shape=partialRectangle;connectable=0;fillColor=none;top=0;left=0;bottom=0;right=0;editable=1;overflow=hidden;html=1;whiteSpace=wrap;strokeWidth=0.5;labelBackgroundColor=none;strokeColor=#BAC8D3;fontColor=#EEEEEE;rounded=1;" parent="FsbxxfnnBqgwTSdRjxEj-422" vertex="1">
          <mxGeometry width="50.75" height="30" as="geometry">
            <mxRectangle width="50.75" height="30" as="alternateBounds" />
          </mxGeometry>
        </mxCell>
        <mxCell id="FsbxxfnnBqgwTSdRjxEj-424" value="price" style="shape=partialRectangle;connectable=0;fillColor=none;top=0;left=0;bottom=0;right=0;align=left;spacingLeft=6;overflow=hidden;html=1;whiteSpace=wrap;strokeWidth=0.5;labelBackgroundColor=none;strokeColor=#BAC8D3;fontColor=#EEEEEE;rounded=1;" parent="FsbxxfnnBqgwTSdRjxEj-422" vertex="1">
          <mxGeometry x="50.75" width="117.25" height="30" as="geometry">
            <mxRectangle width="117.25" height="30" as="alternateBounds" />
          </mxGeometry>
        </mxCell>
        <mxCell id="FsbxxfnnBqgwTSdRjxEj-425" value="" style="shape=tableRow;horizontal=0;startSize=0;swimlaneHead=0;swimlaneBody=0;fillColor=none;collapsible=0;dropTarget=0;points=[[0,0.5],[1,0.5]];portConstraint=eastwest;top=0;left=0;right=0;bottom=0;html=1;strokeWidth=0.5;labelBackgroundColor=none;strokeColor=#BAC8D3;fontColor=#EEEEEE;rounded=1;" parent="FsbxxfnnBqgwTSdRjxEj-415" vertex="1">
          <mxGeometry y="120" width="168" height="30" as="geometry" />
        </mxCell>
        <mxCell id="FsbxxfnnBqgwTSdRjxEj-426" value="" style="shape=partialRectangle;connectable=0;fillColor=none;top=0;left=0;bottom=0;right=0;editable=1;overflow=hidden;html=1;whiteSpace=wrap;strokeWidth=0.5;labelBackgroundColor=none;strokeColor=#BAC8D3;fontColor=#EEEEEE;rounded=1;" parent="FsbxxfnnBqgwTSdRjxEj-425" vertex="1">
          <mxGeometry width="50.75" height="30" as="geometry">
            <mxRectangle width="50.75" height="30" as="alternateBounds" />
          </mxGeometry>
        </mxCell>
        <mxCell id="FsbxxfnnBqgwTSdRjxEj-427" value="quantity" style="shape=partialRectangle;connectable=0;fillColor=none;top=0;left=0;bottom=0;right=0;align=left;spacingLeft=6;overflow=hidden;html=1;whiteSpace=wrap;strokeWidth=0.5;labelBackgroundColor=none;strokeColor=#BAC8D3;fontColor=#EEEEEE;rounded=1;" parent="FsbxxfnnBqgwTSdRjxEj-425" vertex="1">
          <mxGeometry x="50.75" width="117.25" height="30" as="geometry">
            <mxRectangle width="117.25" height="30" as="alternateBounds" />
          </mxGeometry>
        </mxCell>
        <mxCell id="FsbxxfnnBqgwTSdRjxEj-428" value="" style="shape=tableRow;horizontal=0;startSize=0;swimlaneHead=0;swimlaneBody=0;fillColor=none;collapsible=0;dropTarget=0;points=[[0,0.5],[1,0.5]];portConstraint=eastwest;top=0;left=0;right=0;bottom=0;html=1;strokeWidth=0.5;labelBackgroundColor=none;strokeColor=#BAC8D3;fontColor=#EEEEEE;rounded=1;" parent="FsbxxfnnBqgwTSdRjxEj-415" vertex="1">
          <mxGeometry y="150" width="168" height="30" as="geometry" />
        </mxCell>
        <mxCell id="FsbxxfnnBqgwTSdRjxEj-429" value="FK" style="shape=partialRectangle;connectable=0;fillColor=none;top=0;left=0;bottom=0;right=0;editable=1;overflow=hidden;html=1;whiteSpace=wrap;strokeWidth=0.5;labelBackgroundColor=none;strokeColor=#BAC8D3;fontColor=#EEEEEE;rounded=1;" parent="FsbxxfnnBqgwTSdRjxEj-428" vertex="1">
          <mxGeometry width="50.75" height="30" as="geometry">
            <mxRectangle width="50.75" height="30" as="alternateBounds" />
          </mxGeometry>
        </mxCell>
        <mxCell id="FsbxxfnnBqgwTSdRjxEj-430" value="product_Id" style="shape=partialRectangle;connectable=0;fillColor=none;top=0;left=0;bottom=0;right=0;align=left;spacingLeft=6;overflow=hidden;html=1;whiteSpace=wrap;strokeWidth=0.5;labelBackgroundColor=none;strokeColor=#BAC8D3;fontColor=#EEEEEE;rounded=1;" parent="FsbxxfnnBqgwTSdRjxEj-428" vertex="1">
          <mxGeometry x="50.75" width="117.25" height="30" as="geometry">
            <mxRectangle width="117.25" height="30" as="alternateBounds" />
          </mxGeometry>
        </mxCell>
        <mxCell id="tHaSnj_AwQkWbdFXGDT--6" value="" style="shape=tableRow;horizontal=0;startSize=0;swimlaneHead=0;swimlaneBody=0;fillColor=none;collapsible=0;dropTarget=0;points=[[0,0.5],[1,0.5]];portConstraint=eastwest;top=0;left=0;right=0;bottom=0;html=1;strokeWidth=0.5;labelBackgroundColor=none;strokeColor=#BAC8D3;fontColor=#EEEEEE;rounded=1;" parent="FsbxxfnnBqgwTSdRjxEj-415" vertex="1">
          <mxGeometry y="180" width="168" height="28" as="geometry" />
        </mxCell>
        <mxCell id="tHaSnj_AwQkWbdFXGDT--7" value="FK" style="shape=partialRectangle;connectable=0;fillColor=none;top=0;left=0;bottom=0;right=0;editable=1;overflow=hidden;html=1;whiteSpace=wrap;strokeWidth=0.5;labelBackgroundColor=none;strokeColor=#BAC8D3;fontColor=#EEEEEE;rounded=1;" parent="tHaSnj_AwQkWbdFXGDT--6" vertex="1">
          <mxGeometry width="50.75" height="28" as="geometry">
            <mxRectangle width="50.75" height="28" as="alternateBounds" />
          </mxGeometry>
        </mxCell>
        <mxCell id="tHaSnj_AwQkWbdFXGDT--8" value="variant_detail_ids" style="shape=partialRectangle;connectable=0;fillColor=none;top=0;left=0;bottom=0;right=0;align=left;spacingLeft=6;overflow=hidden;html=1;whiteSpace=wrap;strokeWidth=0.5;labelBackgroundColor=none;strokeColor=#BAC8D3;fontColor=#EEEEEE;rounded=1;" parent="tHaSnj_AwQkWbdFXGDT--6" vertex="1">
          <mxGeometry x="50.75" width="117.25" height="28" as="geometry">
            <mxRectangle width="117.25" height="28" as="alternateBounds" />
          </mxGeometry>
        </mxCell>
        <mxCell id="FsbxxfnnBqgwTSdRjxEj-431" value="" style="shape=tableRow;horizontal=0;startSize=0;swimlaneHead=0;swimlaneBody=0;fillColor=none;collapsible=0;dropTarget=0;points=[[0,0.5],[1,0.5]];portConstraint=eastwest;top=0;left=0;right=0;bottom=0;html=1;strokeWidth=0.5;labelBackgroundColor=none;strokeColor=#BAC8D3;fontColor=#EEEEEE;rounded=1;" parent="FsbxxfnnBqgwTSdRjxEj-415" vertex="1">
          <mxGeometry y="208" width="168" height="29" as="geometry" />
        </mxCell>
        <mxCell id="FsbxxfnnBqgwTSdRjxEj-432" value="" style="shape=partialRectangle;connectable=0;fillColor=none;top=0;left=0;bottom=0;right=0;editable=1;overflow=hidden;html=1;whiteSpace=wrap;strokeWidth=0.5;labelBackgroundColor=none;strokeColor=#BAC8D3;fontColor=#EEEEEE;rounded=1;" parent="FsbxxfnnBqgwTSdRjxEj-431" vertex="1">
          <mxGeometry width="50.75" height="29" as="geometry">
            <mxRectangle width="50.75" height="29" as="alternateBounds" />
          </mxGeometry>
        </mxCell>
        <mxCell id="FsbxxfnnBqgwTSdRjxEj-433" value="sale price" style="shape=partialRectangle;connectable=0;fillColor=none;top=0;left=0;bottom=0;right=0;align=left;spacingLeft=6;overflow=hidden;html=1;whiteSpace=wrap;strokeWidth=0.5;labelBackgroundColor=none;strokeColor=#BAC8D3;fontColor=#EEEEEE;rounded=1;" parent="FsbxxfnnBqgwTSdRjxEj-431" vertex="1">
          <mxGeometry x="50.75" width="117.25" height="29" as="geometry">
            <mxRectangle width="117.25" height="29" as="alternateBounds" />
          </mxGeometry>
        </mxCell>
        <mxCell id="tHaSnj_AwQkWbdFXGDT--31" value="variant-products" style="shape=table;startSize=40;container=1;collapsible=1;childLayout=tableLayout;fixedRows=1;rowLines=0;fontStyle=1;align=center;resizeLast=1;html=1;whiteSpace=wrap;strokeWidth=0.5;labelBackgroundColor=none;fillColor=#09555B;strokeColor=#BAC8D3;fontColor=#EEEEEE;rounded=1;" parent="1" vertex="1">
          <mxGeometry x="1647" y="475" width="168" height="129.49999999999983" as="geometry" />
        </mxCell>
        <mxCell id="tHaSnj_AwQkWbdFXGDT--32" value="" style="shape=tableRow;horizontal=0;startSize=0;swimlaneHead=0;swimlaneBody=0;fillColor=none;collapsible=0;dropTarget=0;points=[[0,0.5],[1,0.5]];portConstraint=eastwest;top=0;left=0;right=0;bottom=0;html=1;strokeWidth=0.5;labelBackgroundColor=none;strokeColor=#BAC8D3;fontColor=#EEEEEE;rounded=1;" parent="tHaSnj_AwQkWbdFXGDT--31" vertex="1">
          <mxGeometry y="40" width="168" height="30" as="geometry" />
        </mxCell>
        <mxCell id="tHaSnj_AwQkWbdFXGDT--33" value="PK" style="shape=partialRectangle;connectable=0;fillColor=none;top=0;left=0;bottom=0;right=0;fontStyle=1;overflow=hidden;html=1;whiteSpace=wrap;strokeWidth=0.5;labelBackgroundColor=none;strokeColor=#BAC8D3;fontColor=#EEEEEE;rounded=1;" parent="tHaSnj_AwQkWbdFXGDT--32" vertex="1">
          <mxGeometry width="50.75" height="30" as="geometry">
            <mxRectangle width="50.75" height="30" as="alternateBounds" />
          </mxGeometry>
        </mxCell>
        <mxCell id="tHaSnj_AwQkWbdFXGDT--34" value="_id" style="shape=partialRectangle;connectable=0;fillColor=none;top=0;left=0;bottom=0;right=0;align=left;spacingLeft=6;fontStyle=5;overflow=hidden;html=1;whiteSpace=wrap;strokeWidth=0.5;labelBackgroundColor=none;strokeColor=#BAC8D3;fontColor=#EEEEEE;rounded=1;" parent="tHaSnj_AwQkWbdFXGDT--32" vertex="1">
          <mxGeometry x="50.75" width="117.25" height="30" as="geometry">
            <mxRectangle width="117.25" height="30" as="alternateBounds" />
          </mxGeometry>
        </mxCell>
        <mxCell id="tHaSnj_AwQkWbdFXGDT--47" value="" style="shape=tableRow;horizontal=0;startSize=0;swimlaneHead=0;swimlaneBody=0;fillColor=none;collapsible=0;dropTarget=0;points=[[0,0.5],[1,0.5]];portConstraint=eastwest;top=0;left=0;right=0;bottom=0;html=1;strokeWidth=0.5;labelBackgroundColor=none;strokeColor=#BAC8D3;fontColor=#EEEEEE;rounded=1;" parent="tHaSnj_AwQkWbdFXGDT--31" vertex="1">
          <mxGeometry y="70" width="168" height="28" as="geometry" />
        </mxCell>
        <mxCell id="tHaSnj_AwQkWbdFXGDT--48" value="FK" style="shape=partialRectangle;connectable=0;fillColor=none;top=0;left=0;bottom=0;right=0;editable=1;overflow=hidden;html=1;whiteSpace=wrap;strokeWidth=0.5;labelBackgroundColor=none;strokeColor=#BAC8D3;fontColor=#EEEEEE;rounded=1;" parent="tHaSnj_AwQkWbdFXGDT--47" vertex="1">
          <mxGeometry width="50.75" height="28" as="geometry">
            <mxRectangle width="50.75" height="28" as="alternateBounds" />
          </mxGeometry>
        </mxCell>
        <mxCell id="tHaSnj_AwQkWbdFXGDT--49" value="variant_detail_id" style="shape=partialRectangle;connectable=0;fillColor=none;top=0;left=0;bottom=0;right=0;align=left;spacingLeft=6;overflow=hidden;html=1;whiteSpace=wrap;strokeWidth=0.5;labelBackgroundColor=none;strokeColor=#BAC8D3;fontColor=#EEEEEE;rounded=1;" parent="tHaSnj_AwQkWbdFXGDT--47" vertex="1">
          <mxGeometry x="50.75" width="117.25" height="28" as="geometry">
            <mxRectangle width="117.25" height="28" as="alternateBounds" />
          </mxGeometry>
        </mxCell>
        <mxCell id="tHaSnj_AwQkWbdFXGDT--44" value="" style="shape=tableRow;horizontal=0;startSize=0;swimlaneHead=0;swimlaneBody=0;fillColor=none;collapsible=0;dropTarget=0;points=[[0,0.5],[1,0.5]];portConstraint=eastwest;top=0;left=0;right=0;bottom=0;html=1;strokeWidth=0.5;labelBackgroundColor=none;strokeColor=#BAC8D3;fontColor=#EEEEEE;rounded=1;" parent="tHaSnj_AwQkWbdFXGDT--31" vertex="1">
          <mxGeometry y="98" width="168" height="30" as="geometry" />
        </mxCell>
        <mxCell id="tHaSnj_AwQkWbdFXGDT--45" value="FK" style="shape=partialRectangle;connectable=0;fillColor=none;top=0;left=0;bottom=0;right=0;editable=1;overflow=hidden;html=1;whiteSpace=wrap;strokeWidth=0.5;labelBackgroundColor=none;strokeColor=#BAC8D3;fontColor=#EEEEEE;rounded=1;" parent="tHaSnj_AwQkWbdFXGDT--44" vertex="1">
          <mxGeometry width="50.75" height="30" as="geometry">
            <mxRectangle width="50.75" height="30" as="alternateBounds" />
          </mxGeometry>
        </mxCell>
        <mxCell id="tHaSnj_AwQkWbdFXGDT--46" value="product_Item_&lt;span style=&quot;background-color: transparent; color: light-dark(rgb(0, 0, 0), rgb(255, 255, 255));&quot;&gt;Id&lt;/span&gt;" style="shape=partialRectangle;connectable=0;fillColor=none;top=0;left=0;bottom=0;right=0;align=left;spacingLeft=6;overflow=hidden;html=1;whiteSpace=wrap;strokeWidth=0.5;labelBackgroundColor=none;strokeColor=#BAC8D3;fontColor=#EEEEEE;rounded=1;" parent="tHaSnj_AwQkWbdFXGDT--44" vertex="1">
          <mxGeometry x="50.75" width="117.25" height="30" as="geometry">
            <mxRectangle width="117.25" height="30" as="alternateBounds" />
          </mxGeometry>
        </mxCell>
        <mxCell id="tHaSnj_AwQkWbdFXGDT--53" value="" style="edgeStyle=entityRelationEdgeStyle;fontSize=12;html=1;endArrow=ERmany;rounded=1;labelBackgroundColor=none;strokeColor=#0B4D6A;fontColor=default;" parent="1" source="FsbxxfnnBqgwTSdRjxEj-416" target="tHaSnj_AwQkWbdFXGDT--44" edge="1">
          <mxGeometry width="100" height="100" relative="1" as="geometry">
            <mxPoint x="1811" y="839.25" as="sourcePoint" />
            <mxPoint x="1911" y="739.25" as="targetPoint" />
          </mxGeometry>
        </mxCell>
        <mxCell id="tHaSnj_AwQkWbdFXGDT--54" value="" style="edgeStyle=entityRelationEdgeStyle;fontSize=12;html=1;endArrow=ERoneToMany;rounded=1;labelBackgroundColor=none;strokeColor=#0B4D6A;fontColor=default;" parent="1" source="KZuJ38PsoPJJvdqhNzPo-15" target="tHaSnj_AwQkWbdFXGDT--47" edge="1">
          <mxGeometry width="100" height="100" relative="1" as="geometry">
            <mxPoint x="1251" y="615" as="sourcePoint" />
            <mxPoint x="1351" y="515" as="targetPoint" />
          </mxGeometry>
        </mxCell>
        <mxCell id="tHaSnj_AwQkWbdFXGDT--55" value="" style="edgeStyle=entityRelationEdgeStyle;fontSize=12;html=1;endArrow=ERoneToMany;rounded=1;labelBackgroundColor=none;strokeColor=#0B4D6A;fontColor=default;" parent="1" source="U8u-r5qWbixyM0oDS7mE-2" target="FsbxxfnnBqgwTSdRjxEj-428" edge="1">
          <mxGeometry width="100" height="100" relative="1" as="geometry">
            <mxPoint x="1620" y="617" as="sourcePoint" />
            <mxPoint x="1720" y="517" as="targetPoint" />
          </mxGeometry>
        </mxCell>
        <mxCell id="tHaSnj_AwQkWbdFXGDT--56" value="" style="edgeStyle=entityRelationEdgeStyle;fontSize=12;html=1;endArrow=ERmandOne;startArrow=ERmandOne;rounded=1;labelBackgroundColor=none;strokeColor=#0B4D6A;fontColor=default;" parent="1" source="FsbxxfnnBqgwTSdRjxEj-302" target="vMKdTskpqUzDpkchV1Ob-5" edge="1">
          <mxGeometry width="100" height="100" relative="1" as="geometry">
            <mxPoint x="1357" y="620.75" as="sourcePoint" />
            <mxPoint x="1569" y="656" as="targetPoint" />
          </mxGeometry>
        </mxCell>
        <mxCell id="tHaSnj_AwQkWbdFXGDT--57" value="" style="edgeStyle=entityRelationEdgeStyle;fontSize=12;html=1;endArrow=ERmandOne;startArrow=ERmandOne;rounded=1;labelBackgroundColor=none;strokeColor=#0B4D6A;fontColor=default;" parent="1" source="W7pQTJgZ-b6TpAFAyF8u-2" target="vMKdTskpqUzDpkchV1Ob-18" edge="1">
          <mxGeometry width="100" height="100" relative="1" as="geometry">
            <mxPoint x="1372" y="840" as="sourcePoint" />
            <mxPoint x="1587" y="780" as="targetPoint" />
          </mxGeometry>
        </mxCell>
        <mxCell id="nl1nnygOUxZhwJREU8Xv-1" value="Order status" style="shape=table;startSize=40;container=1;collapsible=1;childLayout=tableLayout;fixedRows=1;rowLines=0;fontStyle=1;align=center;resizeLast=1;html=1;whiteSpace=wrap;strokeWidth=0.5;labelBackgroundColor=none;fillColor=#09555B;strokeColor=#BAC8D3;fontColor=#EEEEEE;rounded=1;" parent="1" vertex="1">
          <mxGeometry x="1641" y="309" width="168" height="100" as="geometry" />
        </mxCell>
        <mxCell id="nl1nnygOUxZhwJREU8Xv-5" value="" style="shape=tableRow;horizontal=0;startSize=0;swimlaneHead=0;swimlaneBody=0;fillColor=none;collapsible=0;dropTarget=0;points=[[0,0.5],[1,0.5]];portConstraint=eastwest;top=0;left=0;right=0;bottom=1;html=1;strokeWidth=0.5;labelBackgroundColor=none;strokeColor=#BAC8D3;fontColor=#EEEEEE;rounded=1;" parent="nl1nnygOUxZhwJREU8Xv-1" vertex="1">
          <mxGeometry y="40" width="168" height="30" as="geometry" />
        </mxCell>
        <mxCell id="nl1nnygOUxZhwJREU8Xv-6" value="FK" style="shape=partialRectangle;connectable=0;fillColor=none;top=0;left=0;bottom=0;right=0;fontStyle=1;overflow=hidden;html=1;whiteSpace=wrap;strokeWidth=0.5;labelBackgroundColor=none;strokeColor=#BAC8D3;fontColor=#EEEEEE;rounded=1;" parent="nl1nnygOUxZhwJREU8Xv-5" vertex="1">
          <mxGeometry width="50.75" height="30" as="geometry">
            <mxRectangle width="50.75" height="30" as="alternateBounds" />
          </mxGeometry>
        </mxCell>
        <mxCell id="nl1nnygOUxZhwJREU8Xv-7" value="_id" style="shape=partialRectangle;connectable=0;fillColor=none;top=0;left=0;bottom=0;right=0;align=left;spacingLeft=6;fontStyle=5;overflow=hidden;html=1;whiteSpace=wrap;strokeWidth=0.5;labelBackgroundColor=none;strokeColor=#BAC8D3;fontColor=#EEEEEE;rounded=1;" parent="nl1nnygOUxZhwJREU8Xv-5" vertex="1">
          <mxGeometry x="50.75" width="117.25" height="30" as="geometry">
            <mxRectangle width="117.25" height="30" as="alternateBounds" />
          </mxGeometry>
        </mxCell>
        <mxCell id="vMKdTskpqUzDpkchV1Ob-35" value="" style="shape=tableRow;horizontal=0;startSize=0;swimlaneHead=0;swimlaneBody=0;fillColor=none;collapsible=0;dropTarget=0;points=[[0,0.5],[1,0.5]];portConstraint=eastwest;top=0;left=0;right=0;bottom=0;html=1;strokeWidth=0.5;labelBackgroundColor=none;strokeColor=#BAC8D3;fontColor=#EEEEEE;rounded=1;" parent="nl1nnygOUxZhwJREU8Xv-1" vertex="1">
          <mxGeometry y="70" width="168" height="30" as="geometry" />
        </mxCell>
        <mxCell id="vMKdTskpqUzDpkchV1Ob-36" value="" style="shape=partialRectangle;connectable=0;fillColor=none;top=0;left=0;bottom=0;right=0;editable=1;overflow=hidden;html=1;whiteSpace=wrap;strokeWidth=0.5;labelBackgroundColor=none;strokeColor=#BAC8D3;fontColor=#EEEEEE;rounded=1;" parent="vMKdTskpqUzDpkchV1Ob-35" vertex="1">
          <mxGeometry width="50.75" height="30" as="geometry">
            <mxRectangle width="50.75" height="30" as="alternateBounds" />
          </mxGeometry>
        </mxCell>
        <mxCell id="vMKdTskpqUzDpkchV1Ob-37" value="title" style="shape=partialRectangle;connectable=0;fillColor=none;top=0;left=0;bottom=0;right=0;align=left;spacingLeft=6;overflow=hidden;html=1;whiteSpace=wrap;strokeWidth=0.5;labelBackgroundColor=none;strokeColor=#BAC8D3;fontColor=#EEEEEE;rounded=1;" parent="vMKdTskpqUzDpkchV1Ob-35" vertex="1">
          <mxGeometry x="50.75" width="117.25" height="30" as="geometry">
            <mxRectangle width="117.25" height="30" as="alternateBounds" />
          </mxGeometry>
        </mxCell>
        <mxCell id="nl1nnygOUxZhwJREU8Xv-17" value="Orders" style="shape=table;startSize=39;container=1;collapsible=1;childLayout=tableLayout;fixedRows=1;rowLines=0;fontStyle=1;align=center;resizeLast=1;html=1;whiteSpace=wrap;strokeWidth=0.5;labelBackgroundColor=none;fillColor=#09555B;strokeColor=#BAC8D3;fontColor=#EEEEEE;rounded=1;" parent="1" vertex="1">
          <mxGeometry x="1332" y="311" width="190.23" height="173.25" as="geometry" />
        </mxCell>
        <mxCell id="nl1nnygOUxZhwJREU8Xv-21" value="" style="shape=tableRow;horizontal=0;startSize=0;swimlaneHead=0;swimlaneBody=0;fillColor=none;collapsible=0;dropTarget=0;points=[[0,0.5],[1,0.5]];portConstraint=eastwest;top=0;left=0;right=0;bottom=1;html=1;strokeWidth=0.5;labelBackgroundColor=none;strokeColor=#BAC8D3;fontColor=#EEEEEE;rounded=1;" parent="nl1nnygOUxZhwJREU8Xv-17" vertex="1">
          <mxGeometry y="39" width="190.23" height="31" as="geometry" />
        </mxCell>
        <mxCell id="nl1nnygOUxZhwJREU8Xv-22" value="PK" style="shape=partialRectangle;connectable=0;fillColor=none;top=0;left=0;bottom=0;right=0;fontStyle=1;overflow=hidden;html=1;whiteSpace=wrap;strokeWidth=0.5;labelBackgroundColor=none;strokeColor=#BAC8D3;fontColor=#EEEEEE;rounded=1;" parent="nl1nnygOUxZhwJREU8Xv-21" vertex="1">
          <mxGeometry width="40.227272727272975" height="31" as="geometry">
            <mxRectangle width="40.227272727272975" height="31" as="alternateBounds" />
          </mxGeometry>
        </mxCell>
        <mxCell id="nl1nnygOUxZhwJREU8Xv-23" value="_id" style="shape=partialRectangle;connectable=0;fillColor=none;top=0;left=0;bottom=0;right=0;align=left;spacingLeft=6;fontStyle=5;overflow=hidden;html=1;whiteSpace=wrap;strokeWidth=0.5;labelBackgroundColor=none;strokeColor=#BAC8D3;fontColor=#EEEEEE;rounded=1;" parent="nl1nnygOUxZhwJREU8Xv-21" vertex="1">
          <mxGeometry x="40.227272727272975" width="150.00272727272701" height="31" as="geometry">
            <mxRectangle width="150.00272727272701" height="31" as="alternateBounds" />
          </mxGeometry>
        </mxCell>
        <mxCell id="nl1nnygOUxZhwJREU8Xv-24" value="" style="shape=tableRow;horizontal=0;startSize=0;swimlaneHead=0;swimlaneBody=0;fillColor=none;collapsible=0;dropTarget=0;points=[[0,0.5],[1,0.5]];portConstraint=eastwest;top=0;left=0;right=0;bottom=0;html=1;strokeWidth=0.5;labelBackgroundColor=none;strokeColor=#BAC8D3;fontColor=#EEEEEE;rounded=1;" parent="nl1nnygOUxZhwJREU8Xv-17" vertex="1">
          <mxGeometry y="70" width="190.23" height="30" as="geometry" />
        </mxCell>
        <mxCell id="nl1nnygOUxZhwJREU8Xv-25" value="FK" style="shape=partialRectangle;connectable=0;fillColor=none;top=0;left=0;bottom=0;right=0;editable=1;overflow=hidden;html=1;whiteSpace=wrap;strokeWidth=0.5;labelBackgroundColor=none;strokeColor=#BAC8D3;fontColor=#EEEEEE;rounded=1;" parent="nl1nnygOUxZhwJREU8Xv-24" vertex="1">
          <mxGeometry width="40.227272727272975" height="30" as="geometry">
            <mxRectangle width="40.227272727272975" height="30" as="alternateBounds" />
          </mxGeometry>
        </mxCell>
        <mxCell id="nl1nnygOUxZhwJREU8Xv-26" value="user_id" style="shape=partialRectangle;connectable=0;fillColor=none;top=0;left=0;bottom=0;right=0;align=left;spacingLeft=6;overflow=hidden;html=1;whiteSpace=wrap;strokeWidth=0.5;labelBackgroundColor=none;strokeColor=#BAC8D3;fontColor=#EEEEEE;rounded=1;" parent="nl1nnygOUxZhwJREU8Xv-24" vertex="1">
          <mxGeometry x="40.227272727272975" width="150.00272727272701" height="30" as="geometry">
            <mxRectangle width="150.00272727272701" height="30" as="alternateBounds" />
          </mxGeometry>
        </mxCell>
        <mxCell id="vMKdTskpqUzDpkchV1Ob-38" value="" style="shape=tableRow;horizontal=0;startSize=0;swimlaneHead=0;swimlaneBody=0;fillColor=none;collapsible=0;dropTarget=0;points=[[0,0.5],[1,0.5]];portConstraint=eastwest;top=0;left=0;right=0;bottom=0;html=1;strokeWidth=0.5;labelBackgroundColor=none;strokeColor=#BAC8D3;fontColor=#EEEEEE;rounded=1;" parent="nl1nnygOUxZhwJREU8Xv-17" vertex="1">
          <mxGeometry y="100" width="190.23" height="41" as="geometry" />
        </mxCell>
        <mxCell id="vMKdTskpqUzDpkchV1Ob-39" value="FK" style="shape=partialRectangle;connectable=0;fillColor=none;top=0;left=0;bottom=0;right=0;editable=1;overflow=hidden;html=1;whiteSpace=wrap;strokeWidth=0.5;labelBackgroundColor=none;strokeColor=#BAC8D3;fontColor=#EEEEEE;rounded=1;" parent="vMKdTskpqUzDpkchV1Ob-38" vertex="1">
          <mxGeometry width="40.227272727272975" height="41" as="geometry">
            <mxRectangle width="40.227272727272975" height="41" as="alternateBounds" />
          </mxGeometry>
        </mxCell>
        <mxCell id="vMKdTskpqUzDpkchV1Ob-40" value="order_status" style="shape=partialRectangle;connectable=0;fillColor=none;top=0;left=0;bottom=0;right=0;align=left;spacingLeft=6;overflow=hidden;html=1;whiteSpace=wrap;strokeWidth=0.5;labelBackgroundColor=none;strokeColor=#BAC8D3;fontColor=#EEEEEE;rounded=1;" parent="vMKdTskpqUzDpkchV1Ob-38" vertex="1">
          <mxGeometry x="40.227272727272975" width="150.00272727272701" height="41" as="geometry">
            <mxRectangle width="150.00272727272701" height="41" as="alternateBounds" />
          </mxGeometry>
        </mxCell>
        <mxCell id="nl1nnygOUxZhwJREU8Xv-27" value="" style="shape=tableRow;horizontal=0;startSize=0;swimlaneHead=0;swimlaneBody=0;fillColor=none;collapsible=0;dropTarget=0;points=[[0,0.5],[1,0.5]];portConstraint=eastwest;top=0;left=0;right=0;bottom=0;html=1;strokeWidth=0.5;labelBackgroundColor=none;strokeColor=#BAC8D3;fontColor=#EEEEEE;rounded=1;" parent="nl1nnygOUxZhwJREU8Xv-17" vertex="1">
          <mxGeometry y="141" width="190.23" height="30" as="geometry" />
        </mxCell>
        <mxCell id="nl1nnygOUxZhwJREU8Xv-28" value="FK" style="shape=partialRectangle;connectable=0;fillColor=none;top=0;left=0;bottom=0;right=0;editable=1;overflow=hidden;html=1;whiteSpace=wrap;strokeWidth=0.5;labelBackgroundColor=none;strokeColor=#BAC8D3;fontColor=#EEEEEE;rounded=1;" parent="nl1nnygOUxZhwJREU8Xv-27" vertex="1">
          <mxGeometry width="40.227272727272975" height="30" as="geometry">
            <mxRectangle width="40.227272727272975" height="30" as="alternateBounds" />
          </mxGeometry>
        </mxCell>
        <mxCell id="nl1nnygOUxZhwJREU8Xv-29" value="variant_product_item_ids" style="shape=partialRectangle;connectable=0;fillColor=none;top=0;left=0;bottom=0;right=0;align=left;spacingLeft=6;overflow=hidden;html=1;whiteSpace=wrap;strokeWidth=0.5;labelBackgroundColor=none;strokeColor=#BAC8D3;fontColor=#EEEEEE;rounded=1;" parent="nl1nnygOUxZhwJREU8Xv-27" vertex="1">
          <mxGeometry x="40.227272727272975" width="150.00272727272701" height="30" as="geometry">
            <mxRectangle width="150.00272727272701" height="30" as="alternateBounds" />
          </mxGeometry>
        </mxCell>
        <mxCell id="vMKdTskpqUzDpkchV1Ob-1" value="Cart Items" style="shape=table;startSize=32;container=1;collapsible=1;childLayout=tableLayout;fixedRows=1;rowLines=0;fontStyle=1;align=center;resizeLast=1;html=1;fontColor=#EEEEEE;fontSize=12;strokeWidth=0.5;labelBackgroundColor=none;fillColor=#09555B;strokeColor=#BAC8D3;rounded=1;" parent="1" vertex="1">
          <mxGeometry x="1332" y="504" width="180" height="129" as="geometry" />
        </mxCell>
        <mxCell id="vMKdTskpqUzDpkchV1Ob-2" value="" style="shape=tableRow;horizontal=0;startSize=0;swimlaneHead=0;swimlaneBody=0;fillColor=none;collapsible=0;dropTarget=0;points=[[0,0.5],[1,0.5]];portConstraint=eastwest;top=0;left=0;right=0;bottom=1;fontColor=#EEEEEE;fontSize=12;strokeWidth=0.5;labelBackgroundColor=none;strokeColor=#BAC8D3;rounded=1;" parent="vMKdTskpqUzDpkchV1Ob-1" vertex="1">
          <mxGeometry y="32" width="180" height="30" as="geometry" />
        </mxCell>
        <mxCell id="vMKdTskpqUzDpkchV1Ob-3" value="PK" style="shape=partialRectangle;connectable=0;fillColor=none;top=0;left=0;bottom=0;right=0;fontStyle=1;overflow=hidden;whiteSpace=wrap;html=1;fontColor=#EEEEEE;fontSize=12;strokeWidth=0.5;labelBackgroundColor=none;strokeColor=#BAC8D3;rounded=1;" parent="vMKdTskpqUzDpkchV1Ob-2" vertex="1">
          <mxGeometry width="31.13793103448279" height="30" as="geometry">
            <mxRectangle width="31.13793103448279" height="30" as="alternateBounds" />
          </mxGeometry>
        </mxCell>
        <mxCell id="vMKdTskpqUzDpkchV1Ob-4" value="_id" style="shape=partialRectangle;connectable=0;fillColor=none;top=0;left=0;bottom=0;right=0;align=left;spacingLeft=6;fontStyle=5;overflow=hidden;whiteSpace=wrap;html=1;fontColor=#EEEEEE;fontSize=12;strokeWidth=0.5;labelBackgroundColor=none;strokeColor=#BAC8D3;rounded=1;" parent="vMKdTskpqUzDpkchV1Ob-2" vertex="1">
          <mxGeometry x="31.13793103448279" width="148.8620689655172" height="30" as="geometry">
            <mxRectangle width="148.8620689655172" height="30" as="alternateBounds" />
          </mxGeometry>
        </mxCell>
        <mxCell id="vMKdTskpqUzDpkchV1Ob-5" value="" style="shape=tableRow;horizontal=0;startSize=0;swimlaneHead=0;swimlaneBody=0;fillColor=none;collapsible=0;dropTarget=0;points=[[0,0.5],[1,0.5]];portConstraint=eastwest;top=0;left=0;right=0;bottom=0;fontColor=#EEEEEE;fontSize=12;strokeWidth=0.5;labelBackgroundColor=none;strokeColor=#BAC8D3;rounded=1;" parent="vMKdTskpqUzDpkchV1Ob-1" vertex="1">
          <mxGeometry y="62" width="180" height="25" as="geometry" />
        </mxCell>
        <mxCell id="vMKdTskpqUzDpkchV1Ob-6" value="" style="shape=partialRectangle;connectable=0;fillColor=none;top=0;left=0;bottom=0;right=0;editable=1;overflow=hidden;whiteSpace=wrap;html=1;fontColor=#EEEEEE;fontSize=12;strokeWidth=0.5;labelBackgroundColor=none;strokeColor=#BAC8D3;rounded=1;" parent="vMKdTskpqUzDpkchV1Ob-5" vertex="1">
          <mxGeometry width="31.13793103448279" height="25" as="geometry">
            <mxRectangle width="31.13793103448279" height="25" as="alternateBounds" />
          </mxGeometry>
        </mxCell>
        <mxCell id="vMKdTskpqUzDpkchV1Ob-7" value="cart_id" style="shape=partialRectangle;connectable=0;fillColor=none;top=0;left=0;bottom=0;right=0;align=left;spacingLeft=6;overflow=hidden;whiteSpace=wrap;html=1;fontColor=#EEEEEE;fontSize=12;strokeWidth=0.5;labelBackgroundColor=none;strokeColor=#BAC8D3;rounded=1;" parent="vMKdTskpqUzDpkchV1Ob-5" vertex="1">
          <mxGeometry x="31.13793103448279" width="148.8620689655172" height="25" as="geometry">
            <mxRectangle width="148.8620689655172" height="25" as="alternateBounds" />
          </mxGeometry>
        </mxCell>
        <mxCell id="vMKdTskpqUzDpkchV1Ob-8" value="" style="shape=tableRow;horizontal=0;startSize=0;swimlaneHead=0;swimlaneBody=0;fillColor=none;collapsible=0;dropTarget=0;points=[[0,0.5],[1,0.5]];portConstraint=eastwest;top=0;left=0;right=0;bottom=0;fontColor=#EEEEEE;fontSize=12;strokeWidth=0.5;labelBackgroundColor=none;strokeColor=#BAC8D3;rounded=1;" parent="vMKdTskpqUzDpkchV1Ob-1" vertex="1">
          <mxGeometry y="87" width="180" height="22" as="geometry" />
        </mxCell>
        <mxCell id="vMKdTskpqUzDpkchV1Ob-9" value="FK" style="shape=partialRectangle;connectable=0;fillColor=none;top=0;left=0;bottom=0;right=0;editable=1;overflow=hidden;whiteSpace=wrap;html=1;fontColor=#EEEEEE;fontSize=12;strokeWidth=0.5;labelBackgroundColor=none;strokeColor=#BAC8D3;rounded=1;" parent="vMKdTskpqUzDpkchV1Ob-8" vertex="1">
          <mxGeometry width="31.13793103448279" height="22" as="geometry">
            <mxRectangle width="31.13793103448279" height="22" as="alternateBounds" />
          </mxGeometry>
        </mxCell>
        <mxCell id="vMKdTskpqUzDpkchV1Ob-10" value="variant_product_Item_Id" style="shape=partialRectangle;connectable=0;fillColor=none;top=0;left=0;bottom=0;right=0;align=left;spacingLeft=6;overflow=hidden;whiteSpace=wrap;html=1;fontColor=#EEEEEE;fontSize=12;strokeWidth=0.5;labelBackgroundColor=none;strokeColor=#BAC8D3;rounded=1;" parent="vMKdTskpqUzDpkchV1Ob-8" vertex="1">
          <mxGeometry x="31.13793103448279" width="148.8620689655172" height="22" as="geometry">
            <mxRectangle width="148.8620689655172" height="22" as="alternateBounds" />
          </mxGeometry>
        </mxCell>
        <mxCell id="vMKdTskpqUzDpkchV1Ob-11" value="" style="shape=tableRow;horizontal=0;startSize=0;swimlaneHead=0;swimlaneBody=0;fillColor=none;collapsible=0;dropTarget=0;points=[[0,0.5],[1,0.5]];portConstraint=eastwest;top=0;left=0;right=0;bottom=0;fontColor=#EEEEEE;fontSize=12;strokeWidth=0.5;labelBackgroundColor=none;strokeColor=#BAC8D3;rounded=1;" parent="vMKdTskpqUzDpkchV1Ob-1" vertex="1">
          <mxGeometry y="109" width="180" height="20" as="geometry" />
        </mxCell>
        <mxCell id="vMKdTskpqUzDpkchV1Ob-12" value="" style="shape=partialRectangle;connectable=0;fillColor=none;top=0;left=0;bottom=0;right=0;editable=1;overflow=hidden;whiteSpace=wrap;html=1;fontColor=#EEEEEE;fontSize=12;strokeWidth=0.5;labelBackgroundColor=none;strokeColor=#BAC8D3;rounded=1;" parent="vMKdTskpqUzDpkchV1Ob-11" vertex="1">
          <mxGeometry width="31.13793103448279" height="20" as="geometry">
            <mxRectangle width="31.13793103448279" height="20" as="alternateBounds" />
          </mxGeometry>
        </mxCell>
        <mxCell id="vMKdTskpqUzDpkchV1Ob-13" value="quantity" style="shape=partialRectangle;connectable=0;fillColor=none;top=0;left=0;bottom=0;right=0;align=left;spacingLeft=6;overflow=hidden;whiteSpace=wrap;html=1;fontColor=#EEEEEE;fontSize=12;strokeWidth=0.5;labelBackgroundColor=none;strokeColor=#BAC8D3;rounded=1;" parent="vMKdTskpqUzDpkchV1Ob-11" vertex="1">
          <mxGeometry x="31.13793103448279" width="148.8620689655172" height="20" as="geometry">
            <mxRectangle width="148.8620689655172" height="20" as="alternateBounds" />
          </mxGeometry>
        </mxCell>
        <mxCell id="vMKdTskpqUzDpkchV1Ob-14" value="Wishlist Items" style="shape=table;startSize=35;container=1;collapsible=1;childLayout=tableLayout;fixedRows=1;rowLines=0;fontStyle=1;align=center;resizeLast=1;html=1;fontColor=#EEEEEE;fontSize=12;strokeWidth=0.5;labelBackgroundColor=none;fillColor=#09555B;strokeColor=#BAC8D3;rounded=1;" parent="1" vertex="1">
          <mxGeometry x="1325" y="669" width="180" height="120" as="geometry" />
        </mxCell>
        <mxCell id="vMKdTskpqUzDpkchV1Ob-15" value="" style="shape=tableRow;horizontal=0;startSize=0;swimlaneHead=0;swimlaneBody=0;fillColor=none;collapsible=0;dropTarget=0;points=[[0,0.5],[1,0.5]];portConstraint=eastwest;top=0;left=0;right=0;bottom=1;fontColor=#EEEEEE;fontSize=12;strokeWidth=0.5;labelBackgroundColor=none;strokeColor=#BAC8D3;rounded=1;" parent="vMKdTskpqUzDpkchV1Ob-14" vertex="1">
          <mxGeometry y="35" width="180" height="30" as="geometry" />
        </mxCell>
        <mxCell id="vMKdTskpqUzDpkchV1Ob-16" value="PK" style="shape=partialRectangle;connectable=0;fillColor=none;top=0;left=0;bottom=0;right=0;fontStyle=1;overflow=hidden;whiteSpace=wrap;html=1;fontColor=#EEEEEE;fontSize=12;strokeWidth=0.5;labelBackgroundColor=none;strokeColor=#BAC8D3;rounded=1;" parent="vMKdTskpqUzDpkchV1Ob-15" vertex="1">
          <mxGeometry width="31.13793103448279" height="30" as="geometry">
            <mxRectangle width="31.13793103448279" height="30" as="alternateBounds" />
          </mxGeometry>
        </mxCell>
        <mxCell id="vMKdTskpqUzDpkchV1Ob-17" value="_id" style="shape=partialRectangle;connectable=0;fillColor=none;top=0;left=0;bottom=0;right=0;align=left;spacingLeft=6;fontStyle=5;overflow=hidden;whiteSpace=wrap;html=1;fontColor=#EEEEEE;fontSize=12;strokeWidth=0.5;labelBackgroundColor=none;strokeColor=#BAC8D3;rounded=1;" parent="vMKdTskpqUzDpkchV1Ob-15" vertex="1">
          <mxGeometry x="31.13793103448279" width="148.8620689655172" height="30" as="geometry">
            <mxRectangle width="148.8620689655172" height="30" as="alternateBounds" />
          </mxGeometry>
        </mxCell>
        <mxCell id="vMKdTskpqUzDpkchV1Ob-21" value="" style="shape=tableRow;horizontal=0;startSize=0;swimlaneHead=0;swimlaneBody=0;fillColor=none;collapsible=0;dropTarget=0;points=[[0,0.5],[1,0.5]];portConstraint=eastwest;top=0;left=0;right=0;bottom=0;fontColor=#EEEEEE;fontSize=12;strokeWidth=0.5;labelBackgroundColor=none;strokeColor=#BAC8D3;rounded=1;" parent="vMKdTskpqUzDpkchV1Ob-14" vertex="1">
          <mxGeometry y="65" width="180" height="30" as="geometry" />
        </mxCell>
        <mxCell id="vMKdTskpqUzDpkchV1Ob-22" value="FK" style="shape=partialRectangle;connectable=0;fillColor=none;top=0;left=0;bottom=0;right=0;editable=1;overflow=hidden;whiteSpace=wrap;html=1;fontColor=#EEEEEE;fontSize=12;strokeWidth=0.5;labelBackgroundColor=none;strokeColor=#BAC8D3;rounded=1;" parent="vMKdTskpqUzDpkchV1Ob-21" vertex="1">
          <mxGeometry width="31.13793103448279" height="30" as="geometry">
            <mxRectangle width="31.13793103448279" height="30" as="alternateBounds" />
          </mxGeometry>
        </mxCell>
        <mxCell id="vMKdTskpqUzDpkchV1Ob-23" value="variant_product_Item_Id" style="shape=partialRectangle;connectable=0;fillColor=none;top=0;left=0;bottom=0;right=0;align=left;spacingLeft=6;overflow=hidden;whiteSpace=wrap;html=1;fontColor=#EEEEEE;fontSize=12;strokeWidth=0.5;labelBackgroundColor=none;strokeColor=#BAC8D3;rounded=1;" parent="vMKdTskpqUzDpkchV1Ob-21" vertex="1">
          <mxGeometry x="31.13793103448279" width="148.8620689655172" height="30" as="geometry">
            <mxRectangle width="148.8620689655172" height="30" as="alternateBounds" />
          </mxGeometry>
        </mxCell>
        <mxCell id="vMKdTskpqUzDpkchV1Ob-18" value="" style="shape=tableRow;horizontal=0;startSize=0;swimlaneHead=0;swimlaneBody=0;fillColor=none;collapsible=0;dropTarget=0;points=[[0,0.5],[1,0.5]];portConstraint=eastwest;top=0;left=0;right=0;bottom=0;fontColor=#EEEEEE;fontSize=12;strokeWidth=0.5;labelBackgroundColor=none;strokeColor=#BAC8D3;rounded=1;" parent="vMKdTskpqUzDpkchV1Ob-14" vertex="1">
          <mxGeometry y="95" width="180" height="25" as="geometry" />
        </mxCell>
        <mxCell id="vMKdTskpqUzDpkchV1Ob-19" value="" style="shape=partialRectangle;connectable=0;fillColor=none;top=0;left=0;bottom=0;right=0;editable=1;overflow=hidden;whiteSpace=wrap;html=1;fontColor=#EEEEEE;fontSize=12;strokeWidth=0.5;labelBackgroundColor=none;strokeColor=#BAC8D3;rounded=1;" parent="vMKdTskpqUzDpkchV1Ob-18" vertex="1">
          <mxGeometry width="31.13793103448279" height="25" as="geometry">
            <mxRectangle width="31.13793103448279" height="25" as="alternateBounds" />
          </mxGeometry>
        </mxCell>
        <mxCell id="vMKdTskpqUzDpkchV1Ob-20" value="wishlist_id" style="shape=partialRectangle;connectable=0;fillColor=none;top=0;left=0;bottom=0;right=0;align=left;spacingLeft=6;overflow=hidden;whiteSpace=wrap;html=1;fontColor=#EEEEEE;fontSize=12;strokeWidth=0.5;labelBackgroundColor=none;strokeColor=#BAC8D3;rounded=1;" parent="vMKdTskpqUzDpkchV1Ob-18" vertex="1">
          <mxGeometry x="31.13793103448279" width="148.8620689655172" height="25" as="geometry">
            <mxRectangle width="148.8620689655172" height="25" as="alternateBounds" />
          </mxGeometry>
        </mxCell>
        <mxCell id="vMKdTskpqUzDpkchV1Ob-27" value="" style="edgeStyle=entityRelationEdgeStyle;fontSize=12;html=1;endArrow=ERmany;rounded=1;labelBackgroundColor=none;strokeColor=#0B4D6A;fontColor=default;" parent="1" source="tHaSnj_AwQkWbdFXGDT--32" target="vMKdTskpqUzDpkchV1Ob-8" edge="1">
          <mxGeometry width="100" height="100" relative="1" as="geometry">
            <mxPoint x="1709" y="534" as="sourcePoint" />
            <mxPoint x="1581" y="434" as="targetPoint" />
          </mxGeometry>
        </mxCell>
        <mxCell id="vMKdTskpqUzDpkchV1Ob-28" value="" style="edgeStyle=entityRelationEdgeStyle;fontSize=12;html=1;endArrow=ERmany;rounded=1;labelBackgroundColor=none;strokeColor=#0B4D6A;fontColor=default;" parent="1" source="tHaSnj_AwQkWbdFXGDT--32" target="vMKdTskpqUzDpkchV1Ob-21" edge="1">
          <mxGeometry width="100" height="100" relative="1" as="geometry">
            <mxPoint x="1808" y="841" as="sourcePoint" />
            <mxPoint x="1680" y="741" as="targetPoint" />
          </mxGeometry>
        </mxCell>
        <mxCell id="vMKdTskpqUzDpkchV1Ob-41" value="" style="edgeStyle=entityRelationEdgeStyle;fontSize=12;html=1;endArrow=ERoneToMany;rounded=1;labelBackgroundColor=none;strokeColor=#0B4D6A;fontColor=default;" parent="1" source="nl1nnygOUxZhwJREU8Xv-5" target="vMKdTskpqUzDpkchV1Ob-38" edge="1">
          <mxGeometry width="100" height="100" relative="1" as="geometry">
            <mxPoint x="2399" y="603" as="sourcePoint" />
            <mxPoint x="2330" y="767" as="targetPoint" />
          </mxGeometry>
        </mxCell>
        <mxCell id="vMKdTskpqUzDpkchV1Ob-42" value="" style="edgeStyle=entityRelationEdgeStyle;fontSize=12;html=1;endArrow=ERoneToMany;rounded=1;labelBackgroundColor=none;strokeColor=#0B4D6A;fontColor=default;exitX=0;exitY=0.5;exitDx=0;exitDy=0;" parent="1" source="tHaSnj_AwQkWbdFXGDT--32" target="nl1nnygOUxZhwJREU8Xv-27" edge="1">
          <mxGeometry width="100" height="100" relative="1" as="geometry">
            <mxPoint x="1807" y="763" as="sourcePoint" />
            <mxPoint x="1723" y="1052" as="targetPoint" />
            <Array as="points">
              <mxPoint x="1647" y="971" />
              <mxPoint x="1640" y="986" />
            </Array>
          </mxGeometry>
        </mxCell>
        <mxCell id="vMKdTskpqUzDpkchV1Ob-44" value="" style="edgeStyle=entityRelationEdgeStyle;fontSize=12;html=1;endArrow=ERmany;rounded=1;labelBackgroundColor=none;strokeColor=#0B4D6A;fontColor=default;exitX=1;exitY=0.5;exitDx=0;exitDy=0;" parent="1" source="U8u-r5qWbixyM0oDS7mE-15" target="nl1nnygOUxZhwJREU8Xv-24" edge="1">
          <mxGeometry width="100" height="100" relative="1" as="geometry">
            <mxPoint x="913" y="695" as="sourcePoint" />
            <mxPoint x="845" y="631" as="targetPoint" />
            <Array as="points">
              <mxPoint x="1029" y="575" />
              <mxPoint x="1002" y="643" />
              <mxPoint x="1135" y="671" />
              <mxPoint x="977" y="658" />
              <mxPoint x="1005" y="656" />
            </Array>
          </mxGeometry>
        </mxCell>
        <mxCell id="DIWntgJR85I-_1kxJ_sD-4" value="" style="edgeStyle=entityRelationEdgeStyle;fontSize=12;html=1;endArrow=ERmandOne;startArrow=ERmandOne;rounded=1;labelBackgroundColor=none;strokeColor=#0B4D6A;fontColor=default;" parent="1" source="FsbxxfnnBqgwTSdRjxEj-324" target="Ei9gPc-FSOUI4zSgeNx--98" edge="1">
          <mxGeometry width="100" height="100" relative="1" as="geometry">
            <mxPoint x="1371" y="682" as="sourcePoint" />
            <mxPoint x="1437" y="666" as="targetPoint" />
          </mxGeometry>
        </mxCell>
        <mxCell id="Ei9gPc-FSOUI4zSgeNx--1" value="Payment Info&lt;span style=&quot;white-space: pre;&quot;&gt;&#x9;&lt;/span&gt;" style="shape=table;startSize=36;container=1;collapsible=1;childLayout=tableLayout;fixedRows=1;rowLines=0;fontStyle=1;align=center;resizeLast=1;html=1;fontColor=#EEEEEE;fontSize=12;strokeWidth=0.5;labelBackgroundColor=none;fillColor=#09555B;strokeColor=#BAC8D3;rounded=1;" parent="1" vertex="1">
          <mxGeometry x="1626" y="29" width="180" height="245" as="geometry" />
        </mxCell>
        <mxCell id="Ei9gPc-FSOUI4zSgeNx--2" value="" style="shape=tableRow;horizontal=0;startSize=0;swimlaneHead=0;swimlaneBody=0;fillColor=none;collapsible=0;dropTarget=0;points=[[0,0.5],[1,0.5]];portConstraint=eastwest;top=0;left=0;right=0;bottom=1;fontColor=#EEEEEE;fontSize=12;strokeWidth=0.5;labelBackgroundColor=none;strokeColor=#BAC8D3;rounded=1;" parent="Ei9gPc-FSOUI4zSgeNx--1" vertex="1">
          <mxGeometry y="36" width="180" height="30" as="geometry" />
        </mxCell>
        <mxCell id="Ei9gPc-FSOUI4zSgeNx--3" value="PK" style="shape=partialRectangle;connectable=0;fillColor=none;top=0;left=0;bottom=0;right=0;fontStyle=1;overflow=hidden;whiteSpace=wrap;html=1;fontColor=#EEEEEE;fontSize=12;strokeWidth=0.5;labelBackgroundColor=none;strokeColor=#BAC8D3;rounded=1;" parent="Ei9gPc-FSOUI4zSgeNx--2" vertex="1">
          <mxGeometry width="31.13793103448279" height="30" as="geometry">
            <mxRectangle width="31.13793103448279" height="30" as="alternateBounds" />
          </mxGeometry>
        </mxCell>
        <mxCell id="Ei9gPc-FSOUI4zSgeNx--4" value="_id" style="shape=partialRectangle;connectable=0;fillColor=none;top=0;left=0;bottom=0;right=0;align=left;spacingLeft=6;fontStyle=5;overflow=hidden;whiteSpace=wrap;html=1;fontColor=#EEEEEE;fontSize=12;strokeWidth=0.5;labelBackgroundColor=none;strokeColor=#BAC8D3;rounded=1;" parent="Ei9gPc-FSOUI4zSgeNx--2" vertex="1">
          <mxGeometry x="31.13793103448279" width="148.8620689655172" height="30" as="geometry">
            <mxRectangle width="148.8620689655172" height="30" as="alternateBounds" />
          </mxGeometry>
        </mxCell>
        <mxCell id="Ei9gPc-FSOUI4zSgeNx--5" value="" style="shape=tableRow;horizontal=0;startSize=0;swimlaneHead=0;swimlaneBody=0;fillColor=none;collapsible=0;dropTarget=0;points=[[0,0.5],[1,0.5]];portConstraint=eastwest;top=0;left=0;right=0;bottom=0;fontColor=#EEEEEE;fontSize=12;strokeWidth=0.5;labelBackgroundColor=none;strokeColor=#BAC8D3;rounded=1;" parent="Ei9gPc-FSOUI4zSgeNx--1" vertex="1">
          <mxGeometry y="66" width="180" height="25" as="geometry" />
        </mxCell>
        <mxCell id="Ei9gPc-FSOUI4zSgeNx--6" value="" style="shape=partialRectangle;connectable=0;fillColor=none;top=0;left=0;bottom=0;right=0;editable=1;overflow=hidden;whiteSpace=wrap;html=1;fontColor=#EEEEEE;fontSize=12;strokeWidth=0.5;labelBackgroundColor=none;strokeColor=#BAC8D3;rounded=1;" parent="Ei9gPc-FSOUI4zSgeNx--5" vertex="1">
          <mxGeometry width="31.13793103448279" height="25" as="geometry">
            <mxRectangle width="31.13793103448279" height="25" as="alternateBounds" />
          </mxGeometry>
        </mxCell>
        <mxCell id="Ei9gPc-FSOUI4zSgeNx--7" value="user_Id" style="shape=partialRectangle;connectable=0;fillColor=none;top=0;left=0;bottom=0;right=0;align=left;spacingLeft=6;overflow=hidden;whiteSpace=wrap;html=1;fontColor=#EEEEEE;fontSize=12;strokeWidth=0.5;labelBackgroundColor=none;strokeColor=#BAC8D3;rounded=1;" parent="Ei9gPc-FSOUI4zSgeNx--5" vertex="1">
          <mxGeometry x="31.13793103448279" width="148.8620689655172" height="25" as="geometry">
            <mxRectangle width="148.8620689655172" height="25" as="alternateBounds" />
          </mxGeometry>
        </mxCell>
        <mxCell id="Ei9gPc-FSOUI4zSgeNx--8" value="" style="shape=tableRow;horizontal=0;startSize=0;swimlaneHead=0;swimlaneBody=0;fillColor=none;collapsible=0;dropTarget=0;points=[[0,0.5],[1,0.5]];portConstraint=eastwest;top=0;left=0;right=0;bottom=0;fontColor=#EEEEEE;fontSize=12;strokeWidth=0.5;labelBackgroundColor=none;strokeColor=#BAC8D3;rounded=1;" parent="Ei9gPc-FSOUI4zSgeNx--1" vertex="1">
          <mxGeometry y="91" width="180" height="22" as="geometry" />
        </mxCell>
        <mxCell id="Ei9gPc-FSOUI4zSgeNx--9" value="" style="shape=partialRectangle;connectable=0;fillColor=none;top=0;left=0;bottom=0;right=0;editable=1;overflow=hidden;whiteSpace=wrap;html=1;fontColor=#EEEEEE;fontSize=12;strokeWidth=0.5;labelBackgroundColor=none;strokeColor=#BAC8D3;rounded=1;" parent="Ei9gPc-FSOUI4zSgeNx--8" vertex="1">
          <mxGeometry width="31.13793103448279" height="22" as="geometry">
            <mxRectangle width="31.13793103448279" height="22" as="alternateBounds" />
          </mxGeometry>
        </mxCell>
        <mxCell id="Ei9gPc-FSOUI4zSgeNx--10" value="line1" style="shape=partialRectangle;connectable=0;fillColor=none;top=0;left=0;bottom=0;right=0;align=left;spacingLeft=6;overflow=hidden;whiteSpace=wrap;html=1;fontColor=#EEEEEE;fontSize=12;strokeWidth=0.5;labelBackgroundColor=none;strokeColor=#BAC8D3;rounded=1;" parent="Ei9gPc-FSOUI4zSgeNx--8" vertex="1">
          <mxGeometry x="31.13793103448279" width="148.8620689655172" height="22" as="geometry">
            <mxRectangle width="148.8620689655172" height="22" as="alternateBounds" />
          </mxGeometry>
        </mxCell>
        <mxCell id="Ei9gPc-FSOUI4zSgeNx--11" value="" style="shape=tableRow;horizontal=0;startSize=0;swimlaneHead=0;swimlaneBody=0;fillColor=none;collapsible=0;dropTarget=0;points=[[0,0.5],[1,0.5]];portConstraint=eastwest;top=0;left=0;right=0;bottom=0;fontColor=#EEEEEE;fontSize=12;strokeWidth=0.5;labelBackgroundColor=none;strokeColor=#BAC8D3;rounded=1;" parent="Ei9gPc-FSOUI4zSgeNx--1" vertex="1">
          <mxGeometry y="113" width="180" height="22" as="geometry" />
        </mxCell>
        <mxCell id="Ei9gPc-FSOUI4zSgeNx--12" value="" style="shape=partialRectangle;connectable=0;fillColor=none;top=0;left=0;bottom=0;right=0;editable=1;overflow=hidden;whiteSpace=wrap;html=1;fontColor=#EEEEEE;fontSize=12;strokeWidth=0.5;labelBackgroundColor=none;strokeColor=#BAC8D3;rounded=1;" parent="Ei9gPc-FSOUI4zSgeNx--11" vertex="1">
          <mxGeometry width="31.13793103448279" height="22" as="geometry">
            <mxRectangle width="31.13793103448279" height="22" as="alternateBounds" />
          </mxGeometry>
        </mxCell>
        <mxCell id="Ei9gPc-FSOUI4zSgeNx--13" value="country_id" style="shape=partialRectangle;connectable=0;fillColor=none;top=0;left=0;bottom=0;right=0;align=left;spacingLeft=6;overflow=hidden;whiteSpace=wrap;html=1;fontColor=#EEEEEE;fontSize=12;strokeWidth=0.5;labelBackgroundColor=none;strokeColor=#BAC8D3;rounded=1;" parent="Ei9gPc-FSOUI4zSgeNx--11" vertex="1">
          <mxGeometry x="31.13793103448279" width="148.8620689655172" height="22" as="geometry">
            <mxRectangle width="148.8620689655172" height="22" as="alternateBounds" />
          </mxGeometry>
        </mxCell>
        <mxCell id="Ei9gPc-FSOUI4zSgeNx--14" value="" style="shape=tableRow;horizontal=0;startSize=0;swimlaneHead=0;swimlaneBody=0;fillColor=none;collapsible=0;dropTarget=0;points=[[0,0.5],[1,0.5]];portConstraint=eastwest;top=0;left=0;right=0;bottom=0;fontColor=#EEEEEE;fontSize=12;strokeWidth=0.5;labelBackgroundColor=none;strokeColor=#BAC8D3;rounded=1;" parent="Ei9gPc-FSOUI4zSgeNx--1" vertex="1">
          <mxGeometry y="135" width="180" height="22" as="geometry" />
        </mxCell>
        <mxCell id="Ei9gPc-FSOUI4zSgeNx--15" value="" style="shape=partialRectangle;connectable=0;fillColor=none;top=0;left=0;bottom=0;right=0;editable=1;overflow=hidden;whiteSpace=wrap;html=1;fontColor=#EEEEEE;fontSize=12;strokeWidth=0.5;labelBackgroundColor=none;strokeColor=#BAC8D3;rounded=1;" parent="Ei9gPc-FSOUI4zSgeNx--14" vertex="1">
          <mxGeometry width="31.13793103448279" height="22" as="geometry">
            <mxRectangle width="31.13793103448279" height="22" as="alternateBounds" />
          </mxGeometry>
        </mxCell>
        <mxCell id="Ei9gPc-FSOUI4zSgeNx--16" value="line2&lt;span style=&quot;white-space: pre;&quot;&gt;&#x9;&lt;/span&gt;" style="shape=partialRectangle;connectable=0;fillColor=none;top=0;left=0;bottom=0;right=0;align=left;spacingLeft=6;overflow=hidden;whiteSpace=wrap;html=1;fontColor=#EEEEEE;fontSize=12;strokeWidth=0.5;labelBackgroundColor=none;strokeColor=#BAC8D3;rounded=1;" parent="Ei9gPc-FSOUI4zSgeNx--14" vertex="1">
          <mxGeometry x="31.13793103448279" width="148.8620689655172" height="22" as="geometry">
            <mxRectangle width="148.8620689655172" height="22" as="alternateBounds" />
          </mxGeometry>
        </mxCell>
        <mxCell id="Ei9gPc-FSOUI4zSgeNx--17" value="" style="shape=tableRow;horizontal=0;startSize=0;swimlaneHead=0;swimlaneBody=0;fillColor=none;collapsible=0;dropTarget=0;points=[[0,0.5],[1,0.5]];portConstraint=eastwest;top=0;left=0;right=0;bottom=0;fontColor=#EEEEEE;fontSize=12;strokeWidth=0.5;labelBackgroundColor=none;strokeColor=#BAC8D3;rounded=1;" parent="Ei9gPc-FSOUI4zSgeNx--1" vertex="1">
          <mxGeometry y="157" width="180" height="22" as="geometry" />
        </mxCell>
        <mxCell id="Ei9gPc-FSOUI4zSgeNx--18" value="" style="shape=partialRectangle;connectable=0;fillColor=none;top=0;left=0;bottom=0;right=0;editable=1;overflow=hidden;whiteSpace=wrap;html=1;fontColor=#EEEEEE;fontSize=12;strokeWidth=0.5;labelBackgroundColor=none;strokeColor=#BAC8D3;rounded=1;" parent="Ei9gPc-FSOUI4zSgeNx--17" vertex="1">
          <mxGeometry width="31.13793103448279" height="22" as="geometry">
            <mxRectangle width="31.13793103448279" height="22" as="alternateBounds" />
          </mxGeometry>
        </mxCell>
        <mxCell id="Ei9gPc-FSOUI4zSgeNx--19" value="landmark" style="shape=partialRectangle;connectable=0;fillColor=none;top=0;left=0;bottom=0;right=0;align=left;spacingLeft=6;overflow=hidden;whiteSpace=wrap;html=1;fontColor=#EEEEEE;fontSize=12;strokeWidth=0.5;labelBackgroundColor=none;strokeColor=#BAC8D3;rounded=1;" parent="Ei9gPc-FSOUI4zSgeNx--17" vertex="1">
          <mxGeometry x="31.13793103448279" width="148.8620689655172" height="22" as="geometry">
            <mxRectangle width="148.8620689655172" height="22" as="alternateBounds" />
          </mxGeometry>
        </mxCell>
        <mxCell id="Ei9gPc-FSOUI4zSgeNx--20" value="" style="shape=tableRow;horizontal=0;startSize=0;swimlaneHead=0;swimlaneBody=0;fillColor=none;collapsible=0;dropTarget=0;points=[[0,0.5],[1,0.5]];portConstraint=eastwest;top=0;left=0;right=0;bottom=0;fontColor=#EEEEEE;fontSize=12;strokeWidth=0.5;labelBackgroundColor=none;strokeColor=#BAC8D3;rounded=1;" parent="Ei9gPc-FSOUI4zSgeNx--1" vertex="1">
          <mxGeometry y="179" width="180" height="22" as="geometry" />
        </mxCell>
        <mxCell id="Ei9gPc-FSOUI4zSgeNx--21" value="" style="shape=partialRectangle;connectable=0;fillColor=none;top=0;left=0;bottom=0;right=0;editable=1;overflow=hidden;whiteSpace=wrap;html=1;fontColor=#EEEEEE;fontSize=12;strokeWidth=0.5;labelBackgroundColor=none;strokeColor=#BAC8D3;rounded=1;" parent="Ei9gPc-FSOUI4zSgeNx--20" vertex="1">
          <mxGeometry width="31.13793103448279" height="22" as="geometry">
            <mxRectangle width="31.13793103448279" height="22" as="alternateBounds" />
          </mxGeometry>
        </mxCell>
        <mxCell id="Ei9gPc-FSOUI4zSgeNx--22" value="city" style="shape=partialRectangle;connectable=0;fillColor=none;top=0;left=0;bottom=0;right=0;align=left;spacingLeft=6;overflow=hidden;whiteSpace=wrap;html=1;fontColor=#EEEEEE;fontSize=12;strokeWidth=0.5;labelBackgroundColor=none;strokeColor=#BAC8D3;rounded=1;" parent="Ei9gPc-FSOUI4zSgeNx--20" vertex="1">
          <mxGeometry x="31.13793103448279" width="148.8620689655172" height="22" as="geometry">
            <mxRectangle width="148.8620689655172" height="22" as="alternateBounds" />
          </mxGeometry>
        </mxCell>
        <mxCell id="Ei9gPc-FSOUI4zSgeNx--23" value="" style="shape=tableRow;horizontal=0;startSize=0;swimlaneHead=0;swimlaneBody=0;fillColor=none;collapsible=0;dropTarget=0;points=[[0,0.5],[1,0.5]];portConstraint=eastwest;top=0;left=0;right=0;bottom=0;fontColor=#EEEEEE;fontSize=12;strokeWidth=0.5;labelBackgroundColor=none;strokeColor=#BAC8D3;rounded=1;" parent="Ei9gPc-FSOUI4zSgeNx--1" vertex="1">
          <mxGeometry y="201" width="180" height="22" as="geometry" />
        </mxCell>
        <mxCell id="Ei9gPc-FSOUI4zSgeNx--24" value="" style="shape=partialRectangle;connectable=0;fillColor=none;top=0;left=0;bottom=0;right=0;editable=1;overflow=hidden;whiteSpace=wrap;html=1;fontColor=#EEEEEE;fontSize=12;strokeWidth=0.5;labelBackgroundColor=none;strokeColor=#BAC8D3;rounded=1;" parent="Ei9gPc-FSOUI4zSgeNx--23" vertex="1">
          <mxGeometry width="31.13793103448279" height="22" as="geometry">
            <mxRectangle width="31.13793103448279" height="22" as="alternateBounds" />
          </mxGeometry>
        </mxCell>
        <mxCell id="Ei9gPc-FSOUI4zSgeNx--25" value="state" style="shape=partialRectangle;connectable=0;fillColor=none;top=0;left=0;bottom=0;right=0;align=left;spacingLeft=6;overflow=hidden;whiteSpace=wrap;html=1;fontColor=#EEEEEE;fontSize=12;strokeWidth=0.5;labelBackgroundColor=none;strokeColor=#BAC8D3;rounded=1;" parent="Ei9gPc-FSOUI4zSgeNx--23" vertex="1">
          <mxGeometry x="31.13793103448279" width="148.8620689655172" height="22" as="geometry">
            <mxRectangle width="148.8620689655172" height="22" as="alternateBounds" />
          </mxGeometry>
        </mxCell>
        <mxCell id="Ei9gPc-FSOUI4zSgeNx--26" value="" style="shape=tableRow;horizontal=0;startSize=0;swimlaneHead=0;swimlaneBody=0;fillColor=none;collapsible=0;dropTarget=0;points=[[0,0.5],[1,0.5]];portConstraint=eastwest;top=0;left=0;right=0;bottom=0;fontColor=#EEEEEE;fontSize=12;strokeWidth=0.5;labelBackgroundColor=none;strokeColor=#BAC8D3;rounded=1;" parent="Ei9gPc-FSOUI4zSgeNx--1" vertex="1">
          <mxGeometry y="223" width="180" height="22" as="geometry" />
        </mxCell>
        <mxCell id="Ei9gPc-FSOUI4zSgeNx--27" value="" style="shape=partialRectangle;connectable=0;fillColor=none;top=0;left=0;bottom=0;right=0;editable=1;overflow=hidden;whiteSpace=wrap;html=1;fontColor=#EEEEEE;fontSize=12;strokeWidth=0.5;labelBackgroundColor=none;strokeColor=#BAC8D3;rounded=1;" parent="Ei9gPc-FSOUI4zSgeNx--26" vertex="1">
          <mxGeometry width="31.13793103448279" height="22" as="geometry">
            <mxRectangle width="31.13793103448279" height="22" as="alternateBounds" />
          </mxGeometry>
        </mxCell>
        <mxCell id="Ei9gPc-FSOUI4zSgeNx--28" value="zipcode" style="shape=partialRectangle;connectable=0;fillColor=none;top=0;left=0;bottom=0;right=0;align=left;spacingLeft=6;overflow=hidden;whiteSpace=wrap;html=1;fontColor=#EEEEEE;fontSize=12;strokeWidth=0.5;labelBackgroundColor=none;strokeColor=#BAC8D3;rounded=1;" parent="Ei9gPc-FSOUI4zSgeNx--26" vertex="1">
          <mxGeometry x="31.13793103448279" width="148.8620689655172" height="22" as="geometry">
            <mxRectangle width="148.8620689655172" height="22" as="alternateBounds" />
          </mxGeometry>
        </mxCell>
        <mxCell id="Ei9gPc-FSOUI4zSgeNx--29" value="Transactions" style="shape=table;startSize=37;container=1;collapsible=1;childLayout=tableLayout;fixedRows=1;rowLines=0;fontStyle=1;align=center;resizeLast=1;html=1;fontColor=#EEEEEE;fontSize=12;strokeWidth=0.5;labelBackgroundColor=none;fillColor=#09555B;strokeColor=#BAC8D3;rounded=1;" parent="1" vertex="1">
          <mxGeometry x="1366" y="33" width="180" height="246" as="geometry" />
        </mxCell>
        <mxCell id="Ei9gPc-FSOUI4zSgeNx--30" value="" style="shape=tableRow;horizontal=0;startSize=0;swimlaneHead=0;swimlaneBody=0;fillColor=none;collapsible=0;dropTarget=0;points=[[0,0.5],[1,0.5]];portConstraint=eastwest;top=0;left=0;right=0;bottom=1;fontColor=#EEEEEE;fontSize=12;strokeWidth=0.5;labelBackgroundColor=none;strokeColor=#BAC8D3;rounded=1;" parent="Ei9gPc-FSOUI4zSgeNx--29" vertex="1">
          <mxGeometry y="37" width="180" height="30" as="geometry" />
        </mxCell>
        <mxCell id="Ei9gPc-FSOUI4zSgeNx--31" value="PK" style="shape=partialRectangle;connectable=0;fillColor=none;top=0;left=0;bottom=0;right=0;fontStyle=1;overflow=hidden;whiteSpace=wrap;html=1;fontColor=#EEEEEE;fontSize=12;strokeWidth=0.5;labelBackgroundColor=none;strokeColor=#BAC8D3;rounded=1;" parent="Ei9gPc-FSOUI4zSgeNx--30" vertex="1">
          <mxGeometry width="31.13793103448279" height="30" as="geometry">
            <mxRectangle width="31.13793103448279" height="30" as="alternateBounds" />
          </mxGeometry>
        </mxCell>
        <mxCell id="Ei9gPc-FSOUI4zSgeNx--32" value="_id" style="shape=partialRectangle;connectable=0;fillColor=none;top=0;left=0;bottom=0;right=0;align=left;spacingLeft=6;fontStyle=5;overflow=hidden;whiteSpace=wrap;html=1;fontColor=#EEEEEE;fontSize=12;strokeWidth=0.5;labelBackgroundColor=none;strokeColor=#BAC8D3;rounded=1;" parent="Ei9gPc-FSOUI4zSgeNx--30" vertex="1">
          <mxGeometry x="31.13793103448279" width="148.8620689655172" height="30" as="geometry">
            <mxRectangle width="148.8620689655172" height="30" as="alternateBounds" />
          </mxGeometry>
        </mxCell>
        <mxCell id="Ei9gPc-FSOUI4zSgeNx--33" value="" style="shape=tableRow;horizontal=0;startSize=0;swimlaneHead=0;swimlaneBody=0;fillColor=none;collapsible=0;dropTarget=0;points=[[0,0.5],[1,0.5]];portConstraint=eastwest;top=0;left=0;right=0;bottom=0;fontColor=#EEEEEE;fontSize=12;strokeWidth=0.5;labelBackgroundColor=none;strokeColor=#BAC8D3;rounded=1;" parent="Ei9gPc-FSOUI4zSgeNx--29" vertex="1">
          <mxGeometry y="67" width="180" height="25" as="geometry" />
        </mxCell>
        <mxCell id="Ei9gPc-FSOUI4zSgeNx--34" value="" style="shape=partialRectangle;connectable=0;fillColor=none;top=0;left=0;bottom=0;right=0;editable=1;overflow=hidden;whiteSpace=wrap;html=1;fontColor=#EEEEEE;fontSize=12;strokeWidth=0.5;labelBackgroundColor=none;strokeColor=#BAC8D3;rounded=1;" parent="Ei9gPc-FSOUI4zSgeNx--33" vertex="1">
          <mxGeometry width="31.13793103448279" height="25" as="geometry">
            <mxRectangle width="31.13793103448279" height="25" as="alternateBounds" />
          </mxGeometry>
        </mxCell>
        <mxCell id="Ei9gPc-FSOUI4zSgeNx--35" value="user_Id" style="shape=partialRectangle;connectable=0;fillColor=none;top=0;left=0;bottom=0;right=0;align=left;spacingLeft=6;overflow=hidden;whiteSpace=wrap;html=1;fontColor=#EEEEEE;fontSize=12;strokeWidth=0.5;labelBackgroundColor=none;strokeColor=#BAC8D3;rounded=1;" parent="Ei9gPc-FSOUI4zSgeNx--33" vertex="1">
          <mxGeometry x="31.13793103448279" width="148.8620689655172" height="25" as="geometry">
            <mxRectangle width="148.8620689655172" height="25" as="alternateBounds" />
          </mxGeometry>
        </mxCell>
        <mxCell id="Ei9gPc-FSOUI4zSgeNx--36" value="" style="shape=tableRow;horizontal=0;startSize=0;swimlaneHead=0;swimlaneBody=0;fillColor=none;collapsible=0;dropTarget=0;points=[[0,0.5],[1,0.5]];portConstraint=eastwest;top=0;left=0;right=0;bottom=0;fontColor=#EEEEEE;fontSize=12;strokeWidth=0.5;labelBackgroundColor=none;strokeColor=#BAC8D3;rounded=1;" parent="Ei9gPc-FSOUI4zSgeNx--29" vertex="1">
          <mxGeometry y="92" width="180" height="22" as="geometry" />
        </mxCell>
        <mxCell id="Ei9gPc-FSOUI4zSgeNx--37" value="" style="shape=partialRectangle;connectable=0;fillColor=none;top=0;left=0;bottom=0;right=0;editable=1;overflow=hidden;whiteSpace=wrap;html=1;fontColor=#EEEEEE;fontSize=12;strokeWidth=0.5;labelBackgroundColor=none;strokeColor=#BAC8D3;rounded=1;" parent="Ei9gPc-FSOUI4zSgeNx--36" vertex="1">
          <mxGeometry width="31.13793103448279" height="22" as="geometry">
            <mxRectangle width="31.13793103448279" height="22" as="alternateBounds" />
          </mxGeometry>
        </mxCell>
        <mxCell id="Ei9gPc-FSOUI4zSgeNx--38" value="line1" style="shape=partialRectangle;connectable=0;fillColor=none;top=0;left=0;bottom=0;right=0;align=left;spacingLeft=6;overflow=hidden;whiteSpace=wrap;html=1;fontColor=#EEEEEE;fontSize=12;strokeWidth=0.5;labelBackgroundColor=none;strokeColor=#BAC8D3;rounded=1;" parent="Ei9gPc-FSOUI4zSgeNx--36" vertex="1">
          <mxGeometry x="31.13793103448279" width="148.8620689655172" height="22" as="geometry">
            <mxRectangle width="148.8620689655172" height="22" as="alternateBounds" />
          </mxGeometry>
        </mxCell>
        <mxCell id="Ei9gPc-FSOUI4zSgeNx--39" value="" style="shape=tableRow;horizontal=0;startSize=0;swimlaneHead=0;swimlaneBody=0;fillColor=none;collapsible=0;dropTarget=0;points=[[0,0.5],[1,0.5]];portConstraint=eastwest;top=0;left=0;right=0;bottom=0;fontColor=#EEEEEE;fontSize=12;strokeWidth=0.5;labelBackgroundColor=none;strokeColor=#BAC8D3;rounded=1;" parent="Ei9gPc-FSOUI4zSgeNx--29" vertex="1">
          <mxGeometry y="114" width="180" height="22" as="geometry" />
        </mxCell>
        <mxCell id="Ei9gPc-FSOUI4zSgeNx--40" value="" style="shape=partialRectangle;connectable=0;fillColor=none;top=0;left=0;bottom=0;right=0;editable=1;overflow=hidden;whiteSpace=wrap;html=1;fontColor=#EEEEEE;fontSize=12;strokeWidth=0.5;labelBackgroundColor=none;strokeColor=#BAC8D3;rounded=1;" parent="Ei9gPc-FSOUI4zSgeNx--39" vertex="1">
          <mxGeometry width="31.13793103448279" height="22" as="geometry">
            <mxRectangle width="31.13793103448279" height="22" as="alternateBounds" />
          </mxGeometry>
        </mxCell>
        <mxCell id="Ei9gPc-FSOUI4zSgeNx--41" value="country_id" style="shape=partialRectangle;connectable=0;fillColor=none;top=0;left=0;bottom=0;right=0;align=left;spacingLeft=6;overflow=hidden;whiteSpace=wrap;html=1;fontColor=#EEEEEE;fontSize=12;strokeWidth=0.5;labelBackgroundColor=none;strokeColor=#BAC8D3;rounded=1;" parent="Ei9gPc-FSOUI4zSgeNx--39" vertex="1">
          <mxGeometry x="31.13793103448279" width="148.8620689655172" height="22" as="geometry">
            <mxRectangle width="148.8620689655172" height="22" as="alternateBounds" />
          </mxGeometry>
        </mxCell>
        <mxCell id="Ei9gPc-FSOUI4zSgeNx--42" value="" style="shape=tableRow;horizontal=0;startSize=0;swimlaneHead=0;swimlaneBody=0;fillColor=none;collapsible=0;dropTarget=0;points=[[0,0.5],[1,0.5]];portConstraint=eastwest;top=0;left=0;right=0;bottom=0;fontColor=#EEEEEE;fontSize=12;strokeWidth=0.5;labelBackgroundColor=none;strokeColor=#BAC8D3;rounded=1;" parent="Ei9gPc-FSOUI4zSgeNx--29" vertex="1">
          <mxGeometry y="136" width="180" height="22" as="geometry" />
        </mxCell>
        <mxCell id="Ei9gPc-FSOUI4zSgeNx--43" value="" style="shape=partialRectangle;connectable=0;fillColor=none;top=0;left=0;bottom=0;right=0;editable=1;overflow=hidden;whiteSpace=wrap;html=1;fontColor=#EEEEEE;fontSize=12;strokeWidth=0.5;labelBackgroundColor=none;strokeColor=#BAC8D3;rounded=1;" parent="Ei9gPc-FSOUI4zSgeNx--42" vertex="1">
          <mxGeometry width="31.13793103448279" height="22" as="geometry">
            <mxRectangle width="31.13793103448279" height="22" as="alternateBounds" />
          </mxGeometry>
        </mxCell>
        <mxCell id="Ei9gPc-FSOUI4zSgeNx--44" value="line2&lt;span style=&quot;white-space: pre;&quot;&gt;&#x9;&lt;/span&gt;" style="shape=partialRectangle;connectable=0;fillColor=none;top=0;left=0;bottom=0;right=0;align=left;spacingLeft=6;overflow=hidden;whiteSpace=wrap;html=1;fontColor=#EEEEEE;fontSize=12;strokeWidth=0.5;labelBackgroundColor=none;strokeColor=#BAC8D3;rounded=1;" parent="Ei9gPc-FSOUI4zSgeNx--42" vertex="1">
          <mxGeometry x="31.13793103448279" width="148.8620689655172" height="22" as="geometry">
            <mxRectangle width="148.8620689655172" height="22" as="alternateBounds" />
          </mxGeometry>
        </mxCell>
        <mxCell id="Ei9gPc-FSOUI4zSgeNx--45" value="" style="shape=tableRow;horizontal=0;startSize=0;swimlaneHead=0;swimlaneBody=0;fillColor=none;collapsible=0;dropTarget=0;points=[[0,0.5],[1,0.5]];portConstraint=eastwest;top=0;left=0;right=0;bottom=0;fontColor=#EEEEEE;fontSize=12;strokeWidth=0.5;labelBackgroundColor=none;strokeColor=#BAC8D3;rounded=1;" parent="Ei9gPc-FSOUI4zSgeNx--29" vertex="1">
          <mxGeometry y="158" width="180" height="22" as="geometry" />
        </mxCell>
        <mxCell id="Ei9gPc-FSOUI4zSgeNx--46" value="" style="shape=partialRectangle;connectable=0;fillColor=none;top=0;left=0;bottom=0;right=0;editable=1;overflow=hidden;whiteSpace=wrap;html=1;fontColor=#EEEEEE;fontSize=12;strokeWidth=0.5;labelBackgroundColor=none;strokeColor=#BAC8D3;rounded=1;" parent="Ei9gPc-FSOUI4zSgeNx--45" vertex="1">
          <mxGeometry width="31.13793103448279" height="22" as="geometry">
            <mxRectangle width="31.13793103448279" height="22" as="alternateBounds" />
          </mxGeometry>
        </mxCell>
        <mxCell id="Ei9gPc-FSOUI4zSgeNx--47" value="landmark" style="shape=partialRectangle;connectable=0;fillColor=none;top=0;left=0;bottom=0;right=0;align=left;spacingLeft=6;overflow=hidden;whiteSpace=wrap;html=1;fontColor=#EEEEEE;fontSize=12;strokeWidth=0.5;labelBackgroundColor=none;strokeColor=#BAC8D3;rounded=1;" parent="Ei9gPc-FSOUI4zSgeNx--45" vertex="1">
          <mxGeometry x="31.13793103448279" width="148.8620689655172" height="22" as="geometry">
            <mxRectangle width="148.8620689655172" height="22" as="alternateBounds" />
          </mxGeometry>
        </mxCell>
        <mxCell id="Ei9gPc-FSOUI4zSgeNx--48" value="" style="shape=tableRow;horizontal=0;startSize=0;swimlaneHead=0;swimlaneBody=0;fillColor=none;collapsible=0;dropTarget=0;points=[[0,0.5],[1,0.5]];portConstraint=eastwest;top=0;left=0;right=0;bottom=0;fontColor=#EEEEEE;fontSize=12;strokeWidth=0.5;labelBackgroundColor=none;strokeColor=#BAC8D3;rounded=1;" parent="Ei9gPc-FSOUI4zSgeNx--29" vertex="1">
          <mxGeometry y="180" width="180" height="22" as="geometry" />
        </mxCell>
        <mxCell id="Ei9gPc-FSOUI4zSgeNx--49" value="" style="shape=partialRectangle;connectable=0;fillColor=none;top=0;left=0;bottom=0;right=0;editable=1;overflow=hidden;whiteSpace=wrap;html=1;fontColor=#EEEEEE;fontSize=12;strokeWidth=0.5;labelBackgroundColor=none;strokeColor=#BAC8D3;rounded=1;" parent="Ei9gPc-FSOUI4zSgeNx--48" vertex="1">
          <mxGeometry width="31.13793103448279" height="22" as="geometry">
            <mxRectangle width="31.13793103448279" height="22" as="alternateBounds" />
          </mxGeometry>
        </mxCell>
        <mxCell id="Ei9gPc-FSOUI4zSgeNx--50" value="city" style="shape=partialRectangle;connectable=0;fillColor=none;top=0;left=0;bottom=0;right=0;align=left;spacingLeft=6;overflow=hidden;whiteSpace=wrap;html=1;fontColor=#EEEEEE;fontSize=12;strokeWidth=0.5;labelBackgroundColor=none;strokeColor=#BAC8D3;rounded=1;" parent="Ei9gPc-FSOUI4zSgeNx--48" vertex="1">
          <mxGeometry x="31.13793103448279" width="148.8620689655172" height="22" as="geometry">
            <mxRectangle width="148.8620689655172" height="22" as="alternateBounds" />
          </mxGeometry>
        </mxCell>
        <mxCell id="Ei9gPc-FSOUI4zSgeNx--51" value="" style="shape=tableRow;horizontal=0;startSize=0;swimlaneHead=0;swimlaneBody=0;fillColor=none;collapsible=0;dropTarget=0;points=[[0,0.5],[1,0.5]];portConstraint=eastwest;top=0;left=0;right=0;bottom=0;fontColor=#EEEEEE;fontSize=12;strokeWidth=0.5;labelBackgroundColor=none;strokeColor=#BAC8D3;rounded=1;" parent="Ei9gPc-FSOUI4zSgeNx--29" vertex="1">
          <mxGeometry y="202" width="180" height="22" as="geometry" />
        </mxCell>
        <mxCell id="Ei9gPc-FSOUI4zSgeNx--52" value="" style="shape=partialRectangle;connectable=0;fillColor=none;top=0;left=0;bottom=0;right=0;editable=1;overflow=hidden;whiteSpace=wrap;html=1;fontColor=#EEEEEE;fontSize=12;strokeWidth=0.5;labelBackgroundColor=none;strokeColor=#BAC8D3;rounded=1;" parent="Ei9gPc-FSOUI4zSgeNx--51" vertex="1">
          <mxGeometry width="31.13793103448279" height="22" as="geometry">
            <mxRectangle width="31.13793103448279" height="22" as="alternateBounds" />
          </mxGeometry>
        </mxCell>
        <mxCell id="Ei9gPc-FSOUI4zSgeNx--53" value="state" style="shape=partialRectangle;connectable=0;fillColor=none;top=0;left=0;bottom=0;right=0;align=left;spacingLeft=6;overflow=hidden;whiteSpace=wrap;html=1;fontColor=#EEEEEE;fontSize=12;strokeWidth=0.5;labelBackgroundColor=none;strokeColor=#BAC8D3;rounded=1;" parent="Ei9gPc-FSOUI4zSgeNx--51" vertex="1">
          <mxGeometry x="31.13793103448279" width="148.8620689655172" height="22" as="geometry">
            <mxRectangle width="148.8620689655172" height="22" as="alternateBounds" />
          </mxGeometry>
        </mxCell>
        <mxCell id="Ei9gPc-FSOUI4zSgeNx--54" value="" style="shape=tableRow;horizontal=0;startSize=0;swimlaneHead=0;swimlaneBody=0;fillColor=none;collapsible=0;dropTarget=0;points=[[0,0.5],[1,0.5]];portConstraint=eastwest;top=0;left=0;right=0;bottom=0;fontColor=#EEEEEE;fontSize=12;strokeWidth=0.5;labelBackgroundColor=none;strokeColor=#BAC8D3;rounded=1;" parent="Ei9gPc-FSOUI4zSgeNx--29" vertex="1">
          <mxGeometry y="224" width="180" height="22" as="geometry" />
        </mxCell>
        <mxCell id="Ei9gPc-FSOUI4zSgeNx--55" value="" style="shape=partialRectangle;connectable=0;fillColor=none;top=0;left=0;bottom=0;right=0;editable=1;overflow=hidden;whiteSpace=wrap;html=1;fontColor=#EEEEEE;fontSize=12;strokeWidth=0.5;labelBackgroundColor=none;strokeColor=#BAC8D3;rounded=1;" parent="Ei9gPc-FSOUI4zSgeNx--54" vertex="1">
          <mxGeometry width="31.13793103448279" height="22" as="geometry">
            <mxRectangle width="31.13793103448279" height="22" as="alternateBounds" />
          </mxGeometry>
        </mxCell>
        <mxCell id="Ei9gPc-FSOUI4zSgeNx--56" value="zipcode" style="shape=partialRectangle;connectable=0;fillColor=none;top=0;left=0;bottom=0;right=0;align=left;spacingLeft=6;overflow=hidden;whiteSpace=wrap;html=1;fontColor=#EEEEEE;fontSize=12;strokeWidth=0.5;labelBackgroundColor=none;strokeColor=#BAC8D3;rounded=1;" parent="Ei9gPc-FSOUI4zSgeNx--54" vertex="1">
          <mxGeometry x="31.13793103448279" width="148.8620689655172" height="22" as="geometry">
            <mxRectangle width="148.8620689655172" height="22" as="alternateBounds" />
          </mxGeometry>
        </mxCell>
        <mxCell id="Ei9gPc-FSOUI4zSgeNx--85" value="Shipping Details" style="shape=table;startSize=39;container=1;collapsible=1;childLayout=tableLayout;fixedRows=1;rowLines=0;fontStyle=1;align=center;resizeLast=1;html=1;whiteSpace=wrap;strokeWidth=0.5;labelBackgroundColor=none;fillColor=#09555B;strokeColor=#BAC8D3;fontColor=#EEEEEE;rounded=1;" parent="1" vertex="1">
          <mxGeometry x="1056.77" y="217" width="190.23" height="174" as="geometry" />
        </mxCell>
        <mxCell id="Ei9gPc-FSOUI4zSgeNx--86" value="" style="shape=tableRow;horizontal=0;startSize=0;swimlaneHead=0;swimlaneBody=0;fillColor=none;collapsible=0;dropTarget=0;points=[[0,0.5],[1,0.5]];portConstraint=eastwest;top=0;left=0;right=0;bottom=1;html=1;strokeWidth=0.5;labelBackgroundColor=none;strokeColor=#BAC8D3;fontColor=#EEEEEE;rounded=1;" parent="Ei9gPc-FSOUI4zSgeNx--85" vertex="1">
          <mxGeometry y="39" width="190.23" height="31" as="geometry" />
        </mxCell>
        <mxCell id="Ei9gPc-FSOUI4zSgeNx--87" value="PK" style="shape=partialRectangle;connectable=0;fillColor=none;top=0;left=0;bottom=0;right=0;fontStyle=1;overflow=hidden;html=1;whiteSpace=wrap;strokeWidth=0.5;labelBackgroundColor=none;strokeColor=#BAC8D3;fontColor=#EEEEEE;rounded=1;" parent="Ei9gPc-FSOUI4zSgeNx--86" vertex="1">
          <mxGeometry width="40.227272727272975" height="31" as="geometry">
            <mxRectangle width="40.227272727272975" height="31" as="alternateBounds" />
          </mxGeometry>
        </mxCell>
        <mxCell id="Ei9gPc-FSOUI4zSgeNx--88" value="_id" style="shape=partialRectangle;connectable=0;fillColor=none;top=0;left=0;bottom=0;right=0;align=left;spacingLeft=6;fontStyle=5;overflow=hidden;html=1;whiteSpace=wrap;strokeWidth=0.5;labelBackgroundColor=none;strokeColor=#BAC8D3;fontColor=#EEEEEE;rounded=1;" parent="Ei9gPc-FSOUI4zSgeNx--86" vertex="1">
          <mxGeometry x="40.227272727272975" width="150.00272727272701" height="31" as="geometry">
            <mxRectangle width="150.00272727272701" height="31" as="alternateBounds" />
          </mxGeometry>
        </mxCell>
        <mxCell id="Ei9gPc-FSOUI4zSgeNx--92" value="" style="shape=tableRow;horizontal=0;startSize=0;swimlaneHead=0;swimlaneBody=0;fillColor=none;collapsible=0;dropTarget=0;points=[[0,0.5],[1,0.5]];portConstraint=eastwest;top=0;left=0;right=0;bottom=0;html=1;strokeWidth=0.5;labelBackgroundColor=none;strokeColor=#BAC8D3;fontColor=#EEEEEE;rounded=1;" parent="Ei9gPc-FSOUI4zSgeNx--85" vertex="1">
          <mxGeometry y="70" width="190.23" height="30" as="geometry" />
        </mxCell>
        <mxCell id="Ei9gPc-FSOUI4zSgeNx--93" value="FK" style="shape=partialRectangle;connectable=0;fillColor=none;top=0;left=0;bottom=0;right=0;editable=1;overflow=hidden;html=1;whiteSpace=wrap;strokeWidth=0.5;labelBackgroundColor=none;strokeColor=#BAC8D3;fontColor=#EEEEEE;rounded=1;" parent="Ei9gPc-FSOUI4zSgeNx--92" vertex="1">
          <mxGeometry width="40.227272727272975" height="30" as="geometry">
            <mxRectangle width="40.227272727272975" height="30" as="alternateBounds" />
          </mxGeometry>
        </mxCell>
        <mxCell id="Ei9gPc-FSOUI4zSgeNx--94" value="order_id" style="shape=partialRectangle;connectable=0;fillColor=none;top=0;left=0;bottom=0;right=0;align=left;spacingLeft=6;overflow=hidden;html=1;whiteSpace=wrap;strokeWidth=0.5;labelBackgroundColor=none;strokeColor=#BAC8D3;fontColor=#EEEEEE;rounded=1;" parent="Ei9gPc-FSOUI4zSgeNx--92" vertex="1">
          <mxGeometry x="40.227272727272975" width="150.00272727272701" height="30" as="geometry">
            <mxRectangle width="150.00272727272701" height="30" as="alternateBounds" />
          </mxGeometry>
        </mxCell>
        <mxCell id="Ei9gPc-FSOUI4zSgeNx--98" value="" style="shape=tableRow;horizontal=0;startSize=0;swimlaneHead=0;swimlaneBody=0;fillColor=none;collapsible=0;dropTarget=0;points=[[0,0.5],[1,0.5]];portConstraint=eastwest;top=0;left=0;right=0;bottom=0;html=1;strokeWidth=0.5;labelBackgroundColor=none;strokeColor=#BAC8D3;fontColor=#EEEEEE;rounded=1;" parent="Ei9gPc-FSOUI4zSgeNx--85" vertex="1">
          <mxGeometry y="100" width="190.23" height="41" as="geometry" />
        </mxCell>
        <mxCell id="Ei9gPc-FSOUI4zSgeNx--99" value="FK" style="shape=partialRectangle;connectable=0;fillColor=none;top=0;left=0;bottom=0;right=0;editable=1;overflow=hidden;html=1;whiteSpace=wrap;strokeWidth=0.5;labelBackgroundColor=none;strokeColor=#BAC8D3;fontColor=#EEEEEE;rounded=1;" parent="Ei9gPc-FSOUI4zSgeNx--98" vertex="1">
          <mxGeometry width="40.227272727272975" height="41" as="geometry">
            <mxRectangle width="40.227272727272975" height="41" as="alternateBounds" />
          </mxGeometry>
        </mxCell>
        <mxCell id="Ei9gPc-FSOUI4zSgeNx--100" value="shippingAddress" style="shape=partialRectangle;connectable=0;fillColor=none;top=0;left=0;bottom=0;right=0;align=left;spacingLeft=6;overflow=hidden;html=1;whiteSpace=wrap;strokeWidth=0.5;labelBackgroundColor=none;strokeColor=#BAC8D3;fontColor=#EEEEEE;rounded=1;" parent="Ei9gPc-FSOUI4zSgeNx--98" vertex="1">
          <mxGeometry x="40.227272727272975" width="150.00272727272701" height="41" as="geometry">
            <mxRectangle width="150.00272727272701" height="41" as="alternateBounds" />
          </mxGeometry>
        </mxCell>
        <mxCell id="Ei9gPc-FSOUI4zSgeNx--89" value="" style="shape=tableRow;horizontal=0;startSize=0;swimlaneHead=0;swimlaneBody=0;fillColor=none;collapsible=0;dropTarget=0;points=[[0,0.5],[1,0.5]];portConstraint=eastwest;top=0;left=0;right=0;bottom=0;html=1;strokeWidth=0.5;labelBackgroundColor=none;strokeColor=#BAC8D3;fontColor=#EEEEEE;rounded=1;" parent="Ei9gPc-FSOUI4zSgeNx--85" vertex="1">
          <mxGeometry y="141" width="190.23" height="30" as="geometry" />
        </mxCell>
        <mxCell id="Ei9gPc-FSOUI4zSgeNx--90" value="FK" style="shape=partialRectangle;connectable=0;fillColor=none;top=0;left=0;bottom=0;right=0;editable=1;overflow=hidden;html=1;whiteSpace=wrap;strokeWidth=0.5;labelBackgroundColor=none;strokeColor=#BAC8D3;fontColor=#EEEEEE;rounded=1;" parent="Ei9gPc-FSOUI4zSgeNx--89" vertex="1">
          <mxGeometry width="40.227272727272975" height="30" as="geometry">
            <mxRectangle width="40.227272727272975" height="30" as="alternateBounds" />
          </mxGeometry>
        </mxCell>
        <mxCell id="Ei9gPc-FSOUI4zSgeNx--91" value="driver_id" style="shape=partialRectangle;connectable=0;fillColor=none;top=0;left=0;bottom=0;right=0;align=left;spacingLeft=6;overflow=hidden;html=1;whiteSpace=wrap;strokeWidth=0.5;labelBackgroundColor=none;strokeColor=#BAC8D3;fontColor=#EEEEEE;rounded=1;" parent="Ei9gPc-FSOUI4zSgeNx--89" vertex="1">
          <mxGeometry x="40.227272727272975" width="150.00272727272701" height="30" as="geometry">
            <mxRectangle width="150.00272727272701" height="30" as="alternateBounds" />
          </mxGeometry>
        </mxCell>
        <mxCell id="Ei9gPc-FSOUI4zSgeNx--103" value="" style="edgeStyle=entityRelationEdgeStyle;fontSize=12;html=1;endArrow=ERmandOne;startArrow=ERmandOne;rounded=1;labelBackgroundColor=none;strokeColor=#0B4D6A;fontColor=default;" parent="1" source="nl1nnygOUxZhwJREU8Xv-21" target="Ei9gPc-FSOUI4zSgeNx--92" edge="1">
          <mxGeometry width="100" height="100" relative="1" as="geometry">
            <mxPoint x="1293.88" y="786" as="sourcePoint" />
            <mxPoint x="1270.0000000000005" y="1141.75" as="targetPoint" />
          </mxGeometry>
        </mxCell>
        <mxCell id="Ei9gPc-FSOUI4zSgeNx--133" value="" style="edgeStyle=entityRelationEdgeStyle;fontSize=12;html=1;endArrow=ERmandOne;startArrow=ERmandOne;rounded=1;labelBackgroundColor=none;strokeColor=#0B4D6A;fontColor=default;" parent="1" source="U8u-r5qWbixyM0oDS7mE-15" target="Ei9gPc-FSOUI4zSgeNx--89" edge="1">
          <mxGeometry width="100" height="100" relative="1" as="geometry">
            <mxPoint x="1249" y="1200" as="sourcePoint" />
            <mxPoint x="1367" y="1126" as="targetPoint" />
          </mxGeometry>
        </mxCell>
        <mxCell id="SNhjK2ylvRVR9rXaaGu1-4" value="" style="edgeStyle=entityRelationEdgeStyle;fontSize=12;html=1;endArrow=ERmany;rounded=1;labelBackgroundColor=none;strokeColor=#0B4D6A;fontColor=default;" edge="1" parent="1" source="W7pQTJgZ-b6TpAFAyF8u-65" target="SNhjK2ylvRVR9rXaaGu1-1">
          <mxGeometry width="100" height="100" relative="1" as="geometry">
            <mxPoint x="2208" y="481" as="sourcePoint" />
            <mxPoint x="2117" y="459" as="targetPoint" />
            <Array as="points">
              <mxPoint x="2037" y="493" />
              <mxPoint x="2029" y="485" />
            </Array>
          </mxGeometry>
        </mxCell>
      </root>
    </mxGraphModel>
  </diagram>
</mxfile>
